<svg width="24" height="24" viewBox="0 0 24 24" fill="none" xmlns="http://www.w3.org/2000/svg">
<path d="M19.4167 4C19.969 4 20.4167 3.55228 20.4167 3C20.4167 2.44772 19.969 2 19.4167 2V4ZM19.4167 22C19.969 22 20.4167 21.5523 20.4167 21C20.4167 20.4477 19.969 20 19.4167 20V22ZM4.00002 9.16667C3.44773 9.16667 3.00002 9.61438 3.00002 10.1667C3.00002 10.719 3.44773 11.1667 4.00002 11.1667V9.16667ZM14 11.1667C14.5523 11.1667 15 10.719 15 10.1667C15 9.61438 14.5523 9.16667 14 9.16667V11.1667ZM4.00002 12.375C3.44773 12.375 3.00002 12.8227 3.00002 13.375C3.00002 13.9273 3.44773 14.375 4.00002 14.375V12.375ZM14 14.375C14.5523 14.375 15 13.9273 15 13.375C15 12.8227 14.5523 12.375 14 12.375V14.375ZM14.8333 4H19.4167V2H14.8333V4ZM19.4167 20H14.8333V22H19.4167V20ZM8.50002 13.6667V13.375H6.50002V13.6667H8.50002ZM8.50002 13.375V10.3333H6.50002V13.375H8.50002ZM14.8333 20C11.3355 20 8.50002 17.1645 8.50002 13.6667H6.50002C6.50002 18.269 10.231 22 14.8333 22V20ZM14.8333 2C10.2941 2 6.60281 5.62902 6.50212 10.1444L8.50162 10.189C8.57813 6.75809 11.3838 4 14.8333 4V2ZM6.50212 10.1444C6.50072 10.2072 6.50002 10.2702 6.50002 10.3333H8.50002C8.50002 10.2851 8.50055 10.2369 8.50162 10.189L6.50212 10.1444ZM4.00002 11.1667H7.50187V9.16667H4.00002V11.1667ZM7.50187 11.1667H14V9.16667H7.50187V11.1667ZM4.00002 14.375H7.50002V12.375H4.00002V14.375ZM7.50002 14.375H14V12.375H7.50002V14.375Z" fill="#0F283B"/>
</svg>
