<svg width="159" height="136" viewBox="0 0 159 136" fill="none" xmlns="http://www.w3.org/2000/svg">
<g clip-path="url(#clip0)">
<path fill-rule="evenodd" clip-rule="evenodd" d="M137.187 60.7443C133.412 57.5982 128.791 58.1291 126.283 60.4592C123.789 62.7745 123.393 66.8743 125.554 69.3715C127.378 71.4705 131.652 70.9888 131.036 67.2626C130.429 69.2044 128.234 69.2289 127.583 67.7886C126.992 66.481 127.446 64.7212 129.578 63.9445C130.982 63.4332 132.776 64.146 133.647 65.3848C134.678 66.8448 134.595 69.3666 133.079 71.0871C126.933 78.0773 110.455 68.0541 105.844 63.0744C96.866 53.3805 85.155 59.0582 79.4927 59.8988C73.8352 59.0582 62.1194 53.3756 53.1418 63.0744C48.5308 68.059 32.0572 78.0773 25.9059 71.0871C24.395 69.3666 24.3119 66.8448 25.3387 65.3848C26.214 64.146 28.0085 63.4332 29.407 63.9445C31.5389 64.7261 31.9937 66.481 31.4069 67.7886C30.7566 69.2289 28.5611 69.2044 27.9498 67.2626C27.3337 70.9839 31.6123 71.4656 33.4312 69.3715C35.5925 66.8792 35.1916 62.7794 32.7027 60.4592C30.1942 58.1291 25.5783 57.5982 21.7985 60.7443C18.185 63.7528 16.9528 70.4825 21.3731 77.6202C26.4878 85.8836 37.7587 87.2895 49.3376 85.451C61.1072 83.583 69.8648 73.8694 79.4829 73.5745C89.101 73.8694 97.8586 83.583 109.633 85.451C121.212 87.2895 132.478 85.8836 137.598 77.6202C142.033 70.4825 140.8 63.7528 137.187 60.7443Z" fill="#39EEC9"/>
<path d="M118.513 50.1951C118.004 50.1951 117.555 49.8608 117.408 49.3692L111.325 28.9048L105.707 40.2455C105.521 40.6142 105.159 40.86 104.748 40.8846C104.352 40.9141 103.941 40.7175 103.717 40.3684L99.4478 33.9042H88.5387C87.9031 33.9042 87.3848 33.3831 87.3848 32.7391C87.3848 32.1001 87.8982 31.5741 88.5387 31.5741H100.069C100.455 31.5741 100.812 31.7658 101.027 32.0952L104.538 37.4091L110.562 25.2377C110.772 24.81 111.193 24.5593 111.692 24.5986C112.161 24.6428 112.562 24.9673 112.694 25.4245L118.288 44.2273L124.297 13.892C124.41 13.3316 124.914 12.9187 125.476 12.958C126.043 12.9826 126.508 13.4201 126.576 13.9903L128.698 33.275L131.828 31.697C131.984 31.6134 132.165 31.5741 132.346 31.5741H141.568C142.204 31.5741 142.722 32.0952 142.722 32.7391C142.722 33.3831 142.209 33.9042 141.568 33.9042H132.615L128.243 36.1064C127.906 36.2785 127.515 36.2687 127.178 36.0868C126.845 35.9049 126.63 35.5706 126.586 35.1921L125.099 21.6983L119.638 49.2562C119.535 49.7822 119.09 50.1656 118.562 50.1902C118.552 50.1951 118.532 50.1951 118.513 50.1951Z" fill="#FF3C88"/>
<path d="M148.135 26.7566H146.008C144.883 19.3043 141.167 12.7024 135.803 7.91932C130.278 2.99371 123.002 0 115.051 0C107.751 0 101.017 2.52671 95.6827 6.7592C90.6364 10.7656 86.842 16.2958 84.9888 22.6568C83.4681 21.6884 81.6637 21.1182 79.7323 21.1182C77.8057 21.1182 76.0063 21.6884 74.4905 22.6519C72.6373 16.2909 68.8428 10.7606 63.7966 6.7592C58.4619 2.52671 51.7287 0 44.4283 0C36.4727 0 29.2016 2.99371 23.6713 7.92424C18.3073 12.7024 14.5911 19.3092 13.4664 26.7615H10.8749C8.26861 26.7615 6.16113 28.8802 6.16113 31.5003C6.16113 34.1204 8.2735 36.2391 10.8749 36.2391H13.4664C14.5911 43.6865 18.3122 50.2934 23.6713 55.0715C29.1967 59.9971 36.4678 62.9957 44.4185 62.9957C61.5962 62.9957 75.5711 49.03 75.7374 31.8002H75.7472V31.0186C75.7472 29.9125 76.1921 28.9146 76.9158 28.1871C77.6395 27.4596 78.6321 27.0122 79.7274 27.0122C80.8325 27.0122 81.8251 27.4596 82.5537 28.1871C83.2774 28.9146 83.7223 29.9125 83.7223 31.0186V31.8002H83.7321C83.8935 49.03 97.8782 62.9957 115.046 62.9957C123.002 62.9957 130.273 59.9971 135.793 55.0715C141.157 50.2934 144.878 43.6865 146.003 36.2391H148.13C149.426 36.2391 150.609 35.7082 151.46 34.8529C152.311 33.9975 152.839 32.8079 152.834 31.5003C152.839 28.8802 150.736 26.7566 148.135 26.7566ZM115.051 57.0919C108.034 57.0919 101.673 54.2211 97.0567 49.5855C92.4457 44.945 89.59 38.5496 89.59 31.4905C89.59 24.4314 92.4457 18.036 97.0567 13.4004C101.668 8.76484 108.034 5.89402 115.051 5.89402C122.073 5.89402 128.439 8.76484 133.05 13.4004C137.666 18.0409 140.517 24.4363 140.517 31.4905C140.517 38.5496 137.661 44.945 133.05 49.5855C128.439 54.226 122.073 57.0919 115.051 57.0919ZM44.4283 57.0919C37.4066 57.0919 31.0451 54.2211 26.4291 49.5855C21.8181 44.945 18.9674 38.5496 18.9674 31.4905C18.9674 24.4314 21.8181 18.036 26.4291 13.4004C31.0451 8.76484 37.4066 5.89402 44.4283 5.89402C51.4451 5.89402 57.8067 8.76484 62.4177 13.4004C67.0336 18.0409 69.8843 24.4363 69.8843 31.4905C69.8843 38.5496 67.0287 44.945 62.4177 49.5855C57.8067 54.226 51.4402 57.0919 44.4283 57.0919Z" fill="#4863F5"/>
<path d="M107.252 108.56C108.2 108.56 109.012 107.96 109.012 107.144C109.012 106.328 108.2 105.729 107.252 105.729C106.264 105.729 105.491 106.333 105.491 107.144C105.491 107.955 106.264 108.56 107.252 108.56Z" fill="#4863F5"/>
<path d="M126.395 112.807C126.009 112.665 125.622 112.842 125.481 113.23C124.146 116.946 119.745 126.257 117.241 126.257C113.863 126.257 116.963 112.773 118.968 112.773C119.637 112.773 119.882 114.577 119.569 115.855C119.461 116.243 119.711 116.597 120.097 116.706C120.483 116.814 120.835 116.602 120.943 116.209C121.647 113.628 120.449 110.404 117.564 110.404C113.799 110.404 111.291 118.2 111.965 123.553C110.611 126.154 109.173 127.855 107.858 127.855C106.45 127.855 108 118.333 108.811 113.663C109.09 112.07 104.939 111.893 104.621 113.309C104.181 115.423 103.795 117.93 103.633 120.363C101.897 124.659 99.873 127.855 98.0932 127.855C96.6507 127.855 98.6897 117.767 100.313 111.397C100.597 110.443 99.961 110.02 99.1151 110.02C96.6507 110.02 93.5506 111.893 90.5238 112.109C92.4602 107.012 93.1985 101.491 89.1498 101.491H89.1156C86.3675 101.491 84.7833 104.854 84.7833 107.862C84.7833 109.568 85.2722 111.126 86.2209 112.183C86.0888 112.281 86.0448 112.453 86.0057 112.625C85.4776 114.96 84.529 118.962 83.8591 120.909C83.2283 122.786 81.9228 126.291 81.1844 126.291C79.8104 126.291 81.0426 117.266 81.9961 113.019C82.49 110.964 78.0501 110.507 77.5611 112.665C75.6932 118.008 74.285 122.432 72.7007 122.432C71.2582 122.432 72.7349 114.926 73.5808 112.311C74.285 110.438 69.9918 110.01 69.4637 111.814C69.4637 111.854 68.9796 113.491 68.5738 115.619C65.6252 122.388 60.8822 127.383 59.2001 127.383C58.5302 127.383 61.733 113.51 62.7892 110.359C63.1755 109.366 59.0241 108.59 58.672 109.937C58.4618 110.536 58.2124 111.244 57.9337 111.991C57.0877 110.153 55.5035 108.806 52.5452 108.983C50.4866 109.101 48.873 110.62 47.7874 112.67C47.7043 112.606 47.6016 112.552 47.4843 112.517C47.098 112.414 46.7459 112.66 46.6383 113.048C46.4965 113.545 45.4403 118.392 44.9856 120.019C43.9294 123.947 40.443 132.549 39.2499 132.549C38.0177 132.549 39.4944 122.777 40.4137 117.895C42.5261 106.142 43.9343 97.2931 36.2232 97.2931C33.1915 97.2931 30.6978 102.179 28.7223 107.631C29.6367 100.159 29.4606 93.0852 23.3338 93.0852C18.8988 93.0852 16.7522 99.7019 14.3562 108.978C15.3439 98.9596 13.4076 91.2123 5.48621 91.5613C-4.01947 91.5613 1.40326 109.966 2.98754 112.832C3.16357 113.151 3.62321 113.328 3.93615 113.078C4.25399 112.832 4.36156 112.439 4.18064 112.119C1.82378 107.803 -0.674879 93.3949 4.2491 93.3949C10.6204 93.3949 10.6596 102.597 10.1266 109.071C9.67183 113.958 10.1266 109.922 7.83817 123.406C7.59369 124.856 11.7109 124.856 12.0629 123.548L14.0726 115.796C16.3952 105.852 19.5296 94.4567 22.6981 94.6681C25.1968 94.9532 25.0892 101.216 24.6687 105.783C24.4584 107.872 22.0625 119.837 21.9207 120.471C21.5001 122.275 25.7933 122.275 26.1796 120.825C26.1796 120.152 28.3262 113.004 29.0695 110.846C30.3017 107.164 33.4702 98.7433 36.0374 98.7433C38.9272 98.7433 37.4456 108.3 36.1449 116.863C34.7709 125.112 32.8346 136.01 37.4798 136.01C41.6019 136.01 44.7216 126.493 46.3156 120.505C46.6188 122.87 47.7239 124.654 49.7531 124.654C52.7456 124.654 54.858 121.857 56.2663 119.38C55.3176 124.546 55.034 129.644 58.3102 129.644C61.2 129.644 65.2047 124.831 68.0359 119.866C67.9185 122.796 68.4857 125.402 70.9013 125.402C72.8767 125.402 74.7397 123.524 76.5 119.773C75.8301 124.443 76.0453 129.649 79.2823 129.649C81.9228 129.649 83.8249 125.367 85.1989 121.331C85.9226 119.213 86.8174 115.221 87.3504 113.068C87.942 113.382 88.6364 113.559 89.4285 113.559C91.6485 113.559 93.7608 113.063 95.7656 112.355C94.0053 119.045 91.893 130.017 97.4575 130.017C99.7508 130.017 101.824 127.525 103.584 123.996C103.77 127.555 104.748 130.303 107.222 130.303C109.164 130.303 110.939 128.489 112.493 125.765C113.119 127.407 114.22 128.494 115.911 128.494C119.994 128.494 124.605 119.999 126.825 113.736C126.957 113.338 126.781 112.945 126.395 112.807ZM51.6894 122.487C49.7531 122.487 51.2689 110.738 53.7334 110.738C55.2834 110.738 56.5841 112.296 57.1464 113.923C55.4546 117.993 53.0977 122.487 51.6894 122.487ZM88.964 112.099C87.0619 111.854 86.1817 109.941 86.1817 107.852C86.1817 105.586 87.2721 102.897 89.1058 102.897H89.14C91.8881 102.897 90.5874 108.241 88.964 112.099Z" fill="#4863F5"/>
<path d="M140.585 112.807C139.813 112.596 139.773 113.127 139.495 113.977C136.923 122.044 133.299 127.958 131.397 127.958C129.705 127.958 130.023 121.233 130.023 118.402C132.204 118.402 139.637 109.022 132.59 109.022C128.928 109.022 126.64 112.881 126.64 117.128C126.64 121.518 126.219 129.339 131.109 129.339C133.397 129.339 137.519 124.241 140.825 114.405C141.079 113.692 141.363 113.019 140.585 112.807ZM133.686 111.141C135.867 111.141 131.994 116.873 130.131 117.123C130.693 112.065 133.123 111.141 133.686 111.141Z" fill="#4863F5"/>
<path d="M154.555 121.135C153.567 121.135 152.795 121.734 152.795 122.55C152.795 123.366 153.567 123.966 154.555 123.966C155.509 123.966 156.315 123.362 156.315 122.55C156.315 121.739 155.504 121.135 154.555 121.135Z" fill="#4863F5"/>
<path d="M155.68 117.846L158.99 100.538C159.235 99.579 154.976 98.4827 155.117 99.5445L154.061 117.738C154.061 118.161 155.294 118.269 155.68 117.846Z" fill="#4863F5"/>
</g>
<defs>
<clipPath id="clip0">
<rect width="159" height="136" fill="white"/>
</clipPath>
</defs>
</svg>
