<svg width="148" height="148" viewBox="0 0 148 148" fill="none" xmlns="http://www.w3.org/2000/svg">
<path d="M135.11 123.924C143.247 115.466 147.845 104.219 147.964 92.4836C147.964 64.4369 120.999 41.624 87.8568 41.624C54.7148 41.624 27.75 64.4369 27.75 92.4836C27.75 120.53 54.7148 143.343 87.8568 143.343H143.34C145.894 143.348 147.967 141.281 147.972 138.728C147.974 137.497 147.485 136.316 146.613 135.446L135.11 123.924Z" fill="#39EEC9"/>
<path d="M60.115 4.63525C26.9731 4.63525 0.00823957 27.4481 0.00823957 55.4949C0.129031 67.2301 4.72691 78.4765 12.8618 86.9353L1.35833 98.4574C-0.449497 100.261 -0.453253 103.188 1.34995 104.996C2.21948 105.868 3.40052 106.356 4.63184 106.354H60.115C93.257 106.354 120.222 83.5416 120.222 55.4949C120.222 27.4481 93.257 4.63525 60.115 4.63525Z" fill="#4863F5"/>
<path d="M87.8568 41.624H32.3736C29.8199 41.624 27.75 43.694 27.75 46.2476C27.75 48.8013 29.8199 50.8712 32.3736 50.8712H87.8568C90.4105 50.8712 92.4804 48.8013 92.4804 46.2476C92.4804 43.694 90.4102 41.624 87.8568 41.624Z" fill="#FAFAFA"/>
<path d="M69.3624 60.1187H32.3736C29.8199 60.1187 27.75 62.1886 27.75 64.7423C27.75 67.2959 29.8199 69.3659 32.3736 69.3659H69.3624C71.9161 69.3659 73.986 67.2959 73.986 64.7423C73.986 62.1886 71.9158 60.1187 69.3624 60.1187Z" fill="#FAFAFA"/>
<path d="M87.8568 50.8712H32.3736C29.8199 50.8712 27.75 48.8013 27.75 46.2476C27.75 43.694 29.8199 41.624 32.3736 41.624H87.8568C90.4105 41.624 92.4804 43.694 92.4804 46.2476C92.4804 48.8013 90.4102 50.8712 87.8568 50.8712Z" fill="white"/>
<path d="M69.3624 69.3654H32.3736C29.8199 69.3654 27.75 67.2954 27.75 64.7418C27.75 62.1881 29.8199 60.1182 32.3736 60.1182H69.3624C71.9161 60.1182 73.986 62.1881 73.986 64.7418C73.986 67.2954 71.9158 69.3654 69.3624 69.3654Z" fill="white"/>
</svg>
