<svg width="49" height="48" viewBox="0 0 49 48" fill="none" xmlns="http://www.w3.org/2000/svg">
<g clip-path="url(#clip0)">
<path d="M29.4633 33.3669H19.5374C15.2531 33.3669 11.7676 36.8525 11.7676 41.1368V47.2968C11.7676 47.6852 12.0825 48 12.4709 48H36.5298C36.9182 48 37.233 47.6851 37.233 47.2968V41.1368C37.2331 36.8526 33.7475 33.3669 29.4633 33.3669Z" fill="#F0EEEE"/>
<path d="M29.4634 33.3669H26.9629C31.2472 33.3669 34.7327 36.8525 34.7327 41.1368V47.2968C34.7327 47.6852 34.4178 48 34.0295 48H36.53C36.9184 48 37.2332 47.6851 37.2332 47.2968V41.1368C37.2332 36.8526 33.7476 33.3669 29.4634 33.3669Z" fill="#D9D4D4"/>
<path d="M24.2139 44.5599C24.3052 44.603 24.4026 44.6244 24.5001 44.6244C24.5975 44.6244 24.695 44.603 24.7862 44.5599C27.2163 43.4139 29.0293 41.472 30.0292 38.9441C30.7088 37.2262 30.9932 35.2764 30.8374 33.4912C30.3909 33.4111 29.9321 33.3669 29.463 33.3669H19.5371C19.068 33.3669 18.6092 33.4111 18.1627 33.4912C18.0068 35.2764 18.2913 37.2262 18.9709 38.9441C19.9708 41.472 21.7838 43.4139 24.2139 44.5599Z" fill="#39EEC9"/>
<path d="M30.8378 33.4912C30.8377 33.4912 30.8377 33.4912 30.8378 33.4912C30.729 33.4717 30.6196 33.4545 30.5095 33.4394C30.4999 33.4381 30.4902 33.437 30.4807 33.4358C30.38 33.4223 30.2786 33.4107 30.1768 33.4011C30.1395 33.3977 30.1019 33.3953 30.0644 33.3925C29.9864 33.3863 29.9084 33.3802 29.8299 33.3763C29.7084 33.3707 29.5863 33.367 29.4634 33.367H26.9629C28.3902 33.367 29.7278 33.7556 30.8785 34.43C30.8775 34.1136 30.8647 33.7998 30.8378 33.4912Z" fill="#5AA8A2"/>
<path d="M19.9591 44.3779H19.2845V43.7032C19.2845 43.3148 18.9696 43 18.5813 43C18.1928 43 17.8779 43.3149 17.8779 43.7032V44.3779H17.2032C16.8148 44.3779 16.5 44.6928 16.5 45.0812C16.5 45.4695 16.8149 45.7844 17.2032 45.7844H17.8779V46.4591C17.8779 46.8475 18.1928 47.1624 18.5813 47.1624C18.9697 47.1624 19.2845 46.8475 19.2845 46.4591V45.7844H19.9591C20.3475 45.7844 20.6623 45.4695 20.6623 45.0812C20.6623 44.6928 20.3475 44.3779 19.9591 44.3779Z" fill="#FF3C88"/>
<path d="M31.3822 41.5549C30.9938 41.5549 30.679 41.2401 30.679 40.8518V37.4611C30.679 33.5455 27.4935 30.3599 23.5779 30.3599C19.6622 30.3599 16.4766 33.5454 16.4766 37.4611V40.3812C16.4766 40.7695 16.1618 41.0843 15.7734 41.0843C15.385 41.0843 15.0703 40.7695 15.0703 40.3812V37.4611C15.0703 32.7701 18.8867 28.9536 23.5778 28.9536C28.2688 28.9536 32.0853 32.7701 32.0853 37.4611V40.8518C32.0853 41.2401 31.7705 41.5549 31.3822 41.5549Z" fill="#19303F"/>
<path d="M15.7735 39.678C14.6384 39.678 13.7148 40.6015 13.7148 41.7365C13.7148 42.8716 14.6384 43.7951 15.7735 43.7951C16.9086 43.7951 17.8322 42.8716 17.8322 41.7365C17.8321 40.6015 16.9085 39.678 15.7735 39.678Z" fill="#39EEC9"/>
<path d="M33.2462 46.0354H32.9051C32.5167 46.0354 32.202 45.7206 32.202 45.3323C32.202 45.0764 32.3386 44.8524 32.5431 44.7294V42.7154C32.5431 42.0753 32.0224 41.5547 31.3824 41.5547C30.7424 41.5547 30.2217 42.0754 30.2217 42.7154V44.7294C30.4261 44.8524 30.5628 45.0764 30.5628 45.3323C30.5628 45.7206 30.2481 46.0354 29.8597 46.0354H29.5186C29.1301 46.0354 28.8154 45.7206 28.8154 45.3323V42.7155C28.8154 41.3 29.967 40.1487 31.3823 40.1487C32.7977 40.1487 33.9492 41.3002 33.9492 42.7155V45.3323C33.9493 45.7206 33.6345 46.0354 33.2462 46.0354Z" fill="#3D5868"/>
<path d="M14.7336 32.4007H34.2668C36.7642 32.4007 38.7615 30.3256 38.6662 27.8301L37.9753 9.73727C37.8419 6.24264 34.9701 3.47842 31.4729 3.47842H17.5277C14.0305 3.47842 11.1587 6.24264 11.0253 9.73727L10.3343 27.8301C10.239 30.3257 12.2363 32.4007 14.7336 32.4007Z" fill="#484655"/>
<path d="M20.5527 25.0953V33.5971C20.5527 35.7771 22.32 37.5443 24.5 37.5443C26.68 37.5443 28.4472 35.7771 28.4472 33.5971V25.0953H20.5527Z" fill="#FA9E3E"/>
<path d="M12.2947 20.9939H16.924V26.3021H12.2947C10.8289 26.3021 9.64063 25.1138 9.64063 23.648C9.64053 22.1822 10.8288 20.9939 12.2947 20.9939Z" fill="#FA9E3E"/>
<path d="M36.7045 20.9939H32.0752V26.3021H36.7045C38.1703 26.3021 39.3585 25.1138 39.3585 23.648C39.3586 22.1822 38.1704 20.9939 36.7045 20.9939Z" fill="#FA9E3E"/>
<path d="M34.7471 17.8679C34.9072 17.9399 35.0121 18.0966 35.0121 18.2722V21.6212C35.0121 24.5243 33.8354 27.1516 31.9338 29.0542C30.0312 30.9567 27.4029 32.1335 24.4998 32.1335C24.4088 32.1335 24.3188 32.1325 24.2287 32.1297H24.2166C24.1303 32.1278 24.0441 32.1241 23.9586 32.1194C23.9521 32.1194 23.9465 32.1194 23.9399 32.1185H23.9361C18.3916 31.8259 13.9873 27.2369 13.9873 21.6211V18.0999C13.9873 17.7211 14.2875 17.4109 14.666 17.396C22.9543 17.0699 27.5854 14.5299 30.3909 12.0722C30.5764 11.9098 30.8654 12.0097 30.9155 12.2511C31.213 13.6873 31.8918 15.189 32.8244 16.3212C33.3833 17.0005 34.0337 17.5472 34.7471 17.8679Z" fill="#FFB56B"/>
<path d="M24.5006 27.0414C23.2354 27.0414 22.0494 26.4196 21.3282 25.378C21.1072 25.0587 21.1868 24.6206 21.5061 24.3995C21.8254 24.1784 22.2636 24.2579 22.4846 24.5773C22.9432 25.2395 23.6968 25.6349 24.5007 25.6349C25.3046 25.6349 26.0583 25.2396 26.5168 24.5773C26.7379 24.258 27.176 24.1784 27.4954 24.3995C27.8147 24.6205 27.8943 25.0587 27.6732 25.378C26.9519 26.4196 25.7659 27.0414 24.5006 27.0414Z" fill="#19303F"/>
<path d="M34.7467 17.8679C34.9068 17.9399 35.0117 18.0966 35.0117 18.2722V21.6212C35.0117 24.5243 33.8349 27.1516 31.9333 29.0542C30.0308 30.9567 27.4025 32.1335 24.4993 32.1335C24.4084 32.1335 24.3184 32.1325 24.2283 32.1297H24.2161C24.1299 32.1278 24.0436 32.1241 23.9582 32.1194C23.9516 32.1194 23.946 32.1194 23.9395 32.1185C28.8923 31.8418 32.8239 27.7376 32.8239 22.7145V16.3214C33.3829 17.0005 34.0332 17.5472 34.7467 17.8679Z" fill="#EF9245"/>
<path d="M29.5938 21.2726C29.2054 21.2726 28.8906 20.9577 28.8906 20.5693V20.3818C28.8906 19.9934 29.2054 19.6786 29.5938 19.6786C29.9823 19.6786 30.2971 19.9935 30.2971 20.3818V20.5693C30.2972 20.9577 29.9823 21.2726 29.5938 21.2726Z" fill="#19303F"/>
<path d="M19.4063 21.2726C19.0179 21.2726 18.7031 20.9577 18.7031 20.5693V20.3818C18.7031 19.9934 19.018 19.6786 19.4063 19.6786C19.7947 19.6786 20.1096 19.9935 20.1096 20.3818V20.5693C20.1096 20.9577 19.7948 21.2726 19.4063 21.2726Z" fill="#19303F"/>
<path d="M36.1593 28.4807C35.7709 28.4807 35.4561 28.1658 35.4561 27.7774V24.9776C35.4561 24.5892 35.771 24.2744 36.1593 24.2744C36.5477 24.2744 36.8625 24.5893 36.8625 24.9776V27.7774C36.8625 28.1658 36.5477 28.4807 36.1593 28.4807Z" fill="#F0EEEE"/>
<path d="M12.842 28.4807C12.4536 28.4807 12.1387 28.1658 12.1387 27.7774V24.9776C12.1387 24.5892 12.4536 24.2744 12.842 24.2744C13.2304 24.2744 13.5452 24.5893 13.5452 24.9776V27.7774C13.5453 28.1658 13.2304 28.4807 12.842 28.4807Z" fill="#F0EEEE"/>
<path d="M15.5674 9.69732L16.2834 11.2781C16.4398 11.6237 16.8421 11.7828 17.1927 11.6379C21.8364 9.71785 27.163 9.71785 31.8067 11.6379C31.8946 11.6742 31.9855 11.6915 32.0752 11.6914C32.3433 11.6914 32.5987 11.5371 32.716 11.2781L33.432 9.69732C27.69 7.37279 21.3094 7.37279 15.5674 9.69732Z" fill="#39EEC9"/>
</g>
<defs>
<clipPath id="clip0">
<rect width="48" height="48" fill="white" transform="translate(0.5)"/>
</clipPath>
</defs>
</svg>
