<svg width="48" height="48" viewBox="0 0 48 48" fill="none" xmlns="http://www.w3.org/2000/svg">
<g clip-path="url(#clip0)">
<path d="M28.9633 33.3669H19.0374C14.7531 33.3669 11.2676 36.8525 11.2676 41.1368V47.2968C11.2676 47.6852 11.5825 48 11.9709 48H36.0298C36.4182 48 36.733 47.6851 36.733 47.2968V41.1368C36.7331 36.8526 33.2475 33.3669 28.9633 33.3669Z" fill="#F0EEEE"/>
<path d="M28.9634 33.3669H26.4629C30.7472 33.3669 34.2327 36.8525 34.2327 41.1368V47.2968C34.2327 47.6852 33.9178 48 33.5295 48H36.03C36.4184 48 36.7332 47.6851 36.7332 47.2968V41.1368C36.7332 36.8526 33.2476 33.3669 28.9634 33.3669Z" fill="#D9D4D4"/>
<path d="M14.2346 32.4006H33.7678C36.2652 32.4006 38.2625 30.3256 38.1672 27.8301L37.4763 9.73724C37.3429 6.24261 34.471 3.47839 30.9739 3.47839H17.0287C13.5315 3.47839 10.6597 6.24261 10.5262 9.73724L9.83531 27.8301C9.73996 30.3257 11.7373 32.4006 14.2346 32.4006Z" fill="#484655"/>
<path d="M23.7139 44.5599C23.8052 44.603 23.9026 44.6244 24.0001 44.6244C24.0975 44.6244 24.195 44.603 24.2862 44.5599C26.7163 43.4139 28.5293 41.472 29.5292 38.9441C30.2088 37.2262 30.4932 35.2764 30.3374 33.4912C29.8909 33.4111 29.4321 33.3669 28.963 33.3669H19.0371C18.568 33.3669 18.1092 33.4111 17.6627 33.4912C17.5068 35.2764 17.7913 37.2262 18.4709 38.9441C19.4708 41.472 21.2838 43.4139 23.7139 44.5599Z" fill="#39EEC9"/>
<path d="M30.3378 33.4912C30.3377 33.4912 30.3377 33.4912 30.3378 33.4912C30.229 33.4717 30.1196 33.4545 30.0095 33.4394C29.9999 33.4381 29.9902 33.437 29.9807 33.4358C29.88 33.4224 29.7786 33.4108 29.6768 33.4011C29.6395 33.3977 29.6019 33.3954 29.5644 33.3926C29.4864 33.3864 29.4084 33.3802 29.3299 33.3763C29.2084 33.3707 29.0863 33.3671 28.9634 33.3671H26.4629C27.8902 33.3671 29.2278 33.7557 30.3785 34.43C30.3775 34.1136 30.3647 33.7998 30.3378 33.4912Z" fill="#5AA8A2"/>
<path d="M20.0527 25.0952V33.597C20.0527 35.7771 21.82 37.5443 24 37.5443C26.18 37.5443 27.9472 35.777 27.9472 33.597V25.0952H20.0527Z" fill="#FA9E3E"/>
<path d="M11.7947 20.9939H16.424V26.3021H11.7947C10.3289 26.3021 9.14063 25.1138 9.14063 23.648C9.14053 22.1822 10.3288 20.9939 11.7947 20.9939Z" fill="#FA9E3E"/>
<path d="M36.2055 20.9939H31.5762V26.3021H36.2055C37.6712 26.3021 38.8595 25.1138 38.8595 23.648C38.8596 22.1822 37.6713 20.9939 36.2055 20.9939Z" fill="#FA9E3E"/>
<path d="M34.2481 17.8679C34.4082 17.9399 34.5131 18.0966 34.5131 18.2722V21.6212C34.5131 24.5243 33.3364 27.1516 31.4347 29.0542C29.5322 30.9568 26.9039 32.1335 24.0007 32.1335C23.9098 32.1335 23.8198 32.1326 23.7297 32.1298H23.7175C23.6313 32.1279 23.545 32.1241 23.4596 32.1194C23.4531 32.1194 23.4474 32.1194 23.4409 32.1185H23.4371C17.8926 31.8259 13.4883 27.2369 13.4883 21.6211V18.1C13.4883 17.7211 13.7885 17.4109 14.1669 17.396C22.4553 17.0699 27.0863 14.53 29.8919 12.0722C30.0773 11.9098 30.3664 12.0098 30.4164 12.2511C30.714 13.6873 31.3927 15.189 32.3254 16.3212C32.8843 17.0006 33.5347 17.5472 34.2481 17.8679Z" fill="#FFB56B"/>
<path d="M24.0006 27.0414C22.7354 27.0414 21.5494 26.4196 20.8282 25.378C20.6072 25.0587 20.6868 24.6206 21.0061 24.3994C21.3254 24.1784 21.7636 24.2579 21.9846 24.5773C22.4432 25.2394 23.1968 25.6349 24.0007 25.6349C24.8046 25.6349 25.5583 25.2395 26.0168 24.5773C26.2379 24.258 26.676 24.1784 26.9954 24.3994C27.3147 24.6205 27.3943 25.0587 27.1732 25.378C26.4519 26.4196 25.2659 27.0414 24.0006 27.0414Z" fill="#19303F"/>
<path d="M34.2467 17.8679C34.4068 17.9399 34.5117 18.0966 34.5117 18.2722V21.6212C34.5117 24.5243 33.3349 27.1516 31.4333 29.0542C29.5308 30.9567 26.9025 32.1335 23.9993 32.1335C23.9084 32.1335 23.8184 32.1325 23.7283 32.1297H23.7161C23.6299 32.1278 23.5436 32.1241 23.4582 32.1194C23.4516 32.1194 23.446 32.1194 23.4395 32.1185C28.3923 31.8418 32.3239 27.7376 32.3239 22.7145V16.3214C32.8829 17.0005 33.5332 17.5472 34.2467 17.8679Z" fill="#EF9245"/>
<path d="M29.0938 21.2726C28.7054 21.2726 28.3906 20.9577 28.3906 20.5693V20.3818C28.3906 19.9934 28.7054 19.6786 29.0938 19.6786C29.4823 19.6786 29.7971 19.9935 29.7971 20.3818V20.5693C29.7972 20.9577 29.4823 21.2726 29.0938 21.2726Z" fill="#19303F"/>
<path d="M18.9063 21.2726C18.5179 21.2726 18.2031 20.9577 18.2031 20.5693V20.3818C18.2031 19.9934 18.518 19.6786 18.9063 19.6786C19.2947 19.6786 19.6096 19.9935 19.6096 20.3818V20.5693C19.6096 20.9577 19.2948 21.2726 18.9063 21.2726Z" fill="#19303F"/>
<path d="M35.6603 28.4807C35.2718 28.4807 34.957 28.1658 34.957 27.7774V24.9776C34.957 24.5892 35.2719 24.2744 35.6603 24.2744C36.0487 24.2744 36.3635 24.5893 36.3635 24.9776V27.7774C36.3635 28.1658 36.0487 28.4807 35.6603 28.4807Z" fill="#F0EEEE"/>
<path d="M12.342 28.4807C11.9536 28.4807 11.6387 28.1658 11.6387 27.7774V24.9776C11.6387 24.5892 11.9536 24.2744 12.342 24.2744C12.7304 24.2744 13.0452 24.5893 13.0452 24.9776V27.7774C13.0453 28.1658 12.7304 28.4807 12.342 28.4807Z" fill="#F0EEEE"/>
<path d="M35.8865 2.65851C35.8164 2.48132 35.6774 2.34013 35.5013 2.26729C28.1927 -0.754461 19.8095 -0.754461 12.5009 2.26729C12.3249 2.34013 12.1858 2.48132 12.1157 2.65851C12.0456 2.83579 12.0505 3.03379 12.129 3.20741L15.7847 11.279C15.9412 11.6246 16.3435 11.7837 16.6941 11.6388C21.3378 9.71873 26.6644 9.71873 31.3081 11.6388C31.396 11.6751 31.4869 11.6924 31.5765 11.6923C31.8447 11.6923 32.1001 11.5379 32.2174 11.279L35.8731 3.20741C35.9518 3.03379 35.9565 2.8357 35.8865 2.65851Z" fill="#F0EEEE"/>
<path d="M15.0684 9.69726L15.7843 11.2781C15.9408 11.6236 16.3431 11.7827 16.6937 11.6379C21.3374 9.71779 26.664 9.71779 31.3077 11.6379C31.3956 11.6742 31.4865 11.6914 31.5761 11.6913C31.8443 11.6913 32.0997 11.537 32.217 11.2781L32.933 9.69726C27.191 7.37272 20.8104 7.37272 15.0684 9.69726Z" fill="#39EEC9"/>
<path d="M12.7066 4.48172C19.8982 1.57181 28.104 1.57181 35.2956 4.48172L35.8732 3.20644C35.9518 3.03291 35.9566 2.83481 35.8865 2.65753C35.8164 2.48034 35.6773 2.33916 35.5013 2.26631C28.1927 -0.755437 19.8095 -0.755437 12.5009 2.26631C12.3249 2.33916 12.1858 2.48034 12.1157 2.65753C12.0456 2.83481 12.0505 3.03281 12.129 3.20644L12.7066 4.48172Z" fill="#39EEC9"/>
<path d="M25.3771 4.18165H24.7024V3.50693C24.7024 3.11852 24.3875 2.80371 23.9992 2.80371C23.6108 2.80371 23.2959 3.11862 23.2959 3.50693V4.18165H22.6212C22.2328 4.18165 21.918 4.49655 21.918 4.88487C21.918 5.27318 22.2329 5.58809 22.6212 5.58809H23.2959V6.2628C23.2959 6.65121 23.6108 6.96612 23.9992 6.96612C24.3876 6.96612 24.7024 6.65121 24.7024 6.2628V5.58809H25.3771C25.7655 5.58809 26.0803 5.27318 26.0803 4.88487C26.0803 4.49655 25.7655 4.18165 25.3771 4.18165Z" fill="#FF3C88"/>
</g>
<defs>
<clipPath id="clip0">
<rect width="48" height="48" fill="white"/>
</clipPath>
</defs>
</svg>
