<svg width="96" height="96" viewBox="0 0 96 96" fill="none" xmlns="http://www.w3.org/2000/svg">
<path d="M68.7932 7.81292C60.1602 7.90067 52.5565 12.2747 48.0001 18.9058C43.4447 12.2764 35.8437 7.90292 27.2134 7.81292C13.1099 7.66611 1.46875 19.1284 1.4065 33.2325C1.38831 37.3764 2.35713 41.2925 4.0915 44.7589C8.02113 52.6119 29.4994 70.6747 44.9987 81.2473C46.8194 82.4893 49.2132 82.4863 51.0406 81.2544C66.1636 71.0597 88.1558 52.4685 92.0297 44.5129C93.7114 41.0593 94.6373 37.1698 94.5919 33.0596C94.4374 19.0243 82.8287 7.67023 68.7932 7.81292V7.81292Z" fill="#FE646F"/>
<path d="M68.7933 7.81334C67.9301 7.82215 67.0775 7.87559 66.2368 7.96822C78.8568 9.36547 88.8242 20.0622 88.9674 33.06C89.0128 37.1702 88.0869 41.0597 86.4052 44.5133C82.5313 52.4689 60.539 71.0601 45.416 81.2548C45.3493 81.2998 45.2803 81.3396 45.212 81.3814C47.0036 82.4843 49.2834 82.4397 51.041 81.2548C66.164 71.0601 88.1563 52.4689 92.0302 44.5133C93.7119 41.0597 94.6378 37.1702 94.5924 33.06C94.4377 19.0247 82.8288 7.67065 68.7933 7.81334V7.81334Z" fill="#FD4755"/>
<path d="M82.4307 58.6458C78.7951 58.5794 75.5776 60.3824 73.6714 63.1567C71.7657 60.3832 68.5493 58.5806 64.915 58.6458C59.2066 58.7486 54.6025 63.5439 54.7217 69.2519C54.7549 70.8384 55.1436 72.3373 55.8117 73.6723C57.2526 76.5521 64.4954 82.8073 70.5272 87.1621C72.4084 88.5204 74.9451 88.5316 76.8289 87.1768C82.7762 82.8997 90.1624 76.4842 91.5805 73.5721C92.2281 72.242 92.6003 70.7529 92.6222 69.1792C92.7021 63.4991 88.1106 58.7495 82.4307 58.6458V58.6458Z" fill="#FD4755"/>
<path d="M82.4307 58.6458C81.3837 58.6267 80.3718 58.7634 79.4154 59.033C83.8261 60.2829 87.0642 64.4015 86.9973 69.1794C86.9752 70.7531 86.6032 72.242 85.9555 73.5721C84.5375 76.4842 77.1513 82.8997 71.204 87.1767C71.0969 87.2538 70.987 87.3251 70.8759 87.3933C72.7134 88.5162 75.0592 88.4495 76.829 87.1767C82.7763 82.8995 90.1625 76.4842 91.5806 73.5721C92.2282 72.242 92.6004 70.7529 92.6223 69.1794C92.7022 63.4991 88.1107 58.7495 82.4307 58.6458V58.6458Z" fill="#FB2B3A"/>
<path d="M47.9999 58.6442C56.7269 58.6442 63.8015 51.5696 63.8015 42.8426C63.8015 34.1156 56.7269 27.041 47.9999 27.041C39.273 27.041 32.1984 34.1156 32.1984 42.8426C32.1984 51.5696 39.273 58.6442 47.9999 58.6442Z" fill="#FFEEE8"/>
<path d="M48 27.041C47.0396 27.041 46.1006 27.1314 45.1875 27.2956C52.572 28.623 58.1766 35.0761 58.1766 42.8426C58.1766 50.6092 52.5718 57.0622 45.1875 58.3897C46.1006 58.5538 47.0396 58.6443 48 58.6443C56.727 58.6443 63.8016 51.5698 63.8016 42.8428C63.8016 34.1158 56.727 27.041 48 27.041V27.041Z" fill="#E1D3CE"/>
<path d="M53.7563 39.0592H51.7838V37.0867C51.7838 35.9703 50.8789 35.0654 49.7625 35.0654H46.2379C45.1215 35.0654 44.2167 35.9703 44.2167 37.0867V39.0592H42.2438C41.1274 39.0592 40.2225 39.9641 40.2225 41.0804V44.6051C40.2225 45.7214 41.1274 46.6263 42.2438 46.6263H44.2163V48.5988C44.2163 49.7152 45.1212 50.6201 46.2375 50.6201H49.7622C50.8785 50.6201 51.7834 49.7152 51.7834 48.5988V46.6263H53.7559C54.8723 46.6263 55.7771 45.7214 55.7771 44.6051V41.0804C55.7775 39.9642 54.8725 39.0592 53.7563 39.0592V39.0592Z" fill="#FD4755"/>
</svg>
