<svg width="96" height="96" viewBox="0 0 96 96" fill="none" xmlns="http://www.w3.org/2000/svg">
<path d="M68.7932 7.98479C60.1603 8.07254 52.5564 12.4467 48 19.0777C43.4447 12.4482 35.8436 8.07479 27.2134 7.98479C13.11 7.83798 1.46869 19.3004 1.40662 33.4045C1.38844 37.5485 2.35725 41.4646 4.09162 44.9309C7.99125 52.7245 29.1754 70.574 44.6458 81.178C46.6729 82.5674 49.3436 82.5774 51.3778 81.1987C66.4884 70.957 88.1846 52.5817 92.0299 44.6849C93.7115 41.2314 94.6374 37.3419 94.5921 33.2317C94.4376 19.1962 82.8287 7.84229 68.7932 7.98479V7.98479Z" fill="#FE646F"/>
<path d="M68.7932 7.98522C67.93 7.99403 67.0774 8.04747 66.2366 8.14009C78.8567 9.53734 88.824 20.234 88.9671 33.2319C89.0125 37.3421 88.0866 41.2316 86.4049 44.6852C82.5596 52.5819 60.8635 70.9571 45.7528 81.1989C45.5785 81.317 45.3981 81.4213 45.2151 81.5192C47.1546 82.5542 49.5285 82.4525 51.3778 81.1989C66.4885 70.9573 88.1846 52.5819 92.0299 44.6852C93.7116 41.2316 94.6375 37.3421 94.5921 33.2319C94.4376 19.1964 82.8287 7.84253 68.7932 7.98522V7.98522Z" fill="#FD4755"/>
<path d="M93.4196 86.5962L93.0185 86.9973C91.6603 88.3555 89.4581 88.3555 88.0998 86.9973L60.4758 59.3731C59.1176 58.0149 59.1176 55.8127 60.4758 54.4544L60.8769 54.0534C62.2352 52.6951 64.4373 52.6951 65.7956 54.0534L93.4196 81.6774C94.7778 83.0358 94.7778 85.238 93.4196 86.5962V86.5962Z" fill="#A79BA7"/>
<path d="M54.3677 67.1907C64.9964 67.1907 73.6127 58.5744 73.6127 47.9457C73.6127 37.317 64.9964 28.7007 54.3677 28.7007C43.739 28.7007 35.1227 37.317 35.1227 47.9457C35.1227 58.5744 43.739 67.1907 54.3677 67.1907Z" fill="#CBC4CC"/>
<path d="M54.3677 28.7007C53.4122 28.7007 52.4734 28.7714 51.5552 28.9058C60.8505 30.2671 67.9877 38.2724 67.9877 47.9455C67.9877 57.6186 60.8507 65.6239 51.5552 66.9852C52.4734 67.1196 53.4122 67.1903 54.3677 67.1903C64.9963 67.1903 73.6127 58.5741 73.6127 47.9453C73.6127 37.3165 64.9963 28.7007 54.3677 28.7007Z" fill="#A79BA7"/>
<path d="M54.3677 60.0586C61.0576 60.0586 66.4808 54.6354 66.4808 47.9456C66.4808 41.2557 61.0576 35.8325 54.3677 35.8325C47.6778 35.8325 42.2546 41.2557 42.2546 47.9456C42.2546 54.6354 47.6778 60.0586 54.3677 60.0586Z" fill="#FFEEE8"/>
<path d="M54.3677 35.8325C53.3991 35.8325 52.4582 35.9495 51.5552 36.1644C56.888 37.433 60.8557 42.2244 60.8557 47.9456C60.8557 53.6668 56.888 58.4581 51.5552 59.7268C52.4582 59.9416 53.3991 60.0586 54.3677 60.0586C61.0575 60.0586 66.4807 54.6354 66.4807 47.9456C66.4807 41.2558 61.0575 35.8325 54.3677 35.8325V35.8325Z" fill="#E1D3CE"/>
<path d="M49.9229 49.3522H53.3286V52.7582C53.3286 53.5348 53.958 54.1644 54.7349 54.1644C55.5117 54.1644 56.1411 53.5348 56.1411 52.7582V49.3522H59.547C60.3239 49.3522 60.9533 48.7226 60.9533 47.946C60.9533 47.1693 60.3239 46.5397 59.547 46.5397H56.1411V43.1338C56.1411 42.3572 55.5117 41.7275 54.7349 41.7275C53.958 41.7275 53.3286 42.3572 53.3286 43.1338V46.5397H49.9229C49.146 46.5397 48.5166 47.1693 48.5166 47.946C48.5166 48.7226 49.1462 49.3522 49.9229 49.3522Z" fill="black"/>
</svg>
