<svg width="178" height="120" viewBox="0 0 178 120" fill="none" xmlns="http://www.w3.org/2000/svg">
<path d="M85.5515 32H0V77.0599H85.5515V32Z" fill="#E9ECF6"/>
<path d="M2.49219 74.568H83.0601V34.4917H2.49219V74.568Z" fill="white"/>
<path d="M37.3768 40.3062H8.72119V68.9618H37.3768V40.3062Z" fill="#232735"/>
<path d="M30.5249 53.3878C30.9837 53.3878 31.3555 53.0159 31.3555 52.5572C31.3555 52.0984 30.9837 51.7266 30.5249 51.7266C30.0662 51.7266 29.6943 52.0984 29.6943 52.5572C29.6943 53.0159 30.0662 53.3878 30.5249 53.3878Z" fill="#FF3C88"/>
<path d="M27.4097 50.4808C27.8685 50.4808 28.2404 50.1089 28.2404 49.6502C28.2404 49.1915 27.8685 48.8196 27.4097 48.8196C26.951 48.8196 26.5791 49.1915 26.5791 49.6502C26.5791 50.1089 26.951 50.4808 27.4097 50.4808Z" fill="#FF3C88"/>
<path d="M26.9943 52.5571C26.6887 52.5572 26.3891 52.6421 26.1288 52.8024C25.8997 52.4577 25.6303 52.1415 25.3263 51.8605C25.3299 51.8162 25.3331 51.7718 25.3331 51.7266C25.3333 51.4006 25.2376 51.0818 25.0579 50.8099C24.8781 50.538 24.6223 50.3251 24.3224 50.1976C24.0224 50.0701 23.6915 50.0338 23.371 50.0931C23.0505 50.1524 22.7546 50.3047 22.5201 50.5311C22.0753 50.468 21.624 50.4641 21.1782 50.5194C21.1785 50.5064 21.1801 50.4938 21.1801 50.4807C21.1805 50.2026 21.111 49.9289 20.9781 49.6847C20.8452 49.4404 20.6532 49.2334 20.4195 49.0827C20.1859 48.932 19.9181 48.8423 19.6408 48.8219C19.3635 48.8015 19.0855 48.851 18.8323 48.9659C18.5792 49.0808 18.3589 49.2575 18.1917 49.4796C18.0244 49.7018 17.9157 49.9624 17.8753 50.2375C17.835 50.5126 17.8643 50.7934 17.9607 51.0542C18.057 51.3151 18.2173 51.5475 18.4268 51.7303C18.1487 51.9685 17.8965 52.2354 17.6742 52.5264C17.4692 52.3557 17.226 52.237 16.9654 52.1802C16.7048 52.1234 16.4343 52.1302 16.1768 52.2C15.9194 52.2699 15.6826 52.4007 15.4863 52.5814C15.2901 52.7621 15.1403 52.9875 15.0496 53.2383C14.9589 53.4892 14.93 53.7582 14.9652 54.0226C15.0004 54.287 15.0988 54.539 15.2521 54.7574C15.4053 54.9757 15.6089 55.154 15.8456 55.277C16.0822 55.4 16.3451 55.4643 16.6118 55.4642L16.6171 55.464C16.6144 55.533 16.6118 55.6022 16.6118 55.6719C16.6119 56.0899 16.6623 56.5063 16.7621 56.9122C16.2684 57.098 15.83 57.4061 15.488 57.8078C15.146 58.2094 14.9117 58.6913 14.807 59.2083C14.7024 59.7253 14.7308 60.2605 14.8896 60.7635C15.0484 61.2665 15.3324 61.7209 15.7149 62.0841C16.0975 62.4473 16.566 62.7074 17.0766 62.8398C17.5872 62.9723 18.1231 62.9729 18.634 62.8415C19.1449 62.7102 19.614 62.4511 19.9973 62.0888C20.3807 61.7264 20.6657 61.2726 20.8256 60.7699C21.9811 60.992 23.1778 60.8145 24.219 60.2665C24.3254 60.5169 24.4915 60.7372 24.7029 60.9084C24.9143 61.0795 25.1644 61.1961 25.4314 61.2479C25.6984 61.2998 25.974 61.2853 26.234 61.2058C26.4941 61.1263 26.7307 60.9841 26.923 60.7918C27.1153 60.5995 27.2574 60.3629 27.337 60.1029C27.4165 59.8428 27.431 59.5672 27.3791 59.3002C27.3272 59.0333 27.2106 58.7831 27.0395 58.5717C26.8684 58.3603 26.648 58.1942 26.3977 58.0879C26.7574 57.4051 26.9595 56.6504 26.9891 55.8793L26.9943 55.8795C27.4349 55.8795 27.8574 55.7045 28.1689 55.393C28.4805 55.0815 28.6555 54.6589 28.6555 54.2184C28.6555 53.7778 28.4805 53.3552 28.1689 53.0437C27.8574 52.7322 27.4349 52.5572 26.9943 52.5572V52.5571Z" fill="#FF3C88"/>
<path d="M26.5794 39.6831H18.2734V40.929H26.5794V39.6831Z" fill="#E9ECF6"/>
<path d="M73.9232 40.3062H45.2676V68.9618H73.9232V40.3062Z" fill="#232735"/>
<path d="M65.0359 59.7419C65.2423 59.7419 65.4097 59.5746 65.4097 59.3682C65.4097 59.1617 65.2423 58.9944 65.0359 58.9944C64.8295 58.9944 64.6621 59.1617 64.6621 59.3682C64.6621 59.5746 64.8295 59.7419 65.0359 59.7419Z" fill="#FF3C88"/>
<path d="M63.6345 58.4338C63.8409 58.4338 64.0083 58.2665 64.0083 58.06C64.0083 57.8536 63.8409 57.6863 63.6345 57.6863C63.4281 57.6863 63.2607 57.8536 63.2607 58.06C63.2607 58.2665 63.4281 58.4338 63.6345 58.4338Z" fill="#FF3C88"/>
<path d="M63.4476 59.3682C63.3101 59.3682 63.1753 59.4064 63.0582 59.4786C62.955 59.3234 62.8338 59.1812 62.6971 59.0547C62.6987 59.0348 62.7001 59.0148 62.7001 58.9944C62.7002 58.8478 62.6571 58.7043 62.5762 58.5819C62.4954 58.4596 62.3802 58.3638 62.2453 58.3064C62.1103 58.249 61.9614 58.2327 61.8172 58.2594C61.673 58.286 61.5398 58.3546 61.4343 58.4565C61.2341 58.4281 61.031 58.4263 60.8304 58.4512C60.8305 58.4454 60.8313 58.4397 60.8313 58.4338C60.8314 58.3087 60.8002 58.1855 60.7404 58.0756C60.6806 57.9657 60.5942 57.8725 60.489 57.8047C60.3839 57.7369 60.2634 57.6965 60.1386 57.6873C60.0138 57.6781 59.8887 57.7004 59.7748 57.7521C59.6608 57.8038 59.5617 57.8833 59.4865 57.9833C59.4112 58.0833 59.3623 58.2005 59.3441 58.3243C59.326 58.4481 59.3392 58.5745 59.3825 58.6919C59.4259 58.8093 59.498 58.9139 59.5923 58.9961C59.4672 59.1033 59.3536 59.2234 59.2536 59.3543C59.1614 59.2776 59.052 59.2241 58.9347 59.1986C58.8174 59.173 58.6957 59.1761 58.5798 59.2075C58.464 59.2389 58.3574 59.2978 58.2691 59.3791C58.1808 59.4604 58.1134 59.5618 58.0726 59.6747C58.0318 59.7876 58.0187 59.9087 58.0346 60.0276C58.0504 60.1466 58.0947 60.2601 58.1637 60.3583C58.2326 60.4566 58.3242 60.5368 58.4307 60.5921C58.5372 60.6475 58.6555 60.6764 58.7756 60.6764L58.7779 60.6763C58.7767 60.7073 58.7756 60.7385 58.7756 60.7698C58.7756 60.9579 58.7983 61.1453 58.8432 61.328C58.621 61.4116 58.4237 61.5502 58.2698 61.731C58.116 61.9117 58.0105 62.1286 57.9634 62.3612C57.9163 62.5939 57.9291 62.8347 58.0005 63.0611C58.072 63.2874 58.1998 63.4919 58.372 63.6553C58.5441 63.8188 58.755 63.9358 58.9847 63.9954C59.2145 64.055 59.4556 64.0553 59.6855 63.9962C59.9154 63.9371 60.1265 63.8205 60.299 63.6574C60.4715 63.4944 60.5998 63.2902 60.6717 63.064C61.1917 63.1639 61.7302 63.084 62.1988 62.8374C62.2466 62.9501 62.3214 63.0492 62.4165 63.1262C62.5116 63.2032 62.6242 63.2557 62.7443 63.2791C62.8645 63.3024 62.9885 63.2959 63.1055 63.2601C63.2225 63.2243 63.329 63.1603 63.4155 63.0738C63.5021 62.9873 63.566 62.8808 63.6018 62.7638C63.6376 62.6467 63.6441 62.5227 63.6208 62.4026C63.5974 62.2824 63.545 62.1699 63.468 62.0748C63.391 61.9796 63.2918 61.9049 63.1792 61.857C63.341 61.5498 63.432 61.2102 63.4453 60.8632L63.4476 60.8633C63.6459 60.8633 63.836 60.7845 63.9762 60.6443C64.1164 60.5041 64.1952 60.314 64.1952 60.1157C64.1952 59.9175 64.1164 59.7273 63.9762 59.5871C63.836 59.447 63.6459 59.3682 63.4476 59.3682V59.3682Z" fill="#FF3C88"/>
<path d="M67.9685 52.6489C68.1749 52.6489 68.3423 52.4816 68.3423 52.2751C68.3423 52.0687 68.1749 51.9014 67.9685 51.9014C67.7621 51.9014 67.5947 52.0687 67.5947 52.2751C67.5947 52.4816 67.7621 52.6489 67.9685 52.6489Z" fill="#FF3C88"/>
<path d="M68.8474 50.9453C69.0538 50.9453 69.2212 50.7779 69.2212 50.5715C69.2212 50.3651 69.0538 50.1978 68.8474 50.1978C68.641 50.1978 68.4736 50.3651 68.4736 50.5715C68.4736 50.7779 68.641 50.9453 68.8474 50.9453Z" fill="#FF3C88"/>
<path d="M67.5376 50.746C67.5003 50.6137 67.427 50.4942 67.3258 50.4011C67.4471 50.2598 67.5512 50.1045 67.6359 49.9386C67.6555 49.9347 67.6751 49.9307 67.6947 49.9252C67.8359 49.8855 67.9623 49.8052 68.0582 49.6941C68.154 49.5831 68.2151 49.4463 68.2337 49.3009C68.2523 49.1554 68.2277 49.0076 68.1629 48.876C68.0981 48.7445 67.996 48.6349 67.8694 48.5609C67.8424 48.3605 67.7891 48.1646 67.7107 47.9782C67.7164 47.9767 67.7221 47.9759 67.7278 47.9743C67.8483 47.9406 67.9583 47.8771 68.0479 47.7897C68.1375 47.7024 68.2037 47.5939 68.2405 47.4743C68.2773 47.3548 68.2835 47.2278 68.2585 47.1052C68.2335 46.9826 68.1782 46.8683 68.0975 46.7726C68.0168 46.677 67.9135 46.6031 67.7968 46.5578C67.6802 46.5124 67.5541 46.4971 67.43 46.5132C67.3059 46.5293 67.1878 46.5762 67.0866 46.6498C66.9854 46.7233 66.9042 46.8211 66.8506 46.9342C66.7135 46.8428 66.5672 46.766 66.414 46.7053C66.4629 46.5956 66.4847 46.4759 66.4775 46.356C66.4703 46.2362 66.4344 46.1199 66.3727 46.0169C66.3111 45.9139 66.2255 45.8273 66.1233 45.7643C66.0211 45.7014 65.9052 45.664 65.7855 45.6553C65.6658 45.6466 65.5457 45.6669 65.4355 45.7144C65.3252 45.7619 65.2281 45.8353 65.1522 45.9283C65.0763 46.0213 65.0239 46.1312 64.9995 46.2487C64.9751 46.3663 64.9793 46.4879 65.0119 46.6035L65.0126 46.6057C64.9824 46.613 64.9521 46.6203 64.9219 46.6288C64.7409 46.6798 64.5667 46.7525 64.403 46.8452C64.2623 46.654 64.0754 46.5017 63.8597 46.4026C63.644 46.3034 63.4067 46.2607 63.17 46.2784C62.9333 46.2962 62.7049 46.3737 62.5064 46.5039C62.3079 46.634 62.1457 46.8125 62.0351 47.0225C61.9244 47.2325 61.8689 47.4672 61.8738 47.7045C61.8787 47.9418 61.9439 48.174 62.0631 48.3793C62.1823 48.5845 62.3517 48.7561 62.5554 48.878C62.7592 48.9998 62.9905 49.0679 63.2277 49.0759C63.2725 49.6035 63.4953 50.1002 63.8597 50.4843C63.7643 50.5609 63.6891 50.6598 63.6407 50.7722C63.5924 50.8846 63.5724 51.0072 63.5825 51.1292C63.5926 51.2511 63.6325 51.3688 63.6987 51.4717C63.7648 51.5747 63.8553 51.6598 63.962 51.7196C64.0688 51.7795 64.1886 51.8122 64.3109 51.8149C64.4333 51.8176 64.5545 51.7903 64.6638 51.7352C64.7731 51.6802 64.8672 51.5992 64.9379 51.4993C65.0086 51.3994 65.0536 51.2837 65.0692 51.1623C65.4088 51.2348 65.7603 51.2303 66.098 51.149L66.0985 51.1513C66.125 51.2459 66.17 51.3343 66.2307 51.4114C66.2914 51.4886 66.3668 51.5531 66.4524 51.6011C66.5381 51.6492 66.6324 51.6799 66.7299 51.6915C66.8274 51.7031 66.9263 51.6954 67.0208 51.6687C67.1153 51.6421 67.2037 51.5971 67.2809 51.5363C67.358 51.4756 67.4224 51.4002 67.4704 51.3145C67.5184 51.2288 67.549 51.1345 67.5605 51.0369C67.5721 50.9394 67.5643 50.8405 67.5376 50.746V50.746Z" fill="#FF3C88"/>
<path d="M53.4914 47.5698C53.6978 47.5698 53.8651 47.4025 53.8651 47.196C53.8651 46.9896 53.6978 46.8223 53.4914 46.8223C53.285 46.8223 53.1177 46.9896 53.1177 47.196C53.1177 47.4025 53.285 47.5698 53.4914 47.5698Z" fill="#FF3C88"/>
<path d="M51.5808 47.7231C51.7873 47.7231 51.9546 47.5558 51.9546 47.3494C51.9546 47.1429 51.7873 46.9756 51.5808 46.9756C51.3744 46.9756 51.207 47.1429 51.207 47.3494C51.207 47.5558 51.3744 47.7231 51.5808 47.7231Z" fill="#FF3C88"/>
<path d="M52.4208 48.3693C52.3281 48.4709 52.2654 48.5962 52.2397 48.7313C52.0556 48.7029 51.8688 48.6965 51.6832 48.7123C51.6695 48.6976 51.6557 48.6831 51.6407 48.6694C51.5325 48.5704 51.3975 48.5055 51.2526 48.4827C51.1077 48.46 50.9593 48.4804 50.8259 48.5414C50.6925 48.6024 50.5801 48.7013 50.5025 48.8258C50.425 48.9503 50.3859 49.0949 50.3899 49.2415C50.234 49.3702 50.0958 49.519 49.9789 49.684C49.9747 49.6799 49.971 49.6755 49.9666 49.6715C49.8743 49.5871 49.7623 49.5271 49.6408 49.4972C49.5193 49.4672 49.3922 49.4683 49.2713 49.5002C49.1503 49.5321 49.0392 49.5938 48.9483 49.6798C48.8574 49.7658 48.7895 49.8732 48.7509 49.9922C48.7122 50.1112 48.7041 50.238 48.7272 50.361C48.7503 50.484 48.8039 50.5992 48.8831 50.6961C48.9623 50.7929 49.0645 50.8684 49.1804 50.9155C49.2963 50.9626 49.4222 50.9799 49.5466 50.9657C49.5414 51.1304 49.5535 51.2952 49.5828 51.4574C49.4638 51.4737 49.3506 51.5185 49.2527 51.5879C49.1547 51.6573 49.0749 51.7492 49.02 51.856C48.9651 51.9627 48.9367 52.0811 48.9373 52.2012C48.9378 52.3212 48.9672 52.4393 49.0231 52.5456C49.0789 52.6519 49.1595 52.7431 49.2581 52.8116C49.3566 52.8801 49.4703 52.9239 49.5893 52.9392C49.7084 52.9545 49.8294 52.941 49.9421 52.8996C50.0548 52.8583 50.1559 52.7904 50.2368 52.7018L50.2383 52.7C50.2604 52.7218 50.2826 52.7436 50.3058 52.7648C50.4447 52.8916 50.5984 53.0012 50.7636 53.0912C50.6755 53.3116 50.6449 53.5508 50.6747 53.7863C50.7044 54.0218 50.7935 54.2459 50.9335 54.4375C51.0736 54.6292 51.26 54.7821 51.4754 54.882C51.6907 54.9818 51.9279 55.0253 52.1647 55.0083C52.4015 54.9914 52.6301 54.9146 52.829 54.7851C53.0279 54.6556 53.1907 54.4777 53.3021 54.268C53.4134 54.0584 53.4697 53.8239 53.4656 53.5866C53.4614 53.3492 53.3971 53.1168 53.2785 52.9112C53.7029 52.5945 54.007 52.143 54.1408 51.6307C54.2563 51.6713 54.38 51.6829 54.501 51.6646C54.622 51.6463 54.7366 51.5985 54.8348 51.5255C54.9331 51.4525 55.0119 51.3566 55.0644 51.246C55.1168 51.1354 55.1414 51.0137 55.1358 50.8914C55.1302 50.7692 55.0948 50.6502 55.0325 50.5448C54.9701 50.4395 54.8829 50.3511 54.7785 50.2873C54.674 50.2235 54.5555 50.1864 54.4334 50.1791C54.3112 50.1718 54.1891 50.1947 54.0778 50.2456C53.9601 49.9189 53.7706 49.6228 53.5232 49.379L53.5249 49.3773C53.5913 49.3049 53.6427 49.22 53.6762 49.1277C53.7098 49.0353 53.7247 48.9372 53.7203 48.8391C53.716 48.7409 53.6922 48.6446 53.6506 48.5556C53.6089 48.4666 53.5501 48.3867 53.4776 48.3205C53.405 48.2542 53.3201 48.2029 53.2277 48.1695C53.1353 48.1361 53.0372 48.1213 52.939 48.1258C52.8409 48.1303 52.7446 48.1542 52.6557 48.196C52.5667 48.2377 52.4869 48.2966 52.4208 48.3693V48.3693Z" fill="#FF3C88"/>
<path d="M63.1253 39.6831H54.8193V40.929H63.1253V39.6831Z" fill="#E9ECF6"/>
<path d="M123.312 55.6499H100.471V81.1908H123.312V55.6499Z" fill="#E9ECF6"/>
<path d="M88.842 119.606H77.2137L75.9678 109.639H90.0879L88.842 119.606Z" fill="#39EEC9"/>
<path d="M112.193 112.387L111.8 117.751C111.783 117.994 111.817 118.238 111.901 118.466C111.985 118.695 112.117 118.903 112.289 119.076C112.46 119.249 112.666 119.384 112.893 119.471C113.121 119.558 113.364 119.595 113.607 119.58L116.362 119.413C116.49 119.406 116.615 119.37 116.727 119.309C116.839 119.247 116.937 119.162 117.012 119.059C117.088 118.956 117.14 118.837 117.164 118.712C117.189 118.586 117.186 118.457 117.155 118.333L115.625 112.215L112.193 112.387Z" fill="#FF3C88"/>
<path d="M135.241 115.559C138.484 116.317 140.8 117.396 142.322 118.855C142.864 119.371 143.573 119.675 144.32 119.712C145.275 119.762 146.055 119.655 146.642 119.393H146.642C146.792 119.327 146.922 119.222 147.018 119.088C147.114 118.955 147.172 118.798 147.187 118.635C147.205 118.469 147.178 118.301 147.109 118.149C147.04 117.997 146.931 117.866 146.795 117.77L139.104 112.297L135.837 113.604L135.074 114.366C134.992 114.449 134.93 114.549 134.893 114.66C134.856 114.771 134.845 114.888 134.861 115.004C134.877 115.119 134.92 115.23 134.985 115.326C135.051 115.422 135.139 115.502 135.241 115.559H135.241Z" fill="#FF3C88"/>
<path d="M125.261 27.9692L103.276 27.7656C103.332 24.5635 104.077 21.4192 105.705 18.6054C106.775 16.7575 106.752 14.7463 106.494 13.052C106.096 10.4372 107.021 7.762 109.076 6.09754C110.647 4.82333 112.63 4.16742 114.65 4.25334L115.077 4.27112C116.468 4.32891 117.821 4.7351 119.014 5.45239C120.207 6.16968 121.2 7.1751 121.903 8.37632C122.617 9.65866 122.905 11.1349 122.725 12.5918C122.586 13.9625 122.919 15.3472 123.699 16.7451C125.045 19.8147 125.336 23.7427 125.261 27.9692Z" fill="#232735"/>
<path d="M139.969 112.583L135.654 113.708L114.644 67.9348L115.957 112.583H111.642C107.032 91.577 98.7076 67.3344 102.45 59.6806L124.774 58.3674L139.969 112.583Z" fill="#2B1B7A"/>
<path d="M114.456 20.2855C117.668 20.2855 120.272 17.6818 120.272 14.47C120.272 11.2582 117.668 8.65454 114.456 8.65454C111.244 8.65454 108.641 11.2582 108.641 14.47C108.641 17.6818 111.244 20.2855 114.456 20.2855Z" fill="#FEA94E"/>
<path d="M119.521 25.1631L109.954 24.6003C110.892 22.4483 111.266 20.376 110.892 18.4097H118.021C118.005 19.9194 118.756 22.531 119.521 25.1631Z" fill="#FEA94E"/>
<path d="M125.525 60.0557L104.514 61.5566L106.671 24.3189L110.33 23.287L114.457 24.225L118.584 22.1614L121.21 23.0995L125.525 60.0557Z" fill="#4863F5"/>
<path d="M108.078 86.8821L93.7271 83.5992C97.9944 69.4483 105.682 37.0751 103.201 25.5383L110.704 22.1616L108.078 86.8821Z" fill="#E9ECF6"/>
<path d="M101.137 45.9861L95.6968 42.6094L100.336 29.021C100.854 27.6188 101.845 26.4415 103.138 25.6927L104.701 24.7878L103.763 38.4823L101.137 45.9861Z" fill="#E9ECF6"/>
<path d="M138 83.7865C133.47 86.4071 122.148 87.8679 117.177 86.0376C116.811 73.2521 116.093 37.0866 118.396 21.7861L126.65 25.1629L125.9 35.293C121.954 43.9588 133.412 74.1419 138 83.7865Z" fill="#E9ECF6"/>
<path d="M137.343 44.298L132.278 42.6096L125.524 34.918L126.65 25.1631L137.906 40.9212L137.343 44.298Z" fill="#E9ECF6"/>
<path d="M121.469 51.5994C121.552 51.9631 121.776 52.2791 122.091 52.4781C122.407 52.6771 122.788 52.7429 123.152 52.661L127.452 51.6873L126.831 48.9429L122.531 49.9164C122.167 49.9989 121.851 50.2225 121.652 50.5381C121.452 50.8537 121.387 51.2355 121.469 51.5994V51.5994Z" fill="#FEA94E"/>
<path d="M119.521 12.9693C116.291 11.6411 113.101 11.5449 109.954 12.7817L108.641 8.0918H120.647L119.521 12.9693Z" fill="#232735"/>
<path d="M125.337 48.4247L127.776 52.927C131.878 51.783 135.433 48.1762 138.844 43.9224L137.906 40.9209L132.09 42.4217L125.337 48.4247Z" fill="#E9ECF6"/>
<path d="M123.555 39.139H122.805C122.805 28.5259 120.619 21.1298 118.49 21.1298L118.302 20.3794C120.212 20.3794 121.43 23.4576 122.115 26.04C123.043 29.5408 123.555 34.1928 123.555 39.139Z" fill="#232735"/>
<path d="M106.296 36.5124H105.545C105.545 26.7925 107.746 20.7544 110.986 20.7544L110.798 21.5048C108.557 21.5048 106.296 26.1453 106.296 36.5124Z" fill="#232735"/>
<path d="M123.18 41.2026C124.216 41.2026 125.056 40.3627 125.056 39.3266C125.056 38.2906 124.216 37.4507 123.18 37.4507C122.144 37.4507 121.304 38.2906 121.304 39.3266C121.304 40.3627 122.144 41.2026 123.18 41.2026Z" fill="#232735"/>
<path d="M103.295 41.0147H102.544C102.544 38.3252 104.059 36.1372 105.921 36.1372V36.8876C104.473 36.8876 103.295 38.739 103.295 41.0147Z" fill="#232735"/>
<path d="M109.298 41.0147H108.547C108.547 38.739 107.369 36.8876 105.921 36.8876V36.1372C107.783 36.1372 109.298 38.3252 109.298 41.0147Z" fill="#232735"/>
<path d="M108.922 41.9529C109.337 41.9529 109.673 41.617 109.673 41.2025C109.673 40.7881 109.337 40.4521 108.922 40.4521C108.508 40.4521 108.172 40.7881 108.172 41.2025C108.172 41.617 108.508 41.9529 108.922 41.9529Z" fill="#232735"/>
<path d="M102.919 41.9529C103.334 41.9529 103.67 41.617 103.67 41.2025C103.67 40.7881 103.334 40.4521 102.919 40.4521C102.505 40.4521 102.169 40.7881 102.169 41.2025C102.169 41.617 102.505 41.9529 102.919 41.9529Z" fill="#232735"/>
<path d="M93.5396 34.3022L98.2214 35.1382L108.922 50.354L103.237 49.0163L93.5396 34.3022Z" fill="#C2CAE7"/>
<path d="M92.7086 34.116C92.6373 34.117 92.5675 34.1373 92.5067 34.1745C92.4458 34.2118 92.3961 34.2647 92.3627 34.3278C92.3293 34.3908 92.3135 34.4617 92.3169 34.533C92.3202 34.6042 92.3427 34.6733 92.3819 34.7329L102.385 49.9095C102.44 49.9944 102.527 50.0546 102.626 50.0778L107.28 51.1728C107.358 51.1913 107.44 51.1854 107.515 51.1561C107.59 51.1268 107.655 51.0753 107.7 51.0085C107.745 50.9417 107.769 50.8628 107.768 50.7822C107.767 50.7016 107.742 50.6231 107.696 50.5572L96.7133 34.9416C96.6836 34.899 96.6457 34.8628 96.6019 34.8349C96.5581 34.807 96.5092 34.788 96.4581 34.779L92.7836 34.1227C92.7589 34.1183 92.7338 34.116 92.7086 34.116V34.116Z" fill="#232735"/>
<path d="M98.9487 44.9672L99.2267 47.7674L103.614 47.332C103.985 47.2951 104.326 47.1123 104.563 46.8236C104.799 46.535 104.912 46.1643 104.875 45.7929C104.838 45.4216 104.655 45.0801 104.366 44.8436C104.078 44.6071 103.707 44.4949 103.336 44.5318L98.9487 44.9672Z" fill="#FEA94E"/>
<path d="M95.1343 44.6426C95.1406 45.5974 95.5241 46.511 96.2011 47.1843C96.8782 47.8576 97.7939 48.236 98.7487 48.2371H99.47L99.9952 43.8608L95.6471 42.2954L95.1343 44.6426Z" fill="#E9ECF6"/>
<path d="M74.2276 105.952C77.2218 109.961 83.4372 110.383 83.4372 110.383C83.4372 110.383 84.7981 104.304 81.8038 100.294C78.8096 96.2844 72.5942 95.8623 72.5942 95.8623C72.5942 95.8623 71.2333 101.942 74.2276 105.952Z" fill="#4863F5"/>
<path d="M89.481 107.459C87.5052 110.105 83.4038 110.384 83.4038 110.384C83.4038 110.384 82.5058 106.372 84.4816 103.726C86.4574 101.08 90.5588 100.802 90.5588 100.802C90.5588 100.802 91.4568 104.813 89.481 107.459Z" fill="#4863F5"/>
<path d="M176.886 119.535H69V120H176.886V119.535Z" fill="#232735"/>
</svg>
