<svg width="173" height="120" viewBox="0 0 173 120" fill="none" xmlns="http://www.w3.org/2000/svg">
<g clip-path="url(#clip0)">
<path d="M144.044 18.4518L130.745 18.5814C130.12 15.504 128.02 7.42934 129.911 5.22691C129.998 4.39797 130.4 3.63422 131.035 3.09465C131.67 2.55508 132.489 2.28127 133.321 2.33021V2.33021C135.383 -0.896389 138.816 -0.411937 141.136 1.60321C143.472 2.40905 144.352 3.84066 144.044 5.78342C145.774 7.29733 146.093 9.13922 145.317 11.2359L144.044 18.4518Z" fill="#232735"/>
<path d="M142.764 26.6444L133.169 25.3158L131.25 22.5112C133.894 20.7577 134.829 18.3086 133.612 14.9828L140.255 14.8352C139.944 17.7969 140.923 20.09 143.65 21.4779L142.764 26.6444Z" fill="#FEA94E"/>
<path d="M130.901 113.188L130.534 118.204C130.517 118.431 130.55 118.659 130.628 118.873C130.707 119.086 130.83 119.28 130.99 119.442C131.15 119.604 131.343 119.73 131.556 119.812C131.768 119.893 131.996 119.928 132.223 119.914L134.799 119.758C134.919 119.751 135.035 119.717 135.14 119.66C135.245 119.603 135.336 119.523 135.407 119.427C135.477 119.33 135.526 119.219 135.549 119.102C135.572 118.985 135.569 118.864 135.54 118.748L134.11 113.028L130.901 113.188Z" fill="#FF3C88"/>
<path d="M139.241 113.028L137.811 118.748C137.782 118.864 137.779 118.985 137.802 119.102C137.825 119.219 137.874 119.33 137.944 119.427C138.015 119.523 138.106 119.603 138.211 119.66C138.316 119.717 138.432 119.751 138.552 119.758L141.128 119.914C141.355 119.928 141.583 119.893 141.795 119.812C142.008 119.73 142.201 119.604 142.36 119.442C142.52 119.28 142.644 119.086 142.723 118.873C142.801 118.659 142.833 118.431 142.817 118.204L142.45 113.188L139.241 113.028Z" fill="#FF3C88"/>
<path d="M142.617 113.885L139.14 113.536L135.679 76.5382L134.371 113.417L130.955 113.294L125.198 62.2195H147.193L142.617 113.885Z" fill="#2B1B7A"/>
<path d="M137.303 17.3446C140.971 17.3446 143.945 14.3706 143.945 10.702C143.945 7.03334 140.971 4.05933 137.303 4.05933C133.634 4.05933 130.66 7.03334 130.66 10.702C130.66 14.3706 133.634 17.3446 137.303 17.3446Z" fill="#FEA94E"/>
<path d="M150.441 63.4004L123.575 63.6956C127.562 48.5174 129.947 34.4182 125.789 24.7254L132.432 21.4778C135.635 24.8186 139.202 24.4742 143.06 21.1826L149.407 22.8064C148.32 35.517 148.807 49.1302 150.441 63.4004Z" fill="#4863F5"/>
<path d="M116.194 47.7532L132.874 54.3959L136.604 55.4927C136.77 55.5418 136.945 55.5566 137.118 55.5364C137.291 55.5161 137.458 55.4611 137.609 55.3747C137.759 55.2883 137.891 55.1724 137.996 55.0337C138.101 54.8951 138.177 54.7367 138.219 54.568C138.293 54.2722 138.26 53.9598 138.125 53.6862C137.991 53.4125 137.764 53.1954 137.485 53.0732L133.612 51.8864L121.951 45.0962L124.386 38.675L119.294 35.9441L116.194 47.7532Z" fill="#FEA94E"/>
<path d="M116.341 35.6488C119.515 36.8869 122.039 39 124.017 41.8486L130.217 32.8441L125.789 24.7253L116.341 35.6488Z" fill="#4863F5"/>
<path d="M144.789 9.62559C142.093 8.93093 139.442 8.83555 136.866 9.71667C135.224 10.5116 133.253 10.4384 131.061 9.78338V3.15601L142.896 3.4716L144.789 9.62559Z" fill="#232735"/>
<path d="M132.819 40.0137C132.297 40.0143 131.797 40.2217 131.428 40.5906C131.06 40.9594 130.852 41.4595 130.852 41.9811L131.628 58.237C131.629 58.7586 131.836 59.2587 132.205 59.6275C132.574 59.9964 133.074 60.2038 133.596 60.2044H142.474C142.996 60.2038 143.496 59.9964 143.865 59.6275C144.233 59.2587 144.441 58.7586 144.441 58.237L145.218 41.9811C145.217 41.4595 145.01 40.9594 144.641 40.5906C144.272 40.2217 143.772 40.0143 143.251 40.0137H132.819Z" fill="#232735"/>
<path d="M158.009 46.5252L143.47 52.3145L142.373 52.7513C142.338 52.7649 142.303 52.7766 142.266 52.7882L138.591 53.8696C138.122 54.0074 137.471 53.3745 137.091 52.9377C136.902 52.7272 136.795 52.4561 136.79 52.1737C136.784 51.8912 136.88 51.6161 137.06 51.3982C137.11 51.3396 137.166 51.2857 137.227 51.237C137.368 51.1268 137.535 51.0534 137.712 51.0235L141.383 50.3013C141.515 50.2754 141.641 50.2282 141.758 50.1615L143.47 49.1636L152.36 43.9878C152.607 43.8441 152.795 43.6173 152.891 43.3478C152.987 43.0783 152.983 42.7836 152.882 42.5162L151.185 38.0412C151.081 37.7674 151.08 37.4651 151.183 37.1907C151.285 36.9164 151.484 36.6887 151.742 36.5502L154.554 35.0437C154.714 34.9575 154.892 34.9088 155.075 34.9014C155.257 34.894 155.438 34.928 155.605 35.0009C155.772 35.0738 155.921 35.1837 156.039 35.3222C156.158 35.4608 156.243 35.6244 156.289 35.8008L158.73 45.0963C158.805 45.3814 158.773 45.684 158.64 45.9472C158.507 46.2104 158.283 46.416 158.009 46.5252V46.5252Z" fill="#FEA94E"/>
<path d="M158.854 34.0251C155.681 35.2632 153.156 37.3762 151.178 40.2249L144.979 31.2204L149.407 22.8064L158.854 34.0251Z" fill="#4863F5"/>
<path d="M141.724 16.6144C138.818 17.8232 135.771 17.7741 132.599 16.6144C133.522 15.0391 132.142 13.8054 131.434 12.2152L143.277 11.8633C142.371 13.2447 141.035 14.8769 141.724 16.6144Z" fill="white"/>
<path d="M143.151 12.1261L143.013 11.9889L143.207 11.7947L144.367 10.4412L144.515 10.5674L143.35 11.9263L143.151 12.1261Z" fill="white"/>
<path d="M130.622 11.3032L130.498 11.4524L131.663 12.4231L131.787 12.2739L130.622 11.3032Z" fill="white"/>
<path d="M143.486 13.2674L141.447 16.4705L141.611 16.5747L143.65 13.3717L143.486 13.2674Z" fill="white"/>
<path d="M130.836 13.2671L130.672 13.3713L132.71 16.5747L132.874 16.4704L130.836 13.2671Z" fill="white"/>
<path d="M143.859 48.8889V52.4061L142.635 52.8937C142.596 52.9089 142.557 52.9219 142.515 52.9349L138.413 54.1419C137.889 54.2958 137.163 53.5893 136.738 53.1017C136.528 52.8667 136.408 52.5642 136.402 52.2489C136.396 51.9336 136.503 51.6265 136.703 51.3832C136.76 51.3179 136.822 51.2577 136.89 51.2033C137.048 51.0803 137.234 50.9984 137.431 50.965L141.529 50.1588C141.676 50.13 141.818 50.0773 141.948 50.0028L143.859 48.8889Z" fill="#FEC38D"/>
<path d="M145.633 36.3437H144.932C144.932 26.421 142.889 19.506 140.898 19.506L140.722 18.8044C142.508 18.8044 143.646 21.6824 144.287 24.0968C145.155 27.3699 145.633 31.7192 145.633 36.3437Z" fill="#232735"/>
<path d="M129.497 33.8882H128.796C128.796 24.8006 130.853 19.1553 133.882 19.1553L133.707 19.8568C131.612 19.8568 129.497 24.1955 129.497 33.8882Z" fill="#232735"/>
<path d="M145.283 38.273C146.251 38.273 147.037 37.4877 147.037 36.5191C147.037 35.5504 146.251 34.7651 145.283 34.7651C144.314 34.7651 143.529 35.5504 143.529 36.5191C143.529 37.4877 144.314 38.273 145.283 38.273Z" fill="#232735"/>
<path d="M126.691 38.0976H125.989C125.989 35.5831 127.406 33.5374 129.146 33.5374V34.2389C127.792 34.2389 126.691 35.9699 126.691 38.0976Z" fill="#232735"/>
<path d="M132.304 38.0976H131.602C131.602 35.9699 130.5 34.2389 129.146 34.2389V33.5374C130.887 33.5374 132.304 35.5831 132.304 38.0976Z" fill="#232735"/>
<path d="M131.953 38.9744C132.34 38.9744 132.654 38.6603 132.654 38.2729C132.654 37.8854 132.34 37.5713 131.953 37.5713C131.565 37.5713 131.251 37.8854 131.251 38.2729C131.251 38.6603 131.565 38.9744 131.953 38.9744Z" fill="#232735"/>
<path d="M126.34 38.9744C126.728 38.9744 127.042 38.6603 127.042 38.2729C127.042 37.8854 126.728 37.5713 126.34 37.5713C125.953 37.5713 125.639 37.8854 125.639 38.2729C125.639 38.6603 125.953 38.9744 126.34 38.9744Z" fill="#232735"/>
<path d="M41.7925 14.696L29.4711 16.7825C29.1668 16.8345 28.8539 16.7716 28.5932 16.6062C28.3325 16.4408 28.1424 16.1845 28.0597 15.887C27.1695 12.6741 25.3083 8.4827 27.1153 6.37863C27.2074 5.49346 27.6373 4.6779 28.3156 4.10172C28.9938 3.52555 29.8681 3.23315 30.7566 3.28541C32.9577 -0.160083 36.6239 0.357236 39.1019 2.5091C41.5957 3.3696 42.5359 4.89833 42.2071 6.97289C43.2845 7.91592 43.8493 8.97812 43.9684 10.144C44.0249 10.7928 43.9423 11.4461 43.7263 12.0605C43.5102 12.6748 43.1656 13.236 42.7155 13.7066L41.7925 14.696Z" fill="#232735"/>
<path d="M39.877 24.3963L30.3252 23.8344C31.2613 21.6859 31.6352 19.6169 31.2617 17.6538H38.3787C38.3626 19.1611 39.1127 21.7684 39.877 24.3963Z" fill="#FEA94E"/>
<path d="M28.3797 112.658L27.9879 118.014C27.9702 118.257 28.0045 118.5 28.0886 118.728C28.1726 118.956 28.3045 119.164 28.4753 119.337C28.6461 119.51 28.8519 119.644 29.0789 119.731C29.3059 119.818 29.5489 119.855 29.7915 119.84L32.5426 119.674C32.67 119.666 32.7942 119.63 32.9063 119.569C33.0184 119.508 33.1157 119.423 33.1912 119.32C33.2667 119.217 33.3186 119.099 33.3432 118.973C33.3678 118.848 33.3645 118.719 33.3335 118.595L31.8065 112.487L28.3797 112.658Z" fill="#FF3C88"/>
<path d="M37.2859 112.487L35.7589 118.595C35.7279 118.719 35.7246 118.848 35.7492 118.973C35.7738 119.099 35.8257 119.217 35.9012 119.32C35.9767 119.423 36.0739 119.508 36.1861 119.569C36.2982 119.63 36.4224 119.666 36.5498 119.674L39.3008 119.84C39.5435 119.855 39.7864 119.818 40.0135 119.731C40.2405 119.644 40.4463 119.51 40.6171 119.337C40.7879 119.164 40.9198 118.956 41.0038 118.728C41.0879 118.5 41.1222 118.257 41.1044 118.014L40.7126 112.658L37.2859 112.487Z" fill="#FF3C88"/>
<path d="M40.8901 113.402L37.1778 113.029L33.4817 73.5214L32.0849 112.902L28.4375 112.771L22.29 58.2314H45.7767L40.8901 113.402Z" fill="#2B1B7A"/>
<path d="M35.0079 19.9273C38.9254 19.9273 42.1011 16.7515 42.1011 12.834C42.1011 8.9165 38.9254 5.74072 35.0079 5.74072C31.0903 5.74072 27.9146 8.9165 27.9146 12.834C27.9146 16.7515 31.0903 19.9273 35.0079 19.9273Z" fill="#FEA94E"/>
<path d="M43.0023 9.44565C40.1233 8.94427 37.2928 8.87543 34.5413 9.51139C32.7885 10.0852 30.6836 10.0323 28.3428 9.55954V4.77612L40.9803 5.00391L43.0023 9.44565Z" fill="#232735"/>
<path d="M39.7287 18.5256C36.6256 19.8164 33.3719 19.7639 29.9851 18.5256C30.9706 16.8435 29.4975 15.526 28.7412 13.828L41.3872 13.4521C40.4202 14.9273 38.9932 16.6702 39.7287 18.5256Z" fill="white"/>
<path d="M27.8709 12.8593L27.7466 13.0085L28.9904 14.045L29.1148 13.8958L27.8709 12.8593Z" fill="white"/>
<path d="M41.6168 14.9549L39.4395 18.3752L39.6033 18.4795L41.7806 15.0591L41.6168 14.9549Z" fill="white"/>
<path d="M28.0969 14.9548L27.9331 15.0591L30.1099 18.4798L30.2737 18.3755L28.0969 14.9548Z" fill="white"/>
<path d="M21.5228 45.1856L16.0913 41.8144L20.7234 28.248C21.24 26.8481 22.2295 25.6727 23.5209 24.9251L25.0813 24.0217L25.217 37.7077L21.5228 45.1856Z" fill="#4863F5"/>
<path d="M44.9998 51.7745L44.1963 44.8918C44.1534 41.2588 44.7714 37.7465 46.2451 34.5101L46.9943 24.3964L38.7535 21.0251C38.7282 21.1931 38.7067 21.3609 38.6826 21.5288L34.8204 23.4599L31.0537 22.6039L31.0746 21.3997L23.5829 24.771C26.0604 36.289 24.7091 48.25 20.4487 62.3779L30.3183 65.0766L30.4003 60.3375L39.1963 59.7092C39.2869 61.2468 39.3597 62.757 39.4019 64.2338C44.3652 66.061 44.5357 66.0308 49.0578 63.4145C47.257 59.6281 45.831 55.6881 44.9998 51.7745Z" fill="#4863F5"/>
<path d="M57.6699 43.5L52.6131 41.8145L44.5244 32.398L46.9943 24.3965L58.2318 40.1289L57.6699 43.5Z" fill="#4863F5"/>
<path d="M41.8218 50.79C41.9045 51.1531 42.1279 51.4685 42.4428 51.6672C42.7578 51.8659 43.1388 51.9315 43.5021 51.8498L47.7947 50.8777L47.1743 48.1377L42.8816 49.1096C42.5182 49.192 42.2025 49.4152 42.0037 49.7303C41.805 50.0454 41.7395 50.4266 41.8218 50.79V50.79Z" fill="#FEA94E"/>
<path d="M45.6831 47.6203L48.1179 52.1153C52.2132 50.9731 55.7623 47.3722 59.1681 43.1253L58.2316 40.1287L52.4256 41.627L45.6831 47.6203Z" fill="#4863F5"/>
<path d="M13.9375 33.5208L18.6116 34.3554L29.2954 49.5464L23.6197 48.2109L13.9375 33.5208Z" fill="#E9ECF6"/>
<path d="M13.1089 33.3347C13.0376 33.3358 12.968 33.356 12.9072 33.3932C12.8465 33.4304 12.7969 33.4832 12.7635 33.5462C12.7302 33.6091 12.7144 33.6799 12.7177 33.751C12.7211 33.8222 12.7435 33.8911 12.7827 33.9506L22.7692 49.1026C22.8249 49.1874 22.911 49.2475 23.0097 49.2706L27.6561 50.3639C27.7344 50.3823 27.8165 50.3765 27.8915 50.3472C27.9665 50.3179 28.0307 50.2665 28.0758 50.1998C28.1209 50.1331 28.1446 50.0543 28.1439 49.9739C28.1432 49.8934 28.118 49.815 28.0717 49.7492L17.1071 34.159C17.0773 34.1165 17.0395 34.0803 16.9958 34.0524C16.9521 34.0246 16.9033 34.0056 16.8522 33.9966L13.1838 33.3415C13.159 33.337 13.134 33.3348 13.1089 33.3347Z" fill="#232735"/>
<path d="M19.3379 44.1682L19.6154 46.9638L23.9952 46.5291C24.3659 46.4923 24.7069 46.3097 24.943 46.0216C25.1791 45.7334 25.2911 45.3633 25.2543 44.9925C25.2175 44.6218 25.0349 44.2809 24.7468 44.0447C24.4586 43.8086 24.0885 43.6966 23.7177 43.7334L19.3379 44.1682Z" fill="#FEA94E"/>
<path d="M15.5298 43.8443C15.5361 44.7976 15.919 45.7097 16.5949 46.3819C17.2709 47.0541 18.1851 47.4319 19.1383 47.433H19.8585L20.3828 43.0638L16.0417 41.501L15.5298 43.8443Z" fill="#4863F5"/>
<path d="M41.0416 13.9354L40.9043 13.7981L41.1116 13.5908L42.3505 12.145L42.4978 12.2712L41.2539 13.7224L41.0416 13.9354Z" fill="white"/>
<path d="M172.398 119.612H0V120H172.398V119.612Z" fill="#232735"/>
<path d="M65.814 119.418H106.584V69.9665C106.584 67.348 104.004 65.2178 100.834 65.2178H71.5633C68.3931 65.2178 65.814 67.348 65.814 69.9665V119.418Z" fill="#E9ECF6"/>
<path d="M68.9204 117.373H103.478V75.457C103.478 73.2375 101.291 71.4319 98.6043 71.4319H73.7937C71.1065 71.4319 68.9204 73.2375 68.9204 75.457V117.373Z" fill="white"/>
<path d="M65.5063 61.3694C64.4986 61.3694 63.6787 62.0466 63.6787 62.8789V67.2361C63.6787 68.0684 64.4986 68.7456 65.5063 68.7456H106.892C107.9 68.7456 108.72 68.0684 108.72 67.2361V62.8789C108.72 62.0466 107.9 61.3694 106.892 61.3694H65.5063Z" fill="#232735"/>
<path d="M74.0032 111.998C73.5301 111.999 73.0768 112.188 72.7423 112.523C72.4077 112.857 72.2192 113.31 72.2178 113.784V113.784C72.2192 114.257 72.4077 114.71 72.7422 115.044C73.0768 115.379 73.5301 115.568 74.0032 115.569H77.3452V111.998H74.0032Z" fill="#FF3C88"/>
<path d="M80.4126 111.998H77.1621V115.569H80.4126C80.8857 115.568 81.339 115.379 81.6735 115.044C82.0081 114.71 82.1966 114.257 82.198 113.784V113.784C82.1966 113.31 82.0081 112.857 81.6735 112.523C81.339 112.188 80.8857 111.999 80.4126 111.998V111.998Z" fill="#FEC38D"/>
<path opacity="0.2" d="M81.5776 112.435C81.8592 112.758 82.0145 113.172 82.0149 113.6V113.6C82.0135 114.073 81.8249 114.527 81.4904 114.861C81.1559 115.196 80.7025 115.384 80.2294 115.386H77.1621V115.569H80.4126C80.8857 115.568 81.339 115.379 81.6735 115.044C82.0081 114.71 82.1966 114.257 82.198 113.783C82.1976 113.527 82.1419 113.274 82.0349 113.042C81.9278 112.809 81.7719 112.602 81.5776 112.435V112.435Z" fill="black" fill-opacity="0.6"/>
<path d="M89.0835 85.1042C88.758 84.7609 88.3098 84.5604 87.8369 84.5464C87.364 84.5325 86.9048 84.7062 86.5596 85.0297V85.0297C86.2163 85.3553 86.0157 85.8034 86.0018 86.2763C85.9878 86.7492 86.1616 87.2084 86.4851 87.5537L88.7774 89.9855L91.3759 87.5361L89.0835 85.1042Z" fill="#FF3C88"/>
<path d="M93.4804 89.7681L91.2508 87.4028L88.6523 89.8522L90.8819 92.2175C91.2075 92.5608 91.6556 92.7613 92.1285 92.7753C92.6014 92.7892 93.0606 92.6155 93.4058 92.292V92.292C93.7492 91.9665 93.9497 91.5183 93.9637 91.0454C93.9776 90.5725 93.8039 90.1133 93.4804 89.7681V89.7681Z" fill="#FEC38D"/>
<path opacity="0.2" d="M93.9613 90.916C93.9195 91.3423 93.725 91.7391 93.4135 92.0333V92.0333C93.0683 92.3568 92.6091 92.5305 92.1362 92.5166C91.6633 92.5026 91.2151 92.3021 90.8896 91.9588L88.7856 89.7268L88.6523 89.8524L90.8819 92.2176C91.2075 92.5609 91.6556 92.7615 92.1285 92.7754C92.6014 92.7894 93.0606 92.6157 93.4058 92.2922C93.5919 92.1162 93.7379 91.9021 93.8337 91.6646C93.9296 91.4272 93.9731 91.1718 93.9613 90.916V90.916Z" fill="black" fill-opacity="0.6"/>
<path d="M79.5708 90.7344C79.2453 90.3911 78.7971 90.1905 78.3242 90.1766C77.8513 90.1626 77.3921 90.3364 77.0469 90.6599V90.6599C76.7036 90.9854 76.503 91.4336 76.4891 91.9065C76.4751 92.3794 76.6489 92.8386 76.9724 93.1838L79.2647 95.6156L81.8632 93.1662L79.5708 90.7344Z" fill="#FF3C88"/>
<path d="M83.9677 95.3982L81.7381 93.033L79.1396 95.4824L81.3692 97.8476C81.6948 98.1909 82.1429 98.3914 82.6158 98.4054C83.0887 98.4194 83.5479 98.2456 83.8931 97.9221V97.9221C84.2365 97.5966 84.437 97.1484 84.451 96.6755C84.4649 96.2026 84.2912 95.7434 83.9677 95.3982V95.3982Z" fill="#FEC38D"/>
<path opacity="0.2" d="M84.4486 96.5461C84.4068 96.9724 84.2122 97.3693 83.9008 97.6634V97.6634C83.5556 97.9869 83.0964 98.1607 82.6235 98.1467C82.1506 98.1328 81.7024 97.9322 81.3769 97.5889L79.2729 95.3569L79.1396 95.4825L81.3692 97.8478C81.6948 98.1911 82.1429 98.3916 82.6158 98.4056C83.0887 98.4196 83.5479 98.2458 83.8931 97.9223V97.9223C84.0792 97.7463 84.2251 97.5323 84.321 97.2948C84.4169 97.0573 84.4604 96.8019 84.4486 96.5461Z" fill="black" fill-opacity="0.6"/>
<path d="M89.0835 95.9763C88.758 95.633 88.3098 95.4325 87.8369 95.4185C87.364 95.4045 86.9048 95.5783 86.5596 95.9018V95.9018C86.2163 96.2273 86.0157 96.6755 86.0018 97.1484C85.9878 97.6213 86.1616 98.0805 86.4851 98.4257L88.7774 100.858L91.3759 98.4082L89.0835 95.9763Z" fill="#FF3C88"/>
<path d="M93.4804 100.64L91.2508 98.2749L88.6523 100.724L90.8819 103.09C91.2075 103.433 91.6556 103.633 92.1285 103.647C92.6014 103.661 93.0606 103.488 93.4058 103.164V103.164C93.7492 102.839 93.9497 102.39 93.9637 101.917C93.9776 101.445 93.8039 100.985 93.4804 100.64V100.64Z" fill="#FEC38D"/>
<path opacity="0.2" d="M93.9613 101.788C93.9195 102.214 93.725 102.611 93.4135 102.905C93.0683 103.229 92.6091 103.402 92.1362 103.388C91.6633 103.374 91.2151 103.174 90.8896 102.831L88.7856 100.599L88.6523 100.724L90.8819 103.089C91.2075 103.433 91.6556 103.633 92.1285 103.647C92.6014 103.661 93.0606 103.488 93.4058 103.164V103.164C93.5919 102.988 93.7379 102.774 93.8337 102.536C93.9296 102.299 93.9731 102.044 93.9613 101.788V101.788Z" fill="black" fill-opacity="0.6"/>
<path d="M94.8876 107.133C95.2269 106.803 95.422 106.353 95.4302 105.88C95.4384 105.407 95.2591 104.95 94.9314 104.608V104.608C94.6017 104.269 94.1512 104.074 93.6781 104.066C93.2051 104.057 92.748 104.237 92.4068 104.564L90.0029 106.886L92.4837 109.455L94.8876 107.133Z" fill="#FF3C88"/>
<path d="M90.2771 111.586L92.6151 109.327L90.1343 106.759L87.7963 109.017C87.457 109.347 87.2619 109.797 87.2537 110.27C87.2455 110.743 87.4248 111.201 87.7525 111.542V111.542C88.0822 111.881 88.5327 112.076 89.0058 112.084C89.4788 112.093 89.9358 111.913 90.2771 111.586V111.586Z" fill="#FEC38D"/>
<path opacity="0.2" d="M89.1353 112.081C88.7085 112.044 88.3093 111.854 88.0114 111.546V111.546C87.6837 111.205 87.5044 110.748 87.5126 110.275C87.5208 109.802 87.7159 109.351 88.0553 109.022L90.2615 106.891L90.1343 106.759L87.7963 109.017C87.457 109.347 87.2619 109.797 87.2537 110.27C87.2455 110.744 87.4248 111.201 87.7525 111.542V111.542C87.9307 111.726 88.1465 111.869 88.3851 111.962C88.6238 112.055 88.8796 112.095 89.1353 112.081Z" fill="black" fill-opacity="0.6"/>
<path d="M82.0736 101.503C82.4129 101.173 82.608 100.723 82.6162 100.25C82.6244 99.7765 82.4451 99.3194 82.1174 98.9782C81.7878 98.6389 81.3372 98.4438 80.8642 98.4356C80.3911 98.4274 79.9341 98.6067 79.5928 98.9344L77.189 101.256L79.6698 103.825L82.0736 101.503Z" fill="#FF3C88"/>
<path d="M77.4641 105.956L79.8021 103.697L77.3213 101.129L74.9833 103.387C74.644 103.717 74.4489 104.167 74.4407 104.64C74.4325 105.113 74.6118 105.57 74.9395 105.912V105.912C75.2692 106.251 75.7197 106.446 76.1928 106.454C76.6658 106.463 77.1229 106.283 77.4641 105.956V105.956Z" fill="#FEC38D"/>
<path opacity="0.2" d="M76.3223 106.45C75.8955 106.414 75.4963 106.224 75.1984 105.916C74.8707 105.575 74.6914 105.118 74.6996 104.645C74.7078 104.172 74.9029 103.721 75.2423 103.392L77.4485 101.261L77.3213 101.129L74.9833 103.387C74.644 103.717 74.4489 104.167 74.4407 104.64C74.4325 105.113 74.6118 105.57 74.9395 105.912V105.912C75.1177 106.096 75.3335 106.239 75.5721 106.332C75.8108 106.425 76.0666 106.465 76.3223 106.45V106.45Z" fill="black" fill-opacity="0.6"/>
<path d="M100.324 94.7079C100.663 94.3782 100.858 93.9277 100.866 93.4546C100.874 92.9816 100.695 92.5245 100.367 92.1833V92.1833C100.038 91.8439 99.5872 91.6489 99.1142 91.6407C98.6411 91.6324 98.1841 91.8117 97.8428 92.1394L95.439 94.4612L97.9198 97.0297L100.324 94.7079Z" fill="#FF3C88"/>
<path d="M95.7136 99.1606L98.0516 96.9024L95.5708 94.334L93.2328 96.5921C92.8935 96.9218 92.6984 97.3724 92.6902 97.8454C92.682 98.3184 92.8613 98.7755 93.189 99.1168V99.1168C93.5187 99.4561 93.9692 99.6512 94.4423 99.6594C94.9153 99.6676 95.3724 99.4883 95.7136 99.1606Z" fill="#FEC38D"/>
<path opacity="0.2" d="M94.5718 99.6555C94.145 99.6188 93.7458 99.4291 93.4479 99.1213V99.1213C93.1202 98.78 92.9409 98.3229 92.9491 97.8499C92.9574 97.3769 93.1524 96.9263 93.4918 96.5966L95.698 94.4657L95.5707 94.334L93.2328 96.5921C92.8935 96.9218 92.6984 97.3724 92.6902 97.8454C92.682 98.3184 92.8613 98.7755 93.189 99.1168V99.1168C93.3672 99.3007 93.583 99.444 93.8216 99.537C94.0603 99.6299 94.3161 99.6704 94.5718 99.6555Z" fill="black" fill-opacity="0.6"/>
<path d="M96.2671 108.79C95.9416 108.446 95.4934 108.246 95.0205 108.232C94.5476 108.218 94.0884 108.392 93.7432 108.715V108.715C93.3999 109.041 93.1993 109.489 93.1854 109.962C93.1714 110.435 93.3451 110.894 93.6687 111.239L95.961 113.671L98.5595 111.221L96.2671 108.79Z" fill="#FF3C88"/>
<path d="M100.663 113.453L98.4339 111.088L95.8354 113.538L98.065 115.903C98.3906 116.246 98.8387 116.447 99.3116 116.461C99.7845 116.475 100.244 116.301 100.589 115.977V115.977C100.932 115.652 101.133 115.204 101.147 114.731C101.161 114.258 100.987 113.799 100.663 113.453Z" fill="#FEC38D"/>
<path opacity="0.2" d="M101.144 114.601C101.103 115.028 100.908 115.424 100.597 115.719V115.719C100.251 116.042 99.7921 116.216 99.3192 116.202C98.8463 116.188 98.3982 115.987 98.0727 115.644L95.9687 113.412L95.8354 113.538L98.065 115.903C98.3905 116.246 98.8387 116.447 99.3116 116.461C99.7845 116.475 100.244 116.301 100.589 115.977V115.977C100.775 115.801 100.921 115.587 101.017 115.35C101.113 115.112 101.156 114.857 101.144 114.601V114.601Z" fill="black" fill-opacity="0.6"/>
<path d="M83.6479 108.595C83.3224 108.252 82.8742 108.052 82.4013 108.038C81.9284 108.024 81.4692 108.197 81.124 108.521V108.521C80.7807 108.846 80.5802 109.295 80.5662 109.768C80.5522 110.24 80.726 110.7 81.0495 111.045L83.3419 113.477L85.9403 111.027L83.6479 108.595Z" fill="#FF3C88"/>
<path d="M88.0438 113.259L85.8142 110.894L83.2158 113.343L85.4454 115.709C85.7709 116.052 86.2191 116.253 86.6919 116.266C87.1648 116.28 87.624 116.107 87.9693 115.783V115.783C88.3126 115.458 88.5131 115.01 88.5271 114.537C88.541 114.064 88.3673 113.604 88.0438 113.259V113.259Z" fill="#FEC38D"/>
<path opacity="0.2" d="M88.5248 114.407C88.483 114.833 88.2884 115.23 87.977 115.524V115.524C87.6317 115.848 87.1725 116.022 86.6996 116.008C86.2267 115.994 85.7786 115.793 85.4531 115.45L83.3491 113.218L83.2158 113.343L85.4454 115.709C85.7709 116.052 86.2191 116.252 86.692 116.266C87.1649 116.28 87.6241 116.107 87.9693 115.783V115.783C88.1554 115.607 88.3013 115.393 88.3972 115.156C88.493 114.918 88.5366 114.663 88.5248 114.407Z" fill="black" fill-opacity="0.6"/>
<path d="M87.2001 102.19C87.2003 102.784 86.9953 103.359 86.6199 103.819C86.2445 104.279 85.7218 104.595 85.1402 104.714C84.8003 104.782 84.4501 104.782 84.1102 104.714C83.5287 104.595 83.006 104.279 82.6307 103.819C82.2553 103.359 82.0503 102.784 82.0503 102.19C82.0503 101.597 82.2553 101.021 82.6307 100.561C83.006 100.102 83.5287 99.7856 84.1102 99.6667C84.4501 99.5981 84.8003 99.5981 85.1402 99.6667C85.7218 99.7855 86.2445 100.101 86.6199 100.561C86.9953 101.021 87.2003 101.597 87.2001 102.19V102.19Z" fill="#C2CAE7"/>
<path opacity="0.2" d="M85.1398 99.6667V104.714C84.7999 104.782 84.4498 104.782 84.1099 104.714V99.6667C84.4498 99.5981 84.7999 99.5981 85.1398 99.6667Z" fill="black" fill-opacity="0.6"/>
<path d="M88.3652 91.9006C88.3653 92.4942 88.1603 93.0696 87.7849 93.5295C87.4096 93.9893 86.8868 94.3053 86.3052 94.424C85.9653 94.4927 85.6152 94.4927 85.2753 94.424C84.6937 94.3052 84.1711 93.9891 83.7957 93.5293C83.4203 93.0695 83.2153 92.4942 83.2153 91.9006C83.2153 91.307 83.4203 90.7317 83.7957 90.2719C84.1711 89.8121 84.6937 89.496 85.2753 89.3772C85.6152 89.3085 85.9653 89.3085 86.3052 89.3772C86.8868 89.4959 87.4096 89.8119 87.7849 90.2718C88.1603 90.7316 88.3653 91.307 88.3652 91.9006V91.9006Z" fill="#C2CAE7"/>
<path opacity="0.2" d="M86.3049 89.3772V94.424C85.965 94.4927 85.6148 94.4927 85.2749 94.424V89.3772C85.6148 89.3085 85.965 89.3085 86.3049 89.3772Z" fill="black" fill-opacity="0.6"/>
<path d="M88.3652 106.655C88.3653 107.249 88.1603 107.824 87.7849 108.284C87.4096 108.744 86.8868 109.06 86.3052 109.179C85.9653 109.247 85.6152 109.247 85.2753 109.179C84.6937 109.06 84.1711 108.744 83.7957 108.284C83.4203 107.824 83.2153 107.249 83.2153 106.655C83.2153 106.062 83.4203 105.486 83.7957 105.027C84.1711 104.567 84.6937 104.251 85.2753 104.132C85.6152 104.063 85.9653 104.063 86.3052 104.132C86.8868 104.251 87.4096 104.567 87.7849 105.026C88.1603 105.486 88.3653 106.062 88.3652 106.655V106.655Z" fill="#C2CAE7"/>
<path opacity="0.2" d="M86.3049 104.132V109.179C85.965 109.247 85.6148 109.247 85.2749 109.179V104.132C85.6148 104.063 85.965 104.063 86.3049 104.132Z" fill="black" fill-opacity="0.6"/>
<path d="M94.7719 113.839C94.772 114.432 94.567 115.008 94.1916 115.467C93.8163 115.927 93.2935 116.243 92.7119 116.362C92.3721 116.431 92.0219 116.431 91.682 116.362C91.1004 116.243 90.5778 115.927 90.2024 115.467C89.8271 115.008 89.6221 114.432 89.6221 113.839C89.6221 113.245 89.8271 112.67 90.2024 112.21C90.5778 111.75 91.1004 111.434 91.682 111.315C92.0219 111.247 92.3721 111.247 92.7119 111.315C93.2935 111.434 93.8163 111.75 94.1916 112.21C94.567 112.67 94.772 113.245 94.7719 113.839V113.839Z" fill="#C2CAE7"/>
<path opacity="0.2" d="M92.7116 111.315V116.362C92.3717 116.431 92.0215 116.431 91.6816 116.362V111.315C92.0215 111.247 92.3717 111.247 92.7116 111.315Z" fill="black" fill-opacity="0.6"/>
<path d="M100.431 100.622C100.859 101.034 101.131 101.581 101.201 102.17C101.272 102.76 101.137 103.355 100.819 103.857C100.632 104.149 100.389 104.401 100.104 104.598C99.6148 104.934 99.0245 105.091 98.433 105.043C97.8414 104.994 97.2849 104.742 96.8575 104.33C96.4302 103.918 96.1582 103.371 96.0876 102.782C96.017 102.193 96.1522 101.597 96.4702 101.096C96.6566 100.803 96.8997 100.551 97.185 100.354C97.6741 100.018 98.2644 99.8608 98.8559 99.9096C99.4475 99.9585 100.004 100.21 100.431 100.622V100.622Z" fill="#C2CAE7"/>
<path opacity="0.2" d="M97.1845 100.354L100.818 103.857C100.632 104.149 100.389 104.401 100.104 104.598L96.4697 101.096C96.6562 100.803 96.8992 100.551 97.1845 100.354V100.354Z" fill="black" fill-opacity="0.6"/>
<path d="M101.208 106.252C101.636 106.664 101.908 107.211 101.978 107.801C102.049 108.39 101.914 108.986 101.596 109.487C101.409 109.779 101.166 110.031 100.881 110.228C100.392 110.565 99.8014 110.722 99.2098 110.673C98.6183 110.624 98.0618 110.372 97.6344 109.96C97.207 109.548 96.935 109.001 96.8645 108.412C96.7939 107.823 96.929 107.227 97.2471 106.726C97.4335 106.434 97.6765 106.181 97.9618 105.984C98.4509 105.648 99.0412 105.491 99.6328 105.54C100.224 105.589 100.781 105.84 101.208 106.252V106.252Z" fill="#C2CAE7"/>
<path opacity="0.2" d="M97.9614 105.984L101.595 109.487C101.409 109.779 101.166 110.031 100.88 110.228L97.2466 106.726C97.433 106.434 97.6761 106.181 97.9614 105.984V105.984Z" fill="black" fill-opacity="0.6"/>
<path d="M78.1047 107.611C78.5322 108.023 78.8042 108.57 78.8748 109.159C78.9454 109.749 78.8102 110.344 78.492 110.846C78.3056 111.138 78.0626 111.39 77.7773 111.587C77.2881 111.923 76.6979 112.08 76.1063 112.032C75.5148 111.983 74.9582 111.731 74.5309 111.319C74.1035 110.907 73.8315 110.36 73.761 109.771C73.6904 109.182 73.8255 108.586 74.1435 108.085C74.33 107.792 74.573 107.54 74.8583 107.343C75.3474 107.007 75.9377 106.85 76.5293 106.899C77.1209 106.947 77.6774 107.199 78.1047 107.611V107.611Z" fill="#C2CAE7"/>
<path opacity="0.2" d="M74.8583 107.343L78.4921 110.846C78.3057 111.138 78.0626 111.39 77.7773 111.587L74.1436 108.085C74.33 107.792 74.573 107.54 74.8583 107.343V107.343Z" fill="black" fill-opacity="0.6"/>
<path opacity="0.2" d="M69.7935 61.3694H68.8228V68.5526H69.7935V61.3694Z" fill="black" fill-opacity="0.6"/>
<path opacity="0.2" d="M75.4243 61.3694H74.4536V68.5526H75.4243V61.3694Z" fill="black" fill-opacity="0.6"/>
<path opacity="0.2" d="M81.0542 61.3694H80.0835V68.5526H81.0542V61.3694Z" fill="black" fill-opacity="0.6"/>
<path opacity="0.2" d="M86.6841 61.3694H85.7134V68.5526H86.6841V61.3694Z" fill="black" fill-opacity="0.6"/>
<path opacity="0.2" d="M92.3145 61.3694H91.3438V68.5526H92.3145V61.3694Z" fill="black" fill-opacity="0.6"/>
<path opacity="0.2" d="M97.9443 61.3694H96.9736V68.5526H97.9443V61.3694Z" fill="black" fill-opacity="0.6"/>
<path opacity="0.2" d="M103.574 61.3694H102.604V68.5526H103.574V61.3694Z" fill="black" fill-opacity="0.6"/>
</g>
<defs>
<clipPath id="clip0">
<rect width="172.398" height="120" fill="white"/>
</clipPath>
</defs>
</svg>
