<svg width="167" height="120" viewBox="0 0 167 120" fill="none" xmlns="http://www.w3.org/2000/svg">
<g clip-path="url(#clip0)">
<path opacity="0.1" d="M96.7546 21.1629C86.0789 20.7918 75.9029 17.3452 66.2008 13.575C56.4986 9.80481 46.8823 5.6268 36.4564 3.62903C29.7532 2.34266 22.0871 2.16174 16.6872 5.75559C11.4896 9.21299 9.81071 15.1818 8.90764 20.7198C8.22843 24.887 7.83439 29.272 9.69112 33.174C10.9836 35.8817 13.2773 38.1585 14.8642 40.7527C20.3837 49.7787 16.4817 60.9099 10.4991 69.7304C7.69334 73.8701 4.43833 77.8089 2.27343 82.2108C0.108532 86.6126 -0.894189 91.6554 1.00086 96.1446C2.87905 100.591 7.35297 103.936 12.201 106.287C22.0473 111.057 33.6491 112.421 44.9627 113.203C70.0062 114.916 95.1846 114.174 120.294 113.432C129.587 113.156 138.921 112.878 148.062 111.438C153.139 110.64 158.381 109.373 162.066 106.316C166.744 102.434 167.905 95.8625 164.769 90.9946C159.511 82.8318 144.971 80.8033 141.294 72.0425C139.272 67.2206 141.35 61.8482 144.29 57.3758C150.596 47.7825 161.17 39.3652 161.726 28.3981C162.109 20.8654 157.027 13.3235 149.168 9.75881C140.931 6.01931 129.509 6.49154 123.433 12.6719C117.175 19.0394 106.179 21.4894 96.7546 21.1629Z" fill="#C2CAE7"/>
<path d="M37.1418 111.164C37.1418 111.164 28.7091 104.789 27.1161 96.6799C26.4701 93.274 24.7373 90.1695 22.1777 87.8317C20.9531 86.732 19.6306 85.7467 18.2266 84.8879" stroke="#4863F5" stroke-width="2" stroke-miterlimit="10"/>
<path d="M17.1949 79.7792C17.9339 80.7789 18.2681 85.0152 18.2681 85.0152C18.2681 85.0152 14.317 83.459 13.5765 82.4608C13.2209 81.981 13.0704 81.3796 13.1583 80.7888C13.2461 80.1981 13.565 79.6665 14.0449 79.3109C14.5247 78.9553 15.1261 78.8048 15.7169 78.8927C16.3076 78.9805 16.8393 79.2994 17.1949 79.7792V79.7792Z" fill="#4863F5"/>
<path d="M24.2818 83.1032C24.3585 84.3435 22.3393 88.0815 22.3393 88.0815C22.3393 88.0815 19.8662 84.6257 19.788 83.3853C19.7583 82.794 19.9627 82.2147 20.3571 81.7731C20.7514 81.3315 21.3039 81.063 21.8948 81.0259C22.4858 80.9888 23.0675 81.186 23.514 81.5749C23.9605 81.9637 24.2358 82.5128 24.2803 83.1032H24.2818Z" fill="#4863F5"/>
<path d="M31.1506 92.6582C30.5925 93.7683 26.9603 95.9761 26.9603 95.9761C26.9603 95.9761 26.5724 91.7445 27.1305 90.6344C27.4052 90.1124 27.8739 89.7191 28.4357 89.5392C28.9975 89.3592 29.6075 89.407 30.1344 89.6723C30.6613 89.9375 31.063 90.399 31.253 90.9575C31.4431 91.5159 31.4063 92.1266 31.1506 92.6582V92.6582Z" fill="#4863F5"/>
<path d="M34.7212 101.054C34.3578 102.242 31.1519 105.031 31.1519 105.031C31.1519 105.031 30.0526 100.927 30.4159 99.7371C30.5906 99.1662 30.9849 98.6881 31.5121 98.4079C32.0393 98.1277 32.6562 98.0684 33.2271 98.243C33.798 98.4177 34.2761 98.8119 34.5563 99.3391C34.8365 99.8663 34.8958 100.483 34.7212 101.054V101.054Z" fill="#4863F5"/>
<path d="M18.6836 91.0867C19.9101 91.2523 23.7876 89.5013 23.7876 89.5013C23.7876 89.5013 20.5157 86.7906 19.283 86.625C18.6914 86.5455 18.0924 86.7043 17.6178 87.0665C17.1432 87.4286 16.832 87.9645 16.7525 88.5561C16.673 89.1478 16.8318 89.7468 17.1939 90.2213C17.5561 90.6959 18.0919 91.0072 18.6836 91.0867V91.0867Z" fill="#4863F5"/>
<path d="M22.9842 100.855C24.2108 100.645 27.3799 97.8158 27.3799 97.8158C27.3799 97.8158 23.4457 96.209 22.2207 96.4191C21.9274 96.4672 21.6465 96.5729 21.3942 96.7301C21.142 96.8873 20.9234 97.0929 20.7511 97.335C20.5787 97.5771 20.456 97.851 20.3901 98.1408C20.3241 98.4306 20.3162 98.7306 20.3669 99.0235C20.4175 99.3164 20.5256 99.5963 20.685 99.8472C20.8444 100.098 21.0519 100.315 21.2955 100.485C21.5391 100.655 21.814 100.776 22.1044 100.839C22.3948 100.903 22.6948 100.908 22.9873 100.855H22.9842Z" fill="#4863F5"/>
<path d="M28.4657 109.776C29.7091 109.776 33.3122 107.524 33.3122 107.524C33.3122 107.524 29.7076 105.275 28.4641 105.275C27.8672 105.275 27.2947 105.512 26.8726 105.934C26.4505 106.356 26.2134 106.929 26.2134 107.526C26.2134 108.123 26.4505 108.695 26.8726 109.117C27.2947 109.539 27.8672 109.776 28.4641 109.776H28.4657Z" fill="#4863F5"/>
<path d="M119.062 56.025C119.062 56.025 124.26 46.8181 132.094 44.1656C135.384 43.0731 138.231 40.9432 140.208 38.0956C141.135 36.7343 141.936 35.2905 142.598 33.7827" fill="#4863F5"/>
<path d="M119.062 56.025C119.062 56.025 124.26 46.8181 132.094 44.1656C135.384 43.0731 138.231 40.9432 140.208 38.0956C141.135 36.7343 141.936 35.2905 142.598 33.7827" stroke="#4863F5" stroke-width="2" stroke-miterlimit="10"/>
<path d="M147.516 32.0963C146.624 32.961 142.47 33.8564 142.47 33.8564C142.47 33.8564 143.49 29.732 144.382 28.8658C144.813 28.4625 145.385 28.2445 145.975 28.2587C146.564 28.2729 147.125 28.5181 147.536 28.9416C147.947 29.3651 148.175 29.933 148.171 30.523C148.167 31.113 147.932 31.678 147.516 32.0963Z" fill="#C2CAE7"/>
<path d="M145.168 39.5523C143.941 39.7945 139.975 38.2889 139.975 38.2889C139.975 38.2889 143.072 35.3758 144.291 35.1382C144.583 35.0732 144.886 35.0674 145.181 35.121C145.476 35.1747 145.757 35.2867 146.008 35.4505C146.259 35.6143 146.475 35.8267 146.643 36.075C146.811 36.3234 146.927 36.6028 146.986 36.8969C147.044 37.1909 147.043 37.4937 146.983 37.7873C146.923 38.081 146.805 38.3597 146.635 38.6071C146.466 38.8544 146.249 39.0655 145.997 39.2278C145.745 39.3901 145.463 39.5004 145.168 39.5523V39.5523Z" fill="#C2CAE7"/>
<path d="M136.618 47.6293C135.444 47.223 132.774 43.9174 132.774 43.9174C132.774 43.9174 136.914 42.9699 138.092 43.3762C138.375 43.47 138.636 43.6191 138.861 43.8148C139.086 44.0106 139.269 44.249 139.401 44.5163C139.533 44.7835 139.611 45.0744 139.629 45.3719C139.648 45.6693 139.607 45.9676 139.51 46.2492C139.412 46.5309 139.26 46.7903 139.061 47.0126C138.862 47.2348 138.621 47.4153 138.352 47.5437C138.083 47.6721 137.792 47.7458 137.494 47.7605C137.196 47.7752 136.899 47.7306 136.618 47.6293V47.6293Z" fill="#C2CAE7"/>
<path d="M128.763 52.2841C127.536 52.0817 124.353 49.2682 124.353 49.2682C124.353 49.2682 128.277 47.6338 129.502 47.8362C130.091 47.9332 130.618 48.2604 130.966 48.7459C131.315 49.2314 131.456 49.8354 131.359 50.425C131.262 51.0147 130.935 51.5416 130.449 51.8899C129.964 52.2383 129.36 52.3795 128.77 52.2825L128.763 52.2841Z" fill="#C2CAE7"/>
<path d="M136.511 35.0646C136.51 36.308 138.765 39.9157 138.765 39.9157C138.765 39.9157 141.017 36.3126 141.017 35.0707C141.025 34.7703 140.973 34.4714 140.863 34.1915C140.754 33.9117 140.589 33.6566 140.38 33.4414C140.17 33.2261 139.919 33.055 139.642 32.9382C139.365 32.8214 139.068 32.7612 138.767 32.7612C138.467 32.7612 138.169 32.8214 137.892 32.9382C137.616 33.055 137.365 33.2261 137.155 33.4414C136.945 33.6566 136.781 33.9117 136.671 34.1915C136.562 34.4714 136.51 34.7703 136.517 35.0707L136.511 35.0646Z" fill="#C2CAE7"/>
<path d="M127.399 40.624C127.77 41.8108 130.996 44.5782 130.996 44.5782C130.996 44.5782 132.069 40.4661 131.695 39.2794C131.501 38.7296 131.101 38.2765 130.58 38.0156C130.058 37.7546 129.456 37.7062 128.9 37.8805C128.343 38.0547 127.876 38.4381 127.597 38.9499C127.318 39.4616 127.248 40.0618 127.402 40.624H127.399Z" fill="#C2CAE7"/>
<path d="M119.293 47.2428C119.459 48.4694 122.169 51.7458 122.169 51.7458C122.169 51.7458 123.919 47.8745 123.753 46.6433C123.72 46.345 123.628 46.0563 123.482 45.7941C123.336 45.532 123.139 45.3017 122.903 45.1168C122.666 44.9319 122.395 44.7961 122.106 44.7175C121.816 44.6389 121.513 44.619 121.216 44.659C120.919 44.699 120.632 44.798 120.374 44.9503C120.115 45.1026 119.89 45.3051 119.71 45.5458C119.531 45.7866 119.402 46.0607 119.33 46.3522C119.259 46.6436 119.246 46.9464 119.293 47.2428V47.2428Z" fill="#C2CAE7"/>
<path d="M147.516 32.0963C146.624 32.961 142.47 33.8564 142.47 33.8564C142.47 33.8564 143.49 29.732 144.382 28.8658C144.813 28.4625 145.385 28.2445 145.975 28.2587C146.564 28.2729 147.125 28.5181 147.536 28.9416C147.947 29.3651 148.175 29.933 148.171 30.523C148.167 31.113 147.932 31.678 147.516 32.0963Z" fill="#4863F5"/>
<path d="M145.168 39.5523C143.941 39.7945 139.975 38.2889 139.975 38.2889C139.975 38.2889 143.072 35.3758 144.291 35.1382C144.583 35.0732 144.886 35.0674 145.181 35.121C145.476 35.1747 145.757 35.2867 146.008 35.4505C146.259 35.6143 146.475 35.8267 146.643 36.075C146.811 36.3234 146.927 36.6028 146.986 36.8969C147.044 37.1909 147.043 37.4937 146.983 37.7873C146.923 38.081 146.805 38.3597 146.635 38.6071C146.466 38.8544 146.249 39.0655 145.997 39.2278C145.745 39.3901 145.463 39.5004 145.168 39.5523V39.5523Z" fill="#4863F5"/>
<path d="M136.618 47.6293C135.444 47.223 132.774 43.9174 132.774 43.9174C132.774 43.9174 136.914 42.9699 138.092 43.3762C138.375 43.47 138.636 43.6191 138.861 43.8148C139.086 44.0106 139.269 44.249 139.401 44.5163C139.533 44.7835 139.611 45.0744 139.629 45.3719C139.648 45.6693 139.607 45.9676 139.51 46.2492C139.412 46.5309 139.26 46.7903 139.061 47.0126C138.862 47.2348 138.621 47.4153 138.352 47.5437C138.083 47.6721 137.792 47.7458 137.494 47.7605C137.196 47.7752 136.899 47.7306 136.618 47.6293V47.6293Z" fill="#4863F5"/>
<path opacity="0.25" d="M128.763 52.2841C127.536 52.0817 124.353 49.2682 124.353 49.2682C124.353 49.2682 128.277 47.6338 129.502 47.8362C130.091 47.9332 130.618 48.2604 130.966 48.7459C131.315 49.2314 131.456 49.8354 131.359 50.425C131.262 51.0147 130.935 51.5416 130.449 51.8899C129.964 52.2383 129.36 52.3795 128.77 52.2825L128.763 52.2841Z" fill="black" fill-opacity="0.6"/>
<path d="M136.511 35.0646C136.51 36.308 138.765 39.9157 138.765 39.9157C138.765 39.9157 141.017 36.3126 141.017 35.0707C141.025 34.7703 140.973 34.4714 140.863 34.1915C140.754 33.9117 140.589 33.6566 140.38 33.4414C140.17 33.2261 139.919 33.055 139.642 32.9382C139.365 32.8214 139.068 32.7612 138.767 32.7612C138.467 32.7612 138.169 32.8214 137.892 32.9382C137.616 33.055 137.365 33.2261 137.155 33.4414C136.945 33.6566 136.781 33.9117 136.671 34.1915C136.562 34.4714 136.51 34.7703 136.517 35.0707L136.511 35.0646Z" fill="#4863F5"/>
<path opacity="0.25" d="M127.399 40.624C127.77 41.8108 130.996 44.5782 130.996 44.5782C130.996 44.5782 132.069 40.4661 131.695 39.2794C131.501 38.7296 131.101 38.2765 130.58 38.0156C130.058 37.7546 129.456 37.7062 128.9 37.8805C128.343 38.0547 127.876 38.4381 127.597 38.9499C127.318 39.4616 127.248 40.0618 127.402 40.624H127.399Z" fill="black" fill-opacity="0.6"/>
<path opacity="0.25" d="M119.293 47.2428C119.459 48.4694 122.169 51.7458 122.169 51.7458C122.169 51.7458 123.919 47.8745 123.753 46.6433C123.72 46.345 123.628 46.0563 123.482 45.7941C123.336 45.532 123.139 45.3017 122.903 45.1168C122.666 44.9319 122.395 44.7961 122.106 44.7175C121.816 44.6389 121.513 44.619 121.216 44.659C120.919 44.699 120.632 44.798 120.374 44.9503C120.115 45.1026 119.89 45.3051 119.71 45.5458C119.531 45.7866 119.402 46.0607 119.33 46.3522C119.259 46.6436 119.246 46.9464 119.293 47.2428V47.2428Z" fill="black" fill-opacity="0.6"/>
<path d="M119.361 55.8427C119.361 55.8427 120.382 45.3187 126.463 39.7225C129.027 37.3902 130.767 34.2894 131.421 30.885C131.719 29.2666 131.867 27.6243 131.864 25.9788" fill="#4863F5"/>
<path d="M119.361 55.8427C119.361 55.8427 120.382 45.3187 126.463 39.7225C129.027 37.3902 130.767 34.2894 131.421 30.885C131.719 29.2666 131.867 27.6243 131.864 25.9788" stroke="#4863F5" stroke-width="2" stroke-miterlimit="10"/>
<path d="M135.675 22.4279C135.215 23.5809 131.775 26.0831 131.775 26.0831C131.775 26.0831 131.036 21.899 131.501 20.746C131.724 20.1924 132.159 19.7502 132.708 19.5169C133.258 19.2836 133.878 19.2781 134.431 19.5018C134.985 19.7254 135.427 20.1598 135.66 20.7095C135.894 21.2591 135.899 21.8789 135.675 22.4325V22.4279Z" fill="#4863F5"/>
<path d="M136.551 30.2043C135.534 30.9187 131.292 31.1533 131.292 31.1533C131.292 31.1533 132.945 27.2375 133.961 26.523C134.202 26.3426 134.477 26.2124 134.77 26.1401C135.062 26.0678 135.366 26.0549 135.663 26.1021C135.96 26.1493 136.245 26.2558 136.501 26.4151C136.756 26.5744 136.977 26.7834 137.151 27.0296C137.324 27.2759 137.446 27.5544 137.51 27.8487C137.573 28.143 137.577 28.4471 137.522 28.7429C137.466 29.0388 137.351 29.3205 137.184 29.5712C137.017 29.822 136.802 30.0367 136.551 30.2027V30.2043Z" fill="#4863F5"/>
<path d="M131.896 40.5605C131.683 40.5599 131.324 40.4872 130.848 40.3361C130.341 40.1756 129.77 39.9495 129.227 39.7161C128.751 39.5114 128.303 39.3039 127.951 39.1354C128.27 38.9107 128.677 38.6318 129.112 38.3509C129.608 38.0304 130.134 37.7123 130.607 37.4698C131.101 37.2163 131.467 37.0822 131.668 37.0652L131.896 40.5605ZM131.896 40.5605L131.962 40.555C132.425 40.5161 132.853 40.2949 133.153 39.9402C133.452 39.5854 133.599 39.1262 133.56 38.6634C133.521 38.2006 133.3 37.7723 132.945 37.4726C132.59 37.1729 132.131 37.0263 131.668 37.0652L131.896 40.5605Z" fill="#4863F5" stroke="#4863F5"/>
<path d="M126.712 48.491C125.509 48.7976 121.455 47.5297 121.455 47.5297C121.455 47.5297 124.379 44.4464 125.582 44.1336C126.16 43.9838 126.774 44.0696 127.289 44.3722C127.803 44.6748 128.176 45.1695 128.326 45.7473C128.476 46.3251 128.39 46.9388 128.088 47.4534C127.785 47.9679 127.29 48.3411 126.712 48.491V48.491Z" fill="#C2CAE7"/>
<path d="M126.819 29.6093C127.322 30.7454 130.84 33.1357 130.84 33.1357C130.84 33.1357 131.437 28.9285 130.935 27.7924C130.684 27.2609 130.235 26.8484 129.685 26.6432C129.134 26.438 128.525 26.4562 127.988 26.6941C127.45 26.9319 127.027 27.3705 126.809 27.9161C126.591 28.4617 126.594 29.071 126.819 29.6139V29.6093Z" fill="#4863F5"/>
<path d="M120.742 38.3824C121.562 39.3161 125.631 40.5396 125.631 40.5396C125.631 40.5396 124.944 36.3463 124.124 35.4126C123.93 35.1857 123.693 34.9997 123.427 34.8651C123.161 34.7306 122.871 34.6503 122.573 34.6289C122.276 34.6074 121.977 34.6454 121.695 34.7404C121.412 34.8355 121.151 34.9857 120.927 35.1825C120.703 35.3793 120.52 35.6186 120.389 35.8866C120.258 36.1546 120.182 36.446 120.165 36.7437C120.148 37.0414 120.19 37.3396 120.289 37.6209C120.388 37.9022 120.542 38.1611 120.742 38.3824V38.3824Z" fill="#C2CAE7"/>
<path d="M116.006 47.7227C116.656 48.7806 120.46 50.6741 120.46 50.6741C120.46 50.6741 120.492 46.4256 119.846 45.3662C119.525 44.877 119.026 44.5322 118.455 44.4049C117.883 44.2777 117.285 44.3779 116.786 44.6845C116.288 44.991 115.928 45.4797 115.784 46.0469C115.64 46.6141 115.722 47.2152 116.013 47.7227H116.006Z" fill="#C2CAE7"/>
<path d="M111.542 14.6283C111.796 13.6946 112.103 12.7563 112.317 11.8103C112.06 12.7563 111.752 13.6977 111.542 14.6283Z" fill="#FAFAFC"/>
<path d="M110.4 23.6222C110.379 23.5854 110.363 23.5486 110.347 23.5148C110.347 23.4995 110.331 23.4872 110.325 23.4719C110.292 23.4877 110.257 23.5015 110.222 23.5133C110.155 23.5394 110.086 23.5639 110.015 23.5838C109.945 23.6038 109.916 23.6145 109.862 23.6268C109.818 23.6421 109.772 23.6539 109.726 23.662L109.738 23.6896C109.795 23.6773 109.85 23.6666 109.907 23.6513L109.922 23.8414C109.986 23.8414 110.046 23.8322 110.104 23.8322C110.132 23.8307 110.16 23.8307 110.187 23.8322C110.307 23.8322 110.411 23.8322 110.494 23.8322C110.462 23.7632 110.428 23.6911 110.4 23.6222ZM141.524 73.1649C140.804 72.1943 139.366 61.7777 139.366 61.7777C139.366 61.7777 136.537 54.3707 137.308 51.4147C138.079 48.4587 135.202 40.8953 135.202 40.8953C135.202 40.8953 133.3 40.0689 133.198 38.8424C133.198 38.8424 125.435 36.3892 125.072 34.5494C124.777 33.0407 119.963 31.9582 118.233 31.6163C117.706 29.4882 117.176 27.5027 116.785 26.4187C116.679 26.0814 116.579 25.7901 116.487 25.5601C115.826 23.8736 113.784 23.7203 112.303 23.8552C112.239 23.5678 112.12 23.2955 111.952 23.0533C111.927 22.9701 111.879 22.8959 111.812 22.8402C111.781 22.8131 111.747 22.7885 111.711 22.7666C111.684 22.7169 111.649 22.6723 111.607 22.6348C111.565 22.5969 111.519 22.5639 111.469 22.5366C111.433 22.5174 111.396 22.5005 111.359 22.486C111.27 22.4522 111.178 22.427 111.084 22.4109C110.975 22.3885 110.864 22.3741 110.753 22.368C111.024 22.2496 111.265 22.0732 111.46 21.8513C111.592 21.6955 111.691 21.5138 111.749 21.3177C111.798 21.1547 111.82 20.9849 111.814 20.8148C111.774 20.8849 111.728 20.9511 111.676 21.0126C111.74 20.3334 111.382 19.6435 111.176 18.9673C110.927 18.0871 110.881 17.1618 111.041 16.2612C111.247 14.9028 111.756 13.529 112.101 12.1461C112.101 12.1384 112.101 12.1307 112.101 12.1231C112.282 11.4362 112.393 10.7331 112.435 10.0241C112.495 8.5936 112.128 7.16617 111.539 5.86294C111.017 4.70843 110.245 3.57232 109.065 3.10316C108.188 2.74899 107.205 2.80572 106.261 2.74745C104.142 2.6156 102.121 1.87046 100.106 1.19278C98.0916 0.515096 96.0187 -0.101256 93.8983 0.0168011C91.7779 0.134858 89.5961 1.15751 88.6286 3.03416C88.322 3.61985 88.1457 4.27147 87.7792 4.82189C87.0924 5.85988 85.8627 6.37964 84.837 7.09565C83.8113 7.81166 82.9082 8.82818 82.5372 10.0409C82.3346 10.6943 82.306 11.3893 82.4544 12.0571V12.0571C82.4878 12.2079 82.5308 12.3565 82.5832 12.5018C82.7287 12.9069 82.9557 13.2779 83.2501 13.5919C83.4722 13.8239 83.7274 14.0218 84.0075 14.1791V14.1791C84.3593 14.3741 84.7358 14.5205 85.1268 14.6145C85.113 14.6605 85.0992 14.7096 85.0838 14.7571C85.0593 14.8353 85.0378 14.9104 85.0148 14.9948C84.9643 15.1833 84.9167 15.375 84.8769 15.5682C84.8753 15.5819 84.8753 15.5958 84.8769 15.6096C84.6885 16.4817 84.594 17.3714 84.5948 18.2636C84.5944 18.6855 84.6159 19.1072 84.6591 19.5269V19.5269C85.2724 25.7487 90.4087 30.6565 96.7547 30.9754C96.9724 30.9862 97.1916 30.9923 97.4139 30.9923C97.5151 30.9923 97.6148 30.9923 97.7206 30.9923C97.8202 31.1242 97.9184 31.2591 98.0119 31.3909C98.1054 31.5228 98.1913 31.6577 98.2725 31.7896L98.0502 31.5596L97.8279 31.3557C97.7676 31.4384 97.7004 31.5158 97.6271 31.5872C97.4821 31.5362 97.3341 31.4942 97.184 31.4615V31.4615C96.5477 31.3204 95.5787 31.2683 94.3031 31.6531C93.1301 32.0042 91.6966 32.7264 90.0193 34.0986L81.8457 39.0049L77.4239 41.6941L75.8309 45.5885C75.8309 45.5885 74.6335 50.2157 73.3011 55.5176C73.249 55.5329 73.1984 55.5483 73.1478 55.5666C73.0399 55.5544 72.9313 55.5482 72.8227 55.5483C72.0497 55.5464 71.3061 55.8443 70.748 56.3792C70.1899 56.9141 69.8608 57.6445 69.8299 58.4169C67.1805 61.6366 67.0303 64.8564 67.6527 66.3344C67.7091 66.4729 67.78 66.605 67.8643 66.7284C68.2722 67.3172 69.0342 68.8351 69.8069 70.4526C69.787 70.586 69.7747 70.6979 69.7686 70.7823C69.7672 70.8098 69.7672 70.8375 69.7686 70.8651C69.7686 70.8651 70.2285 77.812 68.6953 79.8037C68.3596 80.2376 68.4101 80.8079 68.6953 81.4396C69.7226 83.7118 73.7841 86.7461 73.7841 86.7461C73.7841 86.7461 78.6551 86.72 81.3689 86.4241C81.3612 86.697 81.3551 86.9684 81.3489 87.2336C81.2876 89.9137 81.2876 92.1599 81.2876 92.1599L81.1864 94.9702C81.1864 94.9702 80.2665 100.893 79.8065 102.526C79.5168 103.55 79.851 113.033 80.1423 120.005H128.135C128.699 115.88 127.903 103.349 127.903 103.349C127.903 103.349 127.148 100.11 127.12 97.2854C127.118 97.2823 127.118 97.2789 127.118 97.2754C127.118 97.272 127.118 97.2686 127.12 97.2655C127.12 97.0186 127.12 96.7779 127.129 96.5418L127.477 96.5295L128.103 96.508H128.159C128.159 96.508 128.175 96.4498 128.21 96.3547C128.293 96.1179 128.406 95.8928 128.546 95.6847C128.813 95.2907 129.23 94.9043 129.857 94.8782C130.203 94.8644 130.74 94.5839 131.345 94.1699C131.35 94.1708 131.354 94.1708 131.358 94.1699C132.988 93.0675 135.142 91.0329 135.665 90.6987C136.384 90.2387 139.827 87.1723 139.827 87.1723C139.827 87.1723 140.341 86.5222 140.888 85.7388L140.908 85.7112C141.589 84.7299 142.313 83.557 142.135 83.1875C141.828 82.5251 142.34 80.9413 142.34 80.9413C143.939 78.0144 142.245 74.1354 141.524 73.1649ZM111.877 26.0063C111.891 26.0521 111.901 26.0994 111.904 26.1474C111.866 26.0968 111.828 26.0431 111.789 25.994L111.753 25.945L111.726 25.9082L111.785 25.8284C111.785 25.8284 111.785 25.8284 111.785 25.8392C111.825 25.8889 111.856 25.9455 111.877 26.0063V26.0063ZM111.362 24.6479C111.194 24.6816 111.063 24.7123 110.977 24.7353C110.868 24.5421 110.764 24.3489 110.67 24.1526C110.916 24.2952 111.147 24.4611 111.362 24.6479V24.6479ZM111.073 24.8901C111.073 24.8871 111.073 24.884 111.073 24.8809L111.086 24.8901C111.148 24.9315 111.21 24.9714 111.267 25.0128C111.317 25.0496 111.363 25.0848 111.409 25.1216C111.378 25.1753 111.345 25.2305 111.311 25.275C111.257 25.1906 111.207 25.1094 111.158 25.025C111.127 24.9913 111.099 24.9453 111.073 24.8901ZM110.153 22.9981C110.45 22.9689 110.748 22.9689 111.044 22.9981V22.9981C111.086 22.9981 111.122 23.0058 111.159 23.0119C111.242 23.0248 111.324 23.0458 111.403 23.0748C111.584 23.3283 111.696 23.6249 111.726 23.9349L111.644 23.9472L111.562 23.9625C111.409 23.9886 111.256 24.0147 111.136 24.0392L110.983 24.0714C110.779 24.1158 110.661 24.1496 110.656 24.1511C110.636 24.1097 110.616 24.0714 110.595 24.0315C110.561 23.9656 110.526 23.8981 110.495 23.8322C110.465 23.7663 110.425 23.6911 110.393 23.6222C110.371 23.5854 110.356 23.5486 110.339 23.5148C110.339 23.4995 110.324 23.4872 110.317 23.4719C110.309 23.4556 110.301 23.4387 110.294 23.4213C110.201 23.2312 110.115 23.0411 110.032 22.854C110.023 22.8356 110.015 22.8157 110.008 22.7973L110.124 22.7896V22.8295L110.153 22.9981ZM73.5725 118.109C73.5602 115.827 73.3946 113.357 72.9347 111.038C72.7384 110.052 72.536 109.067 72.3306 108.098C72.2784 107.855 72.2279 107.616 72.1773 107.377L71.705 107.44H71.6621C70.3742 101.367 69.028 96.0159 69.028 96.0159C69.028 96.0159 66.3541 85.8062 66.6638 84.9921C66.7037 84.8863 66.6531 84.6011 66.5396 84.1825C65.8926 81.8613 63.1911 75.4647 62.2466 73.2783C62.2466 73.2691 62.239 73.2584 62.2359 73.2507C62.0826 72.8843 61.9722 72.6374 61.9385 72.5654L62.1608 69.3027L62.173 69.1065L62.2022 68.6894L62.1899 68.6787L62.2022 68.4855C62.2022 68.4855 59.8686 66.5721 55.916 65.1906C55.7627 65.1354 55.6002 65.0818 55.4392 65.0296C55.6369 63.7095 55.8991 62.2193 56.241 60.7673C56.2732 60.6217 56.3085 60.4806 56.3453 60.338C56.3775 60.1954 56.4143 60.0574 56.4511 59.9179C56.5093 59.691 56.5722 59.4671 56.6366 59.2464C56.8497 59.1789 57.0598 59.1038 57.2668 59.024L57.3465 58.9934C59.8963 58.0012 62.0003 56.1187 63.2689 53.6944C64.5374 51.2701 64.8845 48.4683 64.2459 45.8077V45.8077C63.8818 44.2988 63.2095 42.8816 62.2712 41.6451C62.2006 41.55 62.1255 41.455 62.0504 41.3614C61.9753 41.2679 61.8848 41.1636 61.8005 41.0686C62.2436 40.0613 62.7664 39.103 62.8093 38.1233C62.817 37.9992 62.817 37.8748 62.8093 37.7507V37.7354C62.7526 37.1052 62.4735 36.4674 61.8235 35.7974C60.8744 34.8146 59.5236 34.3163 58.1729 34.0771C56.8221 33.838 55.4453 33.8318 54.0869 33.6708C51.8346 33.401 49.6406 32.7064 47.3883 32.4933C44.614 32.2364 41.821 32.7122 39.2883 33.8732C37.6125 34.6398 35.9152 35.9799 35.814 37.8182C35.7312 39.3376 36.7892 40.7941 36.5224 42.2952C36.2571 43.7701 34.7546 44.9308 34.8864 46.4226C34.937 47.0052 35.236 47.5265 35.6101 47.991C35.7389 48.1444 35.8754 48.2977 36.0164 48.451C36.5622 49.029 37.1633 49.5841 37.4684 50.3123C37.4806 50.343 37.4929 50.3737 37.5036 50.4043C37.7627 51.1234 37.6462 52.0326 37.0053 52.445C37.0089 52.4478 37.0116 52.4515 37.013 52.4558V52.4558C37.0222 52.468 37.0314 52.4772 37.0391 52.4895C37.04 52.487 37.04 52.4843 37.0391 52.4818C37.2663 52.7512 37.5726 52.9422 37.9145 53.0276L38.0449 53.0675C37.9391 53.1825 37.8394 53.3021 37.7382 53.4278L37.6723 53.5152C37.5033 53.7424 37.3497 53.9806 37.2123 54.2282C37.1341 54.3661 37.059 54.5041 36.9961 54.6421C36.786 55.0627 36.6338 55.5099 36.5438 55.9714C36.3798 56.9864 36.6113 58.0443 36.3629 59.0378C36.0563 60.2644 35.0858 61.2058 34.5384 62.345C33.5019 64.4915 34.0892 67.0106 34.2977 69.3809C34.5813 72.6006 34.1214 75.8342 33.6629 79.0325C33.4197 80.7333 33.1764 82.4357 32.9331 84.1396C32.3198 88.4163 31.7066 92.6929 31.0933 96.9695C30.8694 98.5365 30.6042 100.189 29.5601 101.399H29.5708C29.5708 101.399 29.5708 101.408 29.5601 101.411C29.8735 101.548 30.2068 101.634 30.5474 101.666V101.666C31.9105 101.802 33.3548 101.143 34.5813 100.422C35.5527 99.861 36.4726 99.2151 37.3304 98.492C37.2047 98.952 37.0697 99.4534 36.9256 99.993C36.9261 99.9981 36.9261 100.003 36.9256 100.008V100.008C35.1946 106.601 32.4103 118.688 32.4103 118.688C32.4103 118.688 32.1573 119.213 31.8292 119.997H75.0658C74.5599 119.384 74.0892 118.796 73.7212 118.323L73.5725 118.109ZM41.559 57.1489C41.5697 57.1305 41.5774 57.1137 41.5881 57.0968C41.5881 57.1459 41.5881 57.1934 41.5881 57.2394C41.5881 57.2854 41.5881 57.3268 41.5881 57.3697C41.5881 57.4126 41.5881 57.408 41.5881 57.4295C41.5881 57.451 41.5881 57.4295 41.5881 57.4295C41.5881 57.4924 41.5743 57.5552 41.5636 57.6181C41.5636 57.6181 41.5636 57.6258 41.5636 57.6319L41.7169 57.6886L41.8948 57.7622C42.9455 58.1772 44.0096 58.5528 45.0869 58.8891C45.1973 58.9244 45.3092 58.9581 45.4211 58.9903L45.4441 59.1804C45.4717 59.3752 45.4978 59.5729 45.5223 59.7707C45.5223 59.7707 45.5223 59.7799 45.5223 59.7861C45.5913 60.3334 45.6588 60.8792 45.7186 61.4128C45.7186 61.4128 42.9036 60.3395 42.9389 61.9693C42.9373 61.9985 42.9373 62.0276 42.9389 62.0567C42.9358 62.0955 42.9358 62.1345 42.9389 62.1733C42.9649 63.4428 43.362 64.1956 43.4418 64.5819C43.437 64.5979 43.4286 64.6126 43.4172 64.6249C43.3492 64.7729 43.3258 64.9375 43.3498 65.0986C43.3471 65.3729 43.3687 65.6469 43.4142 65.9174C43.3314 65.968 43.2501 66.0186 43.1689 66.0707C43.1075 66.109 43.0493 66.152 42.9895 66.1949C42.6133 64.8902 42.1213 63.6218 41.5191 62.4048C41.0975 61.537 40.6237 60.6324 40.6283 59.6803C40.6283 59.6189 40.6283 59.5561 40.636 59.4932C40.6531 59.2173 40.7056 58.9447 40.7924 58.6821C40.8276 58.5825 40.866 58.4844 40.9089 58.3878C41.0091 58.1582 41.1212 57.9341 41.2447 57.7162C41.3244 57.5721 41.4087 57.4295 41.49 57.2854C41.5161 57.2425 41.5406 57.198 41.5651 57.1551L41.559 57.1489ZM110.4 23.6222C110.379 23.5854 110.363 23.5486 110.347 23.5148C110.347 23.4995 110.331 23.4872 110.325 23.4719C110.292 23.4877 110.257 23.5015 110.222 23.5133C110.155 23.5394 110.086 23.5639 110.015 23.5838C109.945 23.6038 109.916 23.6145 109.862 23.6268L109.726 23.662L109.738 23.6896C109.795 23.6773 109.85 23.6666 109.907 23.6513L109.922 23.8414C109.986 23.8414 110.046 23.8322 110.104 23.8322H110.187C110.307 23.8322 110.411 23.8322 110.494 23.8322C110.462 23.7632 110.428 23.6911 110.4 23.6222Z" fill="#FAFAFC"/>
<path d="M76.9002 46.1421L75.9803 46.5484C75.9803 46.5484 69.9839 69.844 69.9839 71.7268C69.9839 73.6096 82.6988 84.086 82.6988 84.086L84.6828 70.6949C84.6828 70.6949 81.8341 39.9862 76.9002 46.1421Z" fill="white"/>
<path d="M104.791 38.7319L99.4782 35.9599C99.1807 34.6914 98.6526 33.4883 97.9205 32.4105C97.1431 31.2882 96.1098 30.1858 94.8219 29.6108C91.5669 28.1512 108.59 20.4897 108.59 20.4897C108.858 21.4101 109.174 22.3159 109.536 23.2035C110.413 25.3684 111.868 28.1681 113.743 28.9654C116.931 30.3222 104.791 38.7319 104.791 38.7319Z" fill="#FEC38D"/>
<path opacity="0.1" d="M109.536 23.2035C108.809 25.7617 107.296 28.0267 105.212 29.6787C103.128 31.3308 100.577 32.2863 97.9205 32.4105C97.1431 31.2882 96.1098 30.1858 94.8219 29.6108C91.5669 28.1512 108.59 20.4897 108.59 20.4897C108.858 21.4101 109.174 22.3159 109.536 23.2035V23.2035Z" fill="black" fill-opacity="0.6"/>
<path d="M110.014 19.3354C110.015 21.8443 109.271 24.297 107.878 26.3834C106.484 28.4697 104.503 30.096 102.186 31.0565C99.8678 32.0169 97.3173 32.2685 94.8565 31.7793C92.3958 31.2901 90.1354 30.0821 88.3612 28.3081C86.587 26.5342 85.3788 24.2739 84.8893 21.8132C84.3998 19.3525 84.651 16.8019 85.6112 14.484C86.5714 12.1661 88.1974 10.1851 90.2836 8.79134C92.3698 7.39762 94.8224 6.65388 97.3313 6.65419C98.9989 6.64648 100.651 6.96921 102.194 7.60375C103.736 8.23829 105.137 9.17206 106.316 10.3511C107.495 11.5302 108.429 12.9312 109.064 14.4733C109.699 16.0153 110.022 17.6678 110.014 19.3354V19.3354Z" fill="#FEC38D"/>
<path d="M111.845 37.1038L108.386 45.1746L105.335 50.5317H95.5684L92.7197 43.2075L93.8742 35.612H101.333L106.149 35.3406L107.776 34.7979L108.825 35.3927L111.845 37.1038Z" fill="#232735"/>
<path opacity="0.1" d="M110.654 26.3451C110.654 26.3451 112.811 26.8051 110.879 28.3889C108.948 29.9727 102.283 35.0093 102.283 35.0093C102.283 35.0093 104.624 37.0945 104.139 39.5369L111.896 35.2132L113.276 28.2953C113.276 28.2953 113.431 26.2163 110.654 26.3451Z" fill="black" fill-opacity="0.6"/>
<path opacity="0.1" d="M103.808 35.0093L98.874 35.8234C98.874 35.8234 99.892 39.5874 99.383 40.6561C99.3676 40.6893 99.3548 40.7237 99.3447 40.7588L97.3315 46.2002L98.8402 50.4733L104.062 43.3515L102.282 40.6561C102.282 40.6561 104.164 38.1631 105.283 37.2984C106.402 36.4336 103.808 35.0093 103.808 35.0093Z" fill="black" fill-opacity="0.6"/>
<path d="M103.808 34.7993L98.874 35.6119C98.874 35.6119 99.892 39.376 99.383 40.4446C99.3676 40.4778 99.3548 40.5122 99.3447 40.5473L97.3315 45.9887L98.8402 50.2618L104.062 43.1354L102.282 40.44C102.282 40.44 104.164 37.947 105.283 37.0823C106.402 36.2175 103.808 34.7993 103.808 34.7993Z" fill="#FF3C88"/>
<path d="M110.861 25.9389C110.861 25.9389 113.018 26.3988 111.085 27.9826C109.152 29.5664 102.283 35.0093 102.283 35.0093C102.283 35.0093 104.826 36.6882 104.343 39.1291L112.1 34.807L113.48 27.8891C113.48 27.8891 113.633 25.8101 110.861 25.9389Z" fill="#232735"/>
<path opacity="0.1" d="M98.2587 32.8906C98.2587 32.8906 98.7294 33.7707 100.807 35.3576C100.807 35.3576 97.348 37.1974 98.6712 39.7839L93.3801 38.4041L92.5659 35.8605L98.2587 32.8906Z" fill="black" fill-opacity="0.6"/>
<path d="M98.0551 32.688C98.0551 32.688 98.5258 33.5681 100.603 35.1549C100.603 35.1549 97.1443 36.9856 98.4675 39.5798L93.1779 38.1999L92.3638 35.6578L98.0551 32.688Z" fill="#232735"/>
<path opacity="0.1" d="M111.845 37.1036L108.386 45.1745L105.341 50.5315H95.5684L92.7197 43.2074L93.8727 35.6118H95.9471C95.9134 37.3842 96.5604 39.4663 96.519 40.2406C96.4485 41.5132 98.4172 48.3789 98.4172 48.3789C98.4172 48.3789 102.537 41.7156 104.164 41.1222C105.186 40.7496 107.353 37.6495 108.823 35.3926L111.845 37.1036Z" fill="black" fill-opacity="0.6"/>
<path d="M125.471 79.5752L125.119 80.0168C125.119 80.0168 127.663 92.7839 126.959 95.6832C126.84 96.2058 126.771 96.7388 126.755 97.2747V97.2977C126.631 100.248 127.522 104.076 127.522 104.076C127.522 104.076 128.233 115.36 127.829 120.001H80.204C79.9249 113.139 79.6244 104.248 79.8973 103.262C80.3573 101.635 81.2772 95.7338 81.2772 95.7338L81.3784 92.9372C81.3784 92.9372 81.3784 90.2342 81.4612 87.2229C81.4965 85.8691 81.5486 84.4478 81.6237 83.1875C81.7203 81.6022 81.8553 80.2667 82.0408 79.6105C82.1551 79.1131 82.2208 78.6058 82.237 78.0957C82.237 78.0482 82.237 77.9991 82.2462 77.95C82.2462 77.7967 82.2616 77.6311 82.2677 77.4609C82.2677 77.4134 82.2677 77.3659 82.2677 77.3076C82.2968 76.3202 82.2861 75.1489 82.2539 73.9346C82.2539 73.8686 82.2539 73.8012 82.2539 73.7337C82.2278 72.823 82.1895 71.8938 82.1466 71.0107C82.0132 68.2509 81.8399 65.9174 81.8399 65.9174L75.9907 46.5376L77.5669 42.6555L81.9411 39.9754L90.0288 35.0921C93.9738 31.8494 96.5711 32.2388 97.5615 32.5945C97.6577 32.6273 97.7519 32.6657 97.8436 32.7095C97.8743 32.7248 97.8988 32.7371 97.9218 32.7509C97.9533 32.7658 97.9836 32.7832 98.0123 32.803V32.803C97.7411 32.9335 97.5054 33.1276 97.3254 33.3688C97.1226 33.6433 96.978 33.9563 96.9007 34.2887C96.8489 34.4947 96.8125 34.7044 96.7918 34.9158C96.7719 35.1381 96.7642 35.3681 96.7642 35.5996C96.7752 36.1073 96.8187 36.6138 96.8946 37.116C96.8946 37.1252 96.8946 37.1374 96.8946 37.1497C96.9452 37.5085 97.008 37.8596 97.0693 38.1892C97.0687 38.1948 97.0687 38.2005 97.0693 38.2061C97.1399 38.5909 97.2104 38.9466 97.2579 39.2533C97.2671 39.3085 97.2748 39.359 97.2825 39.4066C97.3163 39.6092 97.3322 39.8144 97.33 40.0199C97.3473 40.5159 97.414 41.009 97.5293 41.4917C97.5692 41.6941 97.6152 41.9103 97.6658 42.1357C97.7348 42.4423 97.8099 42.7766 97.8911 43.117C97.9356 43.304 97.9831 43.4972 98.0322 43.6888C98.0506 43.7655 98.0705 43.8422 98.0889 43.9204L98.1196 44.0415C98.4462 45.3401 98.8003 46.6326 99.0181 47.4146C99.1469 47.8745 99.2281 48.1582 99.2281 48.1582C99.2281 48.1582 101.537 44.4248 103.38 42.2998C103.408 42.2691 103.432 42.24 103.458 42.2124C103.641 42.0023 103.82 41.8107 103.992 41.642C104.367 41.2679 104.705 41.0011 104.976 40.903C105.034 40.8818 105.09 40.8556 105.143 40.8248C105.898 40.397 107.115 38.8439 108.254 37.2171C108.366 37.0638 108.475 36.8967 108.585 36.7388C108.838 36.3739 109.084 36.0074 109.315 35.6563C109.493 35.388 109.663 35.1274 109.824 34.879C110.591 33.6862 111.13 32.7969 111.13 32.7969L112.195 32.7494L112.38 32.7402H112.504L117.335 32.5163C117.335 32.5163 117.544 32.5516 117.887 32.6206C117.906 32.6206 117.924 32.6206 117.944 32.6328C119.658 32.9732 124.42 34.0511 124.712 35.5459C125.067 37.3766 132.749 39.819 132.749 39.819C132.85 41.0456 134.731 41.8536 134.731 41.8536C134.731 41.8536 137.58 49.3817 136.818 52.3316C136.065 55.2447 138.777 62.4508 138.849 62.6532L138.33 63.3094L125.471 79.5752Z" fill="white"/>
<path opacity="0.1" d="M110.652 25.81C110.652 25.81 115.355 24.4761 116.423 27.2221C117.492 29.9681 119.882 41.0578 119.882 41.0578C119.882 41.0578 113.676 42.2276 112.049 41.0578C111.095 40.3635 109.914 40.0547 108.742 40.1931L105.232 42.5833L104.196 42.2767C104.196 42.2767 109.81 33.9299 111.031 31.0934C112.251 28.257 112.664 26.989 110.652 25.81Z" fill="black" fill-opacity="0.6"/>
<path d="M110.448 25.1967C110.448 25.1967 115.153 23.8628 116.226 26.6088C117.3 29.3548 119.685 40.4445 119.685 40.4445C119.685 40.4445 113.48 41.6144 111.852 40.4445C110.899 39.7502 109.718 39.4414 108.547 39.5798L105.034 41.9701L103.998 41.6634C103.998 41.6634 109.612 33.3166 110.833 30.4802C112.053 27.6437 112.459 26.3788 110.448 25.1967Z" fill="white"/>
<path opacity="0.1" d="M78.884 69.4377C78.884 69.4377 82.3935 70.3025 83.0558 72.2865C83.7182 74.2704 80.4616 74.321 80.4616 74.321C80.4616 74.321 78.4777 70.8115 78.884 69.4377Z" fill="black" fill-opacity="0.6"/>
<path opacity="0.1" d="M91.9559 84.0859C91.9559 84.0859 83.3607 101.686 85.3447 103.365C87.3286 105.043 91.9559 84.0859 91.9559 84.0859Z" fill="black" fill-opacity="0.6"/>
<path opacity="0.1" d="M103.808 71.1165C103.808 71.1165 110.675 88.2118 109.301 90.852C107.927 93.4922 112.251 90.852 112.251 90.852L103.808 71.1165Z" fill="black" fill-opacity="0.6"/>
<path d="M113.37 88.0034C113.37 88.0034 90.1756 89.1227 96.9416 96.3456C103.708 103.569 117.592 96.6523 117.592 96.6523L113.37 88.0034Z" fill="#FEC38D"/>
<path opacity="0.1" d="M110.014 19.3353C110.016 20.9988 109.69 22.6464 109.053 24.1833C108.84 24.2078 108.627 24.2231 108.421 24.2323C108.115 23.5593 108.279 22.7819 108.285 22.0414C108.291 21.3008 108.018 20.43 107.305 20.2307C105.884 19.8305 104.902 22.4875 103.501 22.0076C102.428 21.6427 102.708 20.0145 102.091 19.0746C101.601 18.331 100.622 18.121 99.8597 17.6549C98.2391 16.6598 98.2882 15.0683 97.5353 13.5627C96.7473 11.985 95.0822 12.4511 93.6364 13.3818C92.5386 14.0901 91.5911 15.0392 90.4166 15.6034C89.4001 16.094 88.2579 16.2719 87.131 16.298C86.4372 16.3248 85.7432 16.2515 85.0703 16.0802C85.8617 13.1049 87.7083 10.5189 90.2658 8.80464C92.8232 7.09035 95.9168 6.36476 98.9698 6.76318C102.023 7.16159 104.827 8.65681 106.858 10.97C108.89 13.2832 110.011 16.2564 110.013 19.3353H110.014Z" fill="black" fill-opacity="0.6"/>
<path d="M93.6404 12.9756C92.5411 13.684 91.5951 14.6315 90.4207 15.1988C89.4042 15.6879 88.2619 15.8657 87.135 15.8918C85.7551 15.9225 84.2694 15.6802 83.3265 14.6836C82.4602 13.7637 82.2533 12.3486 82.6197 11.1419C82.9861 9.93528 83.8647 8.93409 84.8965 8.20888C85.9284 7.48368 87.1258 6.98232 87.8096 5.94433C88.1715 5.39544 88.3463 4.74842 88.6468 4.16427C89.6081 2.29528 91.7699 1.28336 93.8597 1.15764C95.9495 1.03192 98.0208 1.6544 100.011 2.32902C102.001 3.00363 104.006 3.7457 106.107 3.88523C107.042 3.94349 108.014 3.88523 108.882 4.2394C110.049 4.71316 110.814 5.8462 111.335 6.99918C111.919 8.29934 112.283 9.7191 112.221 11.1389C112.093 14.17 110.09 17.1444 110.97 20.0484C111.203 20.8226 111.64 21.6168 111.407 22.3911C111.067 23.5211 109.609 23.7787 108.43 23.8323C108.123 23.1592 108.287 22.3804 108.293 21.6414C108.299 20.9024 108.027 20.03 107.315 19.8306C105.892 19.4335 104.911 22.086 103.513 21.6076C102.447 21.2412 102.723 19.6145 102.104 18.6746C101.615 17.9295 100.633 17.7209 99.873 17.2548C98.2523 16.2598 98.3014 14.6683 97.5486 13.1627C96.7544 11.5774 95.0878 12.0434 93.6404 12.9756Z" fill="#232735"/>
<path d="M71.1499 71.319L69.98 71.7268C69.98 71.7268 70.44 78.6447 68.9068 80.6286C67.3736 82.6126 73.9419 87.545 73.9419 87.545C73.9419 87.545 82.9449 87.4944 83.1994 86.7784C83.4539 86.0624 82.7395 73.9607 82.7395 73.9607C82.7395 73.9607 77.9068 72.0779 78.3131 69.0774C78.3131 69.0774 76.8381 76.147 74.6518 75.8419C72.4654 75.5368 69.9831 73.7108 71.1499 71.319Z" fill="white"/>
<path opacity="0.1" d="M75.0522 77.9822C76.7567 77.9822 78.1385 76.7185 78.1385 75.1596C78.1385 73.6007 76.7567 72.3369 75.0522 72.3369C73.3476 72.3369 71.9658 73.6007 71.9658 75.1596C71.9658 76.7185 73.3476 77.9822 75.0522 77.9822Z" fill="black" fill-opacity="0.6"/>
<path d="M78.4265 71.5228C78.4265 71.5228 77.8133 52.8054 72.4746 56.9757C67.136 61.146 67.0838 66.1336 68.1003 67.607C69.1169 69.0804 72.3765 76.4567 72.3765 76.4567C72.8864 76.7522 73.459 76.9227 74.0475 76.9542C74.6359 76.9858 75.2235 76.8774 75.762 76.6381C76.3005 76.3987 76.7747 76.0352 77.1456 75.5773C77.5166 75.1193 77.7737 74.58 77.896 74.0036L78.4265 71.5228Z" fill="#FEC38D"/>
<path opacity="0.1" d="M111.73 24.1113C111.705 24.0291 111.657 23.9557 111.592 23.8997C111.328 23.659 110.761 23.5747 109.905 23.6483L109.941 24.0531C111.081 23.9549 111.307 24.1819 111.336 24.2202V24.2585L111.371 24.3091C111.513 24.5003 111.614 24.719 111.667 24.9514C111.72 25.1837 111.723 25.4245 111.678 25.6583C111.428 26.9079 109.893 27.903 109.878 27.9137L109.841 27.9352L109.818 27.9704C109.156 28.9532 105.41 31.7268 104.43 32.4443L104.344 32.3462C103.906 32.7265 100.051 36.1011 99.8429 37.3936C99.7079 38.2046 98.7941 38.5189 98.463 38.6063C98.1134 38.3411 96.9788 37.438 96.3885 36.4261C95.835 35.474 98.0628 33.6157 98.2591 32.8905L97.9524 32.5762C97.9202 32.6927 95.0592 35.3667 95.855 36.7327C96.4928 37.829 97.658 38.7673 98.0659 39.077C97.9355 40.2607 97.1245 47.2107 95.878 48.8574C94.3294 50.9042 93.0277 61.2197 93.1719 64.8212C93.2991 68.021 92.4635 74.065 89.6731 76.6607C89.1899 77.1298 88.6071 77.4837 87.9681 77.6961C87.3291 77.9085 86.6504 77.9738 85.9826 77.8873H85.9489H85.9152C85.8753 77.8873 81.8276 78.3012 78.4269 75.4341C75.6442 73.0929 74.068 69.2721 73.7399 64.0746H73.6724L73.6448 62.5613C74.3994 62.4435 75.0789 62.0379 75.5406 61.4296C76.0023 60.8214 76.2103 60.0578 76.1208 59.2994C76.0314 58.541 75.6515 57.8468 75.0609 57.3627C74.4704 56.8785 73.7152 56.6421 72.9539 56.7031C72.1927 56.7641 71.4848 57.1178 70.9789 57.6898C70.473 58.2618 70.2085 59.0077 70.241 59.7707C70.2734 60.5336 70.6004 61.2543 71.1531 61.7812C71.7058 62.3082 72.4412 62.6004 73.2048 62.5965H73.2385L73.2661 64.1006L73.1312 64.1098C73.4685 69.4761 75.1244 73.4456 78.0375 75.8972C80.2517 77.7319 83.0799 78.6575 85.9504 78.4868C86.1541 78.509 86.3588 78.5203 86.5637 78.5205C87.8794 78.5273 89.1454 78.0181 90.0901 77.1023C93.0293 74.3655 93.9231 68.0992 93.7836 64.7906C93.6303 60.9744 94.9964 51.03 96.3671 49.2192C97.7102 47.4422 98.5243 40.5183 98.6669 39.1767C99.1529 39.0402 100.252 38.6094 100.439 37.4902C100.574 36.6806 103.148 34.1861 104.732 32.8047L104.685 32.7495C105.537 32.127 108.188 30.1645 109.502 28.9042C109.91 28.5132 110.315 28.1222 110.738 27.7496C111.247 27.2989 111.894 26.5829 112.064 25.7365C112.122 25.4572 112.122 25.1689 112.065 24.8894C112.007 24.6099 111.893 24.3451 111.73 24.1113V24.1113Z" fill="black" fill-opacity="0.6"/>
<path d="M98.0139 38.9805C97.9495 38.936 96.4224 37.8428 95.6573 36.5273C94.8631 35.1612 97.7241 32.4888 97.7547 32.3723L98.0614 32.6866C97.8667 33.4103 95.6389 35.2701 96.1924 36.2207C96.89 37.4212 98.3588 38.4714 98.3742 38.4822L98.0139 38.9805Z" fill="#232735"/>
<path d="M104.231 32.7418L103.992 32.4122C104.041 32.3769 108.857 28.8935 109.616 27.7666L109.64 27.7328L109.675 27.7098C109.691 27.6991 111.225 26.7056 111.475 25.4545C111.521 25.2209 111.518 24.9802 111.465 24.7481C111.412 24.5159 111.311 24.2974 111.169 24.1068L111.133 24.0547V24.0179C111.103 23.978 110.877 23.7526 109.737 23.8507L109.701 23.4444C110.558 23.3708 111.124 23.4552 111.388 23.6959C111.454 23.7524 111.502 23.8262 111.527 23.909C111.693 24.1421 111.81 24.4067 111.869 24.6865C111.929 24.9663 111.93 25.2553 111.874 25.5357C111.704 26.3836 111.058 27.0996 110.548 27.5489C110.126 27.9214 109.72 28.3155 109.313 28.7034C107.773 30.1798 104.4 32.6207 104.231 32.7418Z" fill="#EEF3FB"/>
<path d="M73.4468 62.0275L73.0405 62.0349L73.0858 64.5045L73.492 64.497L73.4468 62.0275Z" fill="#EEF3FB"/>
<path d="M73.0073 62.4018C74.6458 62.4018 75.9741 61.0735 75.9741 59.435C75.9741 57.7965 74.6458 56.4683 73.0073 56.4683C71.3688 56.4683 70.0405 57.7965 70.0405 59.435C70.0405 61.0735 71.3688 62.4018 73.0073 62.4018Z" fill="#C2CAE7"/>
<path d="M73.0068 61.8989C74.3676 61.8989 75.4707 60.7958 75.4707 59.4351C75.4707 58.0743 74.3676 56.9712 73.0068 56.9712C71.6461 56.9712 70.543 58.0743 70.543 59.4351C70.543 60.7958 71.6461 61.8989 73.0068 61.8989Z" fill="#EEF3FB"/>
<path d="M86.37 78.3226C86.1651 78.3229 85.9604 78.3122 85.7567 78.2904C82.8864 78.4595 80.0588 77.5341 77.8438 75.7008C74.9307 73.2477 73.2779 69.2828 72.9375 63.912L73.5508 63.8736C73.8789 69.0712 75.455 72.8935 78.2394 75.2332C81.64 78.0926 85.6862 77.6863 85.726 77.6863H85.7598H85.7935C86.4615 77.7725 87.1403 77.7069 87.7795 77.4946C88.4187 77.2822 89.0018 76.9285 89.4855 76.4598C92.2744 73.864 93.11 67.8201 92.9828 64.6203C92.8294 61.0157 94.1311 50.7003 95.6812 48.655C97.0381 46.8626 97.8798 38.7841 97.889 38.7029L97.912 38.4729L98.139 38.433C98.1528 38.433 99.4774 38.1816 99.643 37.1911C99.8577 35.9002 103.706 32.5256 104.143 32.1438L104.543 32.6038C102.953 33.9837 100.379 36.4797 100.25 37.2908C100.063 38.4131 98.9638 38.8424 98.4793 38.9773C98.326 40.3204 97.518 47.2429 96.1795 49.0199C94.8088 50.8306 93.4427 60.775 93.596 64.5912C93.7279 67.8998 92.8432 74.1676 89.9041 76.9029C88.9576 77.821 87.6886 78.3308 86.37 78.3226Z" fill="#232735"/>
<g opacity="0.1">
<path opacity="0.1" d="M111.32 15.7111C111.572 14.7819 111.875 13.8467 112.087 12.9053C111.834 13.8513 111.529 14.7819 111.32 15.7111Z" fill="black" fill-opacity="0.6"/>
<path opacity="0.1" d="M108.755 23.0121C108.449 22.339 108.613 21.5601 108.619 20.8211C108.625 20.0821 108.352 19.2174 107.641 19.0104C106.218 18.6133 105.237 21.2673 103.838 20.7874C102.765 20.421 103.049 18.7942 102.429 17.8544C101.94 17.1092 100.96 16.9007 100.2 16.4346C98.5779 15.4396 98.6269 13.8481 97.8757 12.3425C97.086 10.7633 95.4225 11.2294 93.9752 12.1616C92.8758 12.8699 91.9299 13.819 90.7554 14.3847C89.7389 14.8738 88.5966 15.0517 87.4697 15.0777C86.0975 15.1099 84.6042 14.8661 83.6612 13.8695C82.9345 13.1029 82.6723 11.9791 82.8226 10.9258C82.7965 10.9978 82.7735 11.0699 82.7505 11.142C82.3825 12.3486 82.5972 13.7668 83.4573 14.6837C84.4002 15.6803 85.8936 15.9225 87.2658 15.8919C88.3943 15.8658 89.535 15.6879 90.553 15.1988C91.7305 14.6316 92.6765 13.684 93.7728 12.9757C95.2201 12.0435 96.8852 11.5774 97.6733 13.1566C98.4245 14.6622 98.377 16.2537 99.9976 17.2488C100.764 17.7087 101.738 17.9234 102.228 18.6685C102.842 19.6114 102.57 21.2351 103.637 21.6015C105.034 22.0799 106.015 19.4274 107.438 19.8246C108.15 20.0239 108.424 20.8978 108.417 21.6353C108.409 22.3728 108.249 23.1532 108.553 23.8262C109.732 23.7726 111.19 23.5196 111.532 22.385C111.579 22.2222 111.601 22.0531 111.596 21.8837C111.098 22.7438 109.816 22.9646 108.755 23.0121Z" fill="black" fill-opacity="0.6"/>
</g>
<path opacity="0.1" d="M136.466 60.7904L138.246 62.6732C138.246 62.6732 139.67 73.0485 140.381 74.019C141.093 74.9895 142.773 78.8502 141.196 81.7495C141.196 81.7495 140.687 83.3271 140.992 83.988C141.297 84.6488 138.704 87.9559 138.704 87.9559C138.704 87.9559 135.296 91.007 134.583 91.4654C133.87 91.9239 130.107 95.5852 128.836 95.6358C127.565 95.6864 127.15 97.264 127.15 97.264L119.977 97.5186C119.977 97.5186 116.016 97.3116 115.154 97.8712C115.154 97.8712 115.614 91.8181 111.188 87.8501L116.833 85.8155C116.833 85.8155 118.97 84.8956 119.631 83.9343C120.047 83.3449 120.636 82.9005 121.317 82.6633C121.317 82.6633 122.894 81.544 122.944 80.9338C122.995 80.3236 124.871 79.5754 124.871 79.5754L123.809 70.5064L124.369 55.4503C124.369 55.4503 126.149 42.835 129.913 43.5479C133.677 44.2609 136.466 60.7904 136.466 60.7904Z" fill="black" fill-opacity="0.6"/>
<path d="M137.078 60.7904L138.858 62.6732C138.858 62.6732 140.283 73.0485 140.994 74.019C141.706 74.9895 143.386 78.8502 141.808 81.7495C141.808 81.7495 141.301 83.3271 141.606 83.988C141.911 84.6488 139.317 87.9559 139.317 87.9559C139.317 87.9559 135.909 91.007 135.196 91.4654C134.483 91.9239 130.72 95.5852 129.449 95.6358C128.178 95.6864 127.763 97.264 127.763 97.264L120.59 97.5186C120.59 97.5186 116.625 97.3116 115.767 97.8712C115.767 97.8712 116.227 91.8181 111.8 87.8501L117.446 85.8155C117.446 85.8155 119.583 84.8956 120.244 83.9343C120.659 83.3449 121.249 82.9005 121.93 82.6633C121.93 82.6633 123.506 81.544 123.557 80.9338C123.608 80.3236 125.484 79.5754 125.484 79.5754L124.422 70.5064L124.981 55.4503C124.981 55.4503 126.761 42.835 130.525 43.5479C134.289 44.2609 137.078 60.7904 137.078 60.7904Z" fill="white"/>
<path opacity="0.1" d="M130.461 75.9999C130.461 75.9999 135.7 74.62 137.074 76.3065C138.447 77.993 130.461 75.9999 130.461 75.9999Z" fill="black" fill-opacity="0.6"/>
<path opacity="0.1" d="M129.241 78.3135C131.021 79.56 136.514 79.6106 136.514 79.6106L129.241 78.3135Z" fill="black" fill-opacity="0.6"/>
<path opacity="0.1" d="M131.936 84.5444C132.089 84.595 135.712 88.4618 137.233 87.2919C138.754 86.1221 131.936 84.5444 131.936 84.5444Z" fill="black" fill-opacity="0.6"/>
<path opacity="0.1" d="M83.1431 52.0925C83.1431 52.0925 84.2071 59.4182 83.6828 62.4019C83.1584 65.3855 85.0719 69.0821 85.0719 69.0821L83.1431 52.0925Z" fill="black" fill-opacity="0.6"/>
<path d="M59.5867 55.0714C58.3601 56.0327 57.4647 58.308 56.8162 60.8087C55.6847 65.1707 55.3151 70.2288 55.3151 70.2288C55.3151 70.2288 45.5486 67.9903 46.26 66.9737C46.7077 66.3344 46.1067 61.517 45.6053 58.0244C45.3063 55.9607 45.0396 54.3585 45.0396 54.3585C45.0396 54.3585 62.9444 52.4251 59.5867 55.0714Z" fill="#FEC38D"/>
<path opacity="0.1" d="M59.5867 54.8676C58.3601 55.8305 57.4647 58.1042 56.8162 60.6049C54.8703 61.1958 52.8008 61.2491 50.8271 60.7591C48.8534 60.2692 47.049 59.2544 45.6053 57.8221C45.3063 55.7569 45.0396 54.1547 45.0396 54.1547C45.0396 54.1547 62.9444 52.2228 59.5867 54.8676Z" fill="black" fill-opacity="0.6"/>
<path d="M64.8361 49.3879C64.8371 52.0547 63.8947 54.6358 62.1756 56.6745C60.4565 58.7132 58.0716 60.078 55.443 60.5274C52.8144 60.9767 50.1116 60.4817 47.8128 59.1299C45.5141 57.778 43.7678 55.6566 42.8828 53.141C41.9979 50.6253 42.0314 47.8777 42.9775 45.3844C43.9236 42.8912 45.7212 40.813 48.0522 39.5176C50.3833 38.2223 53.0974 37.7934 55.7142 38.3068C58.3311 38.8202 60.6819 40.2428 62.3508 42.3229C63.9589 44.3265 64.8356 46.8187 64.8361 49.3879V49.3879Z" fill="#FEC38D"/>
<path opacity="0.1" d="M73.7416 120.002H70.5218L70.2504 114.315L69.9668 108.429C69.9668 108.429 70.6981 108.32 71.8634 108.158L72.3341 108.095H72.3724C72.6269 109.289 72.8784 110.516 73.1206 111.741C73.5238 113.915 73.7337 116.122 73.7477 118.334C73.7477 118.487 73.7477 118.64 73.7477 118.784C73.7569 119.194 73.7477 119.603 73.7416 120.002Z" fill="black" fill-opacity="0.6"/>
<path d="M73.1238 120.001H32.7451C32.9199 119.604 33.0364 119.364 33.0364 119.364C33.0364 119.364 36.2669 105.23 37.909 99.2509C37.9095 99.2458 37.9095 99.2406 37.909 99.2355C38.1141 98.4233 38.3618 97.6223 38.6511 96.8361V96.8361C38.6697 96.7826 38.6939 96.7312 38.7231 96.6827C39.5357 95.3611 40.5538 93.9368 39.1294 91.9022C37.7051 89.8676 38.2095 80.9152 38.2095 80.9152C38.2095 80.9152 39.939 73.2844 41.7696 69.2153C42.0474 68.585 42.4417 68.0128 42.9318 67.5287C43.0911 67.3728 43.2612 67.2284 43.4408 67.0964V67.0964C43.5774 66.9937 43.7197 66.899 43.867 66.8127L43.8962 66.7943C44.6652 66.3583 45.5192 66.0932 46.3999 66.017C47.0255 65.9516 47.6571 65.9691 48.2781 66.0691C51.2464 66.5045 53.6229 67.2328 55.5118 68.0623C60.6312 70.3115 62.1813 73.3258 62.2119 73.3887L62.2242 73.4147C62.4297 73.8946 65.4348 80.9106 66.5172 84.184C66.7978 85.0365 66.9511 85.636 66.8898 85.8C66.5831 86.6126 69.2295 96.7855 69.2295 96.7855C69.2295 96.7855 70.456 101.692 71.6826 107.443C71.7363 107.682 71.7869 107.921 71.8359 108.163C72.0552 109.208 72.2729 110.272 72.4829 111.334C72.8899 113.524 73.0998 115.746 73.11 117.973C73.1325 118.667 73.1371 119.343 73.1238 120.001Z" fill="white"/>
<path opacity="0.1" d="M46.1587 62.5184C46.1587 62.5184 43.3728 61.4452 43.4066 63.0735C43.4403 64.7017 44.0858 65.4806 43.8819 65.7182C43.6779 65.9559 43.983 67.3802 43.983 67.3802C43.983 67.3802 47.7471 67.3802 49.4766 68.1591C51.206 68.938 57.5811 70.4988 58.3953 70.9741C59.2094 71.4494 62.2283 73.5806 62.2283 73.5806L62.4997 69.5451C62.4997 69.5451 59.3796 66.9678 54.2602 65.6462C49.1408 64.3246 46.1587 62.5184 46.1587 62.5184Z" fill="black" fill-opacity="0.6"/>
<path d="M46.1587 62.3143C46.1587 62.3143 43.3728 61.2411 43.4066 62.8693C43.4403 64.4976 44.0858 65.2765 43.8819 65.5141C43.6779 65.7518 43.983 67.1761 43.983 67.1761C43.983 67.1761 47.7471 67.1761 49.4766 67.9566C51.206 68.737 57.5811 70.2962 58.3953 70.77C59.2094 71.2438 62.2283 73.3765 62.2283 73.3765L62.5027 69.3533C62.5027 69.3533 59.3826 66.776 54.2632 65.4543C49.1438 64.1327 46.1587 62.3143 46.1587 62.3143Z" fill="white"/>
<path opacity="0.1" d="M54.5684 72.0259C54.5684 72.0259 59.8917 77.7892 59.6203 79.3853C59.3489 80.9814 54.5684 72.0259 54.5684 72.0259Z" fill="black" fill-opacity="0.6"/>
<path opacity="0.1" d="M45.9209 92.8452C45.9209 92.8452 42.0189 96.4406 40.8689 96.6445C39.719 96.8484 41.7505 97.5261 43.0722 96.9849C44.3938 96.4437 47.2118 95.0193 47.2118 95.0193L45.9209 92.8452Z" fill="black" fill-opacity="0.6"/>
<path d="M74.7085 120.001H65.6089C64.3363 118.898 63.1328 117.875 62.3662 117.26C61.1396 116.276 60.2549 114.827 59.6907 113.662C59.5635 113.396 59.4531 113.148 59.3595 112.923C59.1921 112.534 59.0447 112.138 58.918 111.734L65.6564 107.733C66.0288 108.049 66.3787 108.392 66.7036 108.757L66.7849 108.85C67.159 109.292 67.4886 109.793 67.5178 110.204C67.5515 110.683 68.8823 112.533 70.2423 114.31C71.6222 116.118 73.0358 117.846 73.1293 117.962C73.1293 117.962 73.3624 118.28 73.7426 118.767C74.0109 119.12 74.3421 119.543 74.7085 120.001Z" fill="#FEC38D"/>
<path opacity="0.1" d="M62.3511 42.3229C62.0275 43.0527 61.7378 43.8101 61.6948 44.6227C61.5737 46.9685 61.77 52.2136 59.1727 53.3911C57.8863 53.9707 56.5095 52.6981 55.099 52.6675C54.084 52.646 53.1533 53.2899 52.5339 54.0949C51.9145 54.8998 51.5296 55.855 51.0804 56.7657C50.6715 57.5924 50.2004 58.3868 49.6714 59.1422C49.5132 59.3734 49.339 59.5932 49.1501 59.8C47.5664 59.1317 46.1561 58.1107 45.0267 56.8149C43.8974 55.519 43.0787 53.9824 42.6331 52.3223C42.1875 50.6621 42.1268 48.9221 42.4555 47.2349C42.7843 45.5477 43.4938 43.9578 44.5301 42.5863C45.5663 41.2149 46.902 40.098 48.4352 39.321C49.9685 38.5439 51.6589 38.1271 53.3777 38.1023C55.0964 38.0774 56.7982 38.4453 58.3532 39.1778C59.9083 39.9102 61.2756 40.988 62.3511 42.329V42.3229Z" fill="black" fill-opacity="0.6"/>
<path d="M61.4909 44.2087C61.3682 46.5546 61.566 51.7997 58.9672 52.9757C57.6808 53.5552 56.304 52.2842 54.8934 52.2535C53.8785 52.2305 52.9493 52.876 52.3284 53.6794C51.7074 54.4828 51.3257 55.4395 50.8749 56.3518C50.4658 57.1784 49.9948 57.9728 49.4659 58.7283C49.15 59.176 48.8005 59.6252 48.3144 59.8767C47.4681 60.3182 46.4424 60.0698 45.5347 59.7862C44.3572 59.4152 43.1971 58.9971 42.0543 58.532C42.0805 58.3595 42.0939 58.1852 42.0942 58.0107C42.0604 58.0751 42.0237 58.1349 41.9869 58.1993L41.9148 58.325C41.7845 58.555 41.6572 58.785 41.5407 59.0211C41.4962 59.1116 41.4533 59.2051 41.415 59.2986C41.2608 59.6467 41.1639 60.0174 41.1283 60.3964C41.0501 61.4191 41.5545 62.3896 42.0022 63.3095C43.724 66.8681 44.788 71.0293 43.4925 74.7626C42.9313 76.3863 41.9593 77.8291 41.2494 79.3975C40.0085 82.1755 39.6432 85.2657 40.2022 88.2564C40.5564 90.1147 41.2662 91.9546 41.0915 93.8389C40.7848 97.0816 37.9882 99.4949 35.1871 101.154C33.6738 102.046 31.8217 102.84 30.2148 102.135C31.239 100.939 31.5027 99.2848 31.7235 97.724C32.3276 93.4668 32.9332 89.2075 33.5404 84.9462C33.7826 83.2505 34.0244 81.5548 34.2656 79.859C34.7164 76.673 35.1733 73.4517 34.8911 70.2458C34.6857 67.8831 34.1061 65.3748 35.1303 63.2359C35.6716 62.1029 36.6359 61.1646 36.9365 59.9441C37.1833 58.9521 36.9533 57.8973 37.1158 56.8869C37.2048 56.4272 37.3554 55.9816 37.5635 55.5622C37.8286 54.9931 38.1746 54.4653 38.5908 53.9952C38.1799 53.8757 37.7966 53.7116 37.5635 53.3682C38.2228 52.9389 38.3225 51.9714 38.0235 51.2447C37.7245 50.5179 37.1266 49.9644 36.5884 49.391C36.0503 48.8176 35.532 48.1491 35.4646 47.3672C35.3342 45.8784 36.8215 44.7254 37.0836 43.2566C37.3489 41.7617 36.3002 40.3083 36.3845 38.795C36.4826 36.9658 38.163 35.6365 39.822 34.8653C42.3254 33.7065 45.0908 33.2304 47.8376 33.4854C50.073 33.697 52.2364 34.3885 54.4657 34.6568C55.8103 34.8101 57.1733 34.8255 58.5088 35.0616C59.8442 35.2977 61.1827 35.796 62.1225 36.7757C64.6002 39.3592 61.6319 41.4858 61.4909 44.2087Z" fill="#232735"/>
<path opacity="0.1" d="M59.4186 113.663C58.6366 113.324 57.2138 113.527 54.7714 112.783C52.329 112.04 51.8583 108.679 51.8583 108.679V108.668C51.8292 108.591 51.6022 108.092 50.066 106.341C48.3687 104.407 44.6997 94.6422 44.6997 94.6422C44.6997 94.6422 41.4462 91.148 41.549 89.8601C41.6517 88.5722 40.9709 85.1454 41.0384 81.3124C41.1059 77.4794 48.3626 74.9373 48.3626 74.9373C62.3347 72.4612 59.0445 88.5691 58.6719 89.7895C58.2993 91.01 60.2327 94.3064 60.2327 94.3064C59.9598 95.7415 61.352 97.9631 61.352 97.9631C61.352 97.9631 61.6893 99.9287 61.7583 100.675C61.7621 100.71 61.7698 100.744 61.7813 100.777C62.0051 101.48 63.8296 102.118 64.5717 102.506C65.3521 102.914 67.862 106.474 67.862 106.474C68.4032 109.088 60.1974 114.007 59.4186 113.663Z" fill="black" fill-opacity="0.6"/>
<path d="M59.8248 113.05C59.0444 112.709 57.62 112.913 55.1791 112.168C52.7383 111.423 52.266 108.065 52.266 108.065V108.055C52.2384 107.976 52.01 107.478 50.4737 105.727C48.7764 103.794 45.1075 94.0273 45.1075 94.0273C45.1075 94.0273 41.854 90.5346 41.9552 89.2467C42.0564 87.9588 41.3787 84.5321 41.4461 80.7021C41.5136 76.8721 48.7657 74.3316 48.7657 74.3316C62.7379 71.8555 59.4476 87.9634 59.075 89.1838C58.7025 90.4043 60.6358 93.7007 60.6358 93.7007C60.3629 95.1358 61.7551 97.3574 61.7551 97.3574C61.7551 97.3574 62.0924 99.323 62.1629 100.07C62.1655 100.104 62.1727 100.138 62.1844 100.171C62.4082 100.875 64.2328 101.512 64.9764 101.9C65.7552 102.307 68.2666 105.868 68.2666 105.868C68.8109 108.478 60.6052 113.396 59.8248 113.05Z" fill="white"/>
<path opacity="0.1" d="M49.0415 82.7415C49.0415 82.7415 55.1452 89.181 56.7382 89.181C58.3312 89.181 49.0415 82.7415 49.0415 82.7415Z" fill="black" fill-opacity="0.6"/>
<path d="M59.8239 113.05C59.0435 112.71 57.6191 112.913 55.1782 112.168C52.7374 111.423 52.2651 108.065 52.2651 108.065V108.055C53.8827 106.981 57.9794 103.95 59.5939 102.842C60.73 102.064 61.6576 100.922 62.2004 100.165C62.4242 100.869 64.2487 101.506 64.9923 101.894C65.7712 102.301 68.2826 105.862 68.2826 105.862C68.81 108.478 60.6043 113.396 59.8239 113.05Z" fill="#C2CAE7"/>
<g opacity="0.1">
<path opacity="0.1" d="M37.5728 53.385C37.5804 53.3973 37.5912 53.408 37.6004 53.4202C37.6464 53.362 37.6939 53.3037 37.743 53.2485C37.6907 53.2993 37.6337 53.345 37.5728 53.385V53.385Z" fill="black" fill-opacity="0.6"/>
<path opacity="0.1" d="M41.1298 60.4131C41.1942 59.5622 41.6496 58.8125 42.0758 58.0642C41.7967 57.9569 41.5177 57.8481 41.2417 57.7346C41.268 57.5626 41.2813 57.3889 41.2816 57.2148C40.8507 57.9815 40.3816 58.7358 40.3157 59.599C40.2375 60.6232 40.7419 61.5922 41.1896 62.5121C42.9129 66.0692 43.9754 70.2303 42.6799 73.9652C42.1172 75.5873 41.1467 77.0316 40.4368 78.6001C39.1963 81.3777 38.8316 84.4674 39.3911 87.4575C39.7422 89.3173 40.4536 91.1556 40.2789 93.0399C39.9722 96.2827 37.1772 98.6959 34.3745 100.353C33.2291 101.031 31.8906 101.652 30.6104 101.608C30.4919 101.798 30.3597 101.98 30.2148 102.152C31.8232 102.862 33.6738 102.063 35.1871 101.167C37.9913 99.5116 40.7925 97.1045 41.0991 93.8556C41.2739 91.9713 40.5625 90.1329 40.2099 88.2732C39.6501 85.2833 40.0138 82.1939 41.2525 79.4158C41.9577 77.8488 42.939 76.403 43.4955 74.7809C44.7911 71.046 43.7271 66.8848 42.0053 63.3278C41.5591 62.4017 41.0516 61.4373 41.1298 60.4131Z" fill="black" fill-opacity="0.6"/>
<path opacity="0.1" d="M62.1199 36.794C61.969 36.6393 61.8071 36.4958 61.6354 36.3647C63.4936 38.775 60.8105 40.8233 60.6771 43.4175C60.5575 45.7633 60.7538 51.01 58.155 52.1844C56.8701 52.7655 55.4918 51.493 54.0827 51.4623C53.0662 51.4408 52.1371 52.0863 51.5161 52.8897C50.8952 53.6931 50.5134 54.6498 50.0642 55.5606C49.6544 56.387 49.1828 57.1814 48.6536 57.9371C48.347 58.3863 47.9882 58.834 47.5007 59.087C46.6574 59.527 45.6317 59.2801 44.7225 58.995C43.8383 58.7169 42.9623 58.4103 42.0945 58.075C42.0928 58.2347 42.0794 58.3941 42.0547 58.5519C43.1985 59.018 44.3591 59.436 45.5366 59.806C46.4443 60.0912 47.47 60.3381 48.3148 59.898C48.8008 59.645 49.1535 59.1958 49.4678 58.7466C49.9974 57.9921 50.4684 57.1981 50.8768 56.3716C51.3276 55.4609 51.7078 54.5027 52.3303 53.6992C52.9528 52.8958 53.8804 52.2519 54.8953 52.2734C56.3059 52.304 57.6843 53.5766 58.9691 52.9955C61.5679 51.8211 61.3701 46.5744 61.4912 44.2286C61.6323 41.501 64.6006 39.376 62.1199 36.794Z" fill="black" fill-opacity="0.6"/>
</g>
<path opacity="0.1" d="M41.9162 58.3266C41.7859 58.5566 41.6586 58.7865 41.5421 59.0226C41.4976 59.1131 41.4547 59.2066 41.4164 59.3002C40.613 58.4906 38.6566 56.5664 37.5649 55.97C37.8304 55.4011 38.1763 54.8734 38.5922 54.4031C38.5922 54.4031 41.1941 55.7784 41.9162 58.3266Z" fill="black" fill-opacity="0.6"/>
<path d="M41.9883 58.2007C41.3857 55.4731 38.5922 53.9966 38.5922 53.9966C38.176 54.4666 37.83 54.9944 37.5649 55.5635C38.7164 56.1937 40.8384 58.3064 41.5421 59.0225L41.9883 58.2007Z" fill="#C2CAE7"/>
</g>
<defs>
<clipPath id="clip0">
<rect width="166.527" height="120" fill="white"/>
</clipPath>
</defs>
</svg>
