<svg width="170" height="120" viewBox="0 0 170 120" fill="none" xmlns="http://www.w3.org/2000/svg">
<g clip-path="url(#clip0)">
<path opacity="0.1" d="M56.3221 119.933C64.5723 119.933 71.2604 118.858 71.2604 117.533C71.2604 116.208 64.5723 115.134 56.3221 115.134C48.0719 115.134 41.3838 116.208 41.3838 117.533C41.3838 118.858 48.0719 119.933 56.3221 119.933Z" fill="#C2CAE7"/>
<path opacity="0.1" d="M137.524 120C147.819 120 156.165 118.926 156.165 117.601C156.165 116.276 147.819 115.201 137.524 115.201C127.23 115.201 118.884 116.276 118.884 117.601C118.884 118.926 127.23 120 137.524 120Z" fill="#C2CAE7"/>
<path opacity="0.1" d="M2.12161 51.8486H17.6808V73.0557H3.26069C3.22236 73.2734 3.18557 73.4926 3.14571 73.7118H17.6808V90.8148C17.6547 90.8072 17.6317 90.798 17.6072 90.7888C17.1964 90.6263 16.7886 90.4546 16.3808 90.2706L16.1201 90.1526C15.7113 89.9594 15.3025 89.755 14.8937 89.5393C14.7511 89.4642 14.6085 89.386 14.4675 89.3063C12.1979 88.0349 10.1361 86.424 8.35357 84.5292C8.30144 84.4786 8.25239 84.425 8.20026 84.3759C7.9519 84.1061 7.70814 83.8332 7.47205 83.5542L7.21143 83.2476C6.93241 82.9057 6.66259 82.5546 6.40043 82.199C6.3621 82.1468 6.32531 82.0947 6.28545 82.0456C5.21927 80.5673 4.334 78.9667 3.64856 77.2778C3.62709 77.2272 3.6087 77.172 3.58877 77.1245C3.37823 76.5828 3.1917 76.036 3.0292 75.4841C2.95867 75.2526 2.89122 75.0242 2.83296 74.7835C2.8115 74.7129 2.7931 74.644 2.77624 74.575C1.90545 71.1761 1.80273 67.6455 1.80273 64.1393C1.80273 63.73 1.80273 63.3191 1.80273 62.9128C1.80273 61.4948 1.8196 60.0675 1.84413 58.6417C1.84413 58.2722 1.85946 57.9043 1.86712 57.5333C1.88859 56.592 1.91925 55.6507 1.95911 54.7094C1.96831 54.4472 1.98057 54.1866 1.99437 53.926C1.99437 53.7757 2.00203 53.6255 2.01737 53.4752C2.05416 52.9295 2.08482 52.3883 2.12161 51.8486Z" fill="#C2CAE7"/>
<path opacity="0.1" d="M17.6811 28.2362H9.14648C10.5338 26.0647 12.0497 23.978 13.6859 21.9874C14.9538 20.4298 16.2922 18.912 17.6811 17.4495V28.2362Z" fill="#C2CAE7"/>
<path opacity="0.1" d="M17.6805 28.8923V51.1925H2.17041C2.17041 51.1281 2.18114 51.0622 2.18574 50.9978C2.19954 50.8215 2.21334 50.6452 2.22867 50.4704C2.24553 50.265 2.26393 50.058 2.28386 49.8572C2.30379 49.6563 2.32525 49.411 2.34825 49.1887C2.37124 48.9664 2.39271 48.7411 2.41877 48.5188C2.44483 48.2965 2.46783 48.0742 2.49542 47.8534C2.52302 47.6327 2.54755 47.4088 2.57668 47.1881C2.59967 47.0041 2.6242 46.8217 2.64873 46.6377C2.68399 46.3786 2.72078 46.118 2.76064 45.8604C2.76064 45.8221 2.77138 45.7822 2.77751 45.7454C3.05732 43.86 3.43859 41.991 3.91965 40.1466C4.4232 38.2119 5.06622 36.3161 5.84366 34.4743C6.66994 32.5475 7.63738 30.6843 8.73811 28.9L17.6805 28.8923Z" fill="#C2CAE7"/>
<path opacity="0.1" d="M21.3955 51.8471V73.0556H54.628V51.8471H21.3955ZM21.3955 73.7103V91.9232C21.5856 91.9631 21.7742 92.0014 21.9612 92.0336C22.2157 92.0827 22.4687 92.1271 22.7278 92.1654C22.7768 92.1731 22.8274 92.1808 22.8811 92.1854C22.9822 92.2022 23.0865 92.216 23.1877 92.2298C23.4437 92.2651 23.6982 92.2942 23.9542 92.3172C24.0753 92.3295 24.198 92.3402 24.3206 92.3494L24.6165 92.3724C24.7775 92.3847 24.9369 92.3939 25.0948 92.3985C25.1929 92.3985 25.2911 92.4077 25.3922 92.4107C25.4689 92.4107 25.5455 92.4107 25.6253 92.4107C25.705 92.4107 25.8184 92.4107 25.915 92.4107C26.0469 92.4107 26.1787 92.4107 26.309 92.4107H26.4853C26.6172 92.4107 26.749 92.4107 26.8793 92.3985H26.8885C26.979 92.3985 27.071 92.3985 27.1629 92.3862C27.1885 92.3877 27.2141 92.3877 27.2396 92.3862C27.3162 92.3862 27.3929 92.3862 27.4665 92.3755H27.5201L28.0337 92.3356C28.2024 92.3203 28.3725 92.3004 28.5442 92.282L28.8938 92.2406C30.3158 92.0413 31.7221 91.7421 33.1021 91.3452C36.2019 90.4806 39.2344 89.271 42.3327 88.3849C46.3386 87.2427 50.7646 86.6816 54.6356 88.0783V73.7103H21.3955ZM54.628 28.2362V0.00153061C50.9896 -0.0378884 47.3611 0.387663 43.8305 1.26785C35.4155 3.38196 27.8651 7.96739 21.3955 13.8237V28.2347H23.0635V28.8893H21.3955V51.1925H54.628V28.8908H29.9117V28.2362H54.628ZM97.3134 18.6989C95.2315 18.6253 93.1618 17.9661 91.2899 16.9481C87.7102 15.0011 84.851 11.9948 81.6561 9.45754C75.0179 4.17303 66.7853 0.984232 58.3396 0.193165V28.2362H105.781L105.899 28.112L97.3134 18.6989ZM101.635 17.9324L106.218 22.9609V16.6139C104.683 16.804 103.338 17.2563 101.641 17.9263L101.635 17.9324ZM106.218 96.4458V73.7103H96.4533C96.4273 73.6137 96.4012 73.5156 96.3706 73.4175C96.3997 73.5156 96.4242 73.6137 96.4518 73.7103H58.3457V90.1525C58.7075 90.4208 59.0647 90.7029 59.4188 90.9896C59.8006 91.2962 60.1777 91.6197 60.5564 91.937L60.9381 92.2528C61.1206 92.4061 61.3045 92.5594 61.49 92.7036C61.858 93.002 62.2295 93.2963 62.6046 93.5866C62.7901 93.7399 62.9802 93.8779 63.1687 94.022C66.1624 96.3108 69.3204 98.3763 72.6171 100.202C73.356 100.611 74.1016 101.01 74.8538 101.399C75.3552 101.655 75.8595 101.91 76.3655 102.156C77.1259 102.527 77.8924 102.885 78.6651 103.23C85.7887 106.427 93.3214 108.622 101.048 109.75C102.764 110.003 104.487 110.203 106.216 110.348V96.4443H106.369L106.218 96.4458ZM58.3457 28.8908V51.1925H106.224V28.8908H58.3457ZM58.3457 51.8471V73.0556H106.224V51.8471H58.3457ZM109.94 16.5863V23.6661L115.788 17.2486C113.851 16.9359 111.901 16.7126 109.94 16.5787V16.5863ZM109.94 51.8547V73.0556H156.507V51.8471L109.94 51.8547ZM156.337 98.1291L156.501 73.7103H109.94V110.591C112.939 110.717 115.943 110.682 118.939 110.484V110.484H118.991C120.422 110.394 121.846 110.263 123.264 110.092H123.296C130.859 109.212 138.254 107.238 145.25 104.234L156.337 98.1291ZM165.486 55.3394C165.311 54.927 165.129 54.5177 164.943 54.113C164.597 53.3464 164.231 52.6014 163.853 51.8563H160.22V73.0556H169.406C169.402 67.0521 167.882 60.9198 165.491 55.3318L165.486 55.3394ZM160.22 73.7179V94.7211C162.808 92.2406 164.994 89.4028 166.569 86.1589C168.462 82.2526 169.328 78.0228 169.399 73.7149L160.22 73.7179ZM160.22 45.6749V51.194H163.513C162.517 49.2941 161.419 47.4492 160.225 45.6673L160.22 45.6749ZM128.639 20.7471C128.397 20.6551 128.154 20.5616 127.911 20.4712C125.34 19.5218 122.713 18.7323 120.044 18.1072L111.094 27.9296L110.923 28.112L111.037 28.2377H142.892C138.455 25.1839 133.672 22.6669 128.643 20.7394L128.639 20.7471ZM143.825 28.8985H110.593L109.94 29.4964V51.1925H115.664H115.674H156.513V40.6832C152.819 36.2152 148.555 32.2506 143.83 28.8908L143.825 28.8985Z" fill="#C2CAE7"/>
<path opacity="0.1" d="M17.6805 40.1406V51.1926H2.17041C2.17041 51.1282 2.18114 51.0623 2.18574 50.9979C2.19954 50.8216 2.21334 50.6453 2.22867 50.4705C2.24553 50.2651 2.26393 50.0581 2.28386 49.8573C2.30379 49.6564 2.32525 49.4111 2.34825 49.1888C2.37124 48.9666 2.39271 48.7412 2.41877 48.5189C2.44483 48.2966 2.46783 48.0743 2.49542 47.8535C2.52302 47.6328 2.54755 47.4089 2.57668 47.1882C2.59967 47.0042 2.6242 46.8218 2.64873 46.6378C2.68399 46.3787 2.72078 46.1181 2.76064 45.8605C2.76064 45.8222 2.77138 45.7823 2.77751 45.7456C3.05732 43.8601 3.43859 41.9911 3.91965 40.1468L17.6805 40.1406Z" fill="#C2CAE7"/>
<path opacity="0.1" d="M2.12161 51.8486H17.6808V73.0557H3.26069C3.22236 73.2734 3.18557 73.4926 3.14571 73.7118H17.6808V90.8148C17.6547 90.8072 17.6317 90.798 17.6072 90.7888C17.1964 90.6263 16.7886 90.4546 16.3808 90.2706L16.1201 90.1526C15.7113 89.9594 15.3025 89.755 14.8937 89.5393C14.7511 89.4642 14.6085 89.386 14.4675 89.3063C12.1979 88.0349 10.1361 86.424 8.35357 84.5292C8.30144 84.4786 8.25239 84.425 8.20026 84.3759C7.9519 84.1061 7.70814 83.8332 7.47205 83.5542L7.21143 83.2476C6.93241 82.9057 6.66259 82.5546 6.40043 82.199C6.3621 82.1468 6.32531 82.0947 6.28545 82.0456C5.21927 80.5673 4.334 78.9667 3.64856 77.2778C3.62709 77.2272 3.6087 77.172 3.58877 77.1245C3.37823 76.5828 3.1917 76.036 3.0292 75.4841C2.95867 75.2526 2.89122 75.0242 2.83296 74.7835C2.8115 74.7129 2.7931 74.644 2.77624 74.575C1.90545 71.1761 1.80273 67.6455 1.80273 64.1393C1.80273 63.73 1.80273 63.3191 1.80273 62.9128C1.80273 61.4948 1.8196 60.0675 1.84413 58.6417C1.84413 58.2722 1.85946 57.9043 1.86712 57.5333C1.88859 56.592 1.91925 55.6507 1.95911 54.7094C1.96831 54.4472 1.98057 54.1866 1.99437 53.926C1.99437 53.7757 2.00203 53.6255 2.01737 53.4752C2.05416 52.9295 2.08482 52.3883 2.12161 51.8486Z" fill="#C2CAE7"/>
<path opacity="0.1" d="M33.0944 32.0843V51.1926H21.3955V32.0843H23.0635V25.6147H29.9102V32.0843H33.0944Z" fill="#C2CAE7"/>
<path opacity="0.1" d="M33.0948 51.8472H21.3975V73.0542H33.0948V51.8472Z" fill="#C2CAE7"/>
<path opacity="0.1" d="M21.3955 73.7119H33.0944V91.3423C31.7144 91.7388 30.3082 92.0375 28.8861 92.2361L28.5366 92.279C28.3649 92.2989 28.1947 92.3158 28.0261 92.3327C27.8574 92.3495 27.6826 92.3618 27.5125 92.3725H27.4588C27.3852 92.3725 27.3055 92.3817 27.2335 92.3833H27.1553C27.0633 92.3833 26.9713 92.3925 26.8793 92.3955C26.749 92.4032 26.6187 92.4047 26.4853 92.4063C26.4286 92.4063 26.3749 92.4063 26.3182 92.4063C26.1864 92.4063 26.0561 92.4063 25.9242 92.4063H25.6345C25.5563 92.4063 25.4812 92.4063 25.3999 92.4063L25.104 92.3955C24.9507 92.3955 24.7851 92.3787 24.6257 92.3679L24.3313 92.3465L23.9649 92.3127C23.7074 92.2897 23.4514 92.2606 23.1984 92.2253L22.8918 92.1824L22.7385 92.161C22.4825 92.1211 22.2295 92.0782 21.9719 92.0291C21.7834 91.9969 21.5963 91.9571 21.4062 91.9187L21.3955 73.7119Z" fill="#C2CAE7"/>
<path opacity="0.1" d="M106.223 29.8276H96.5771V51.1911H106.223V29.8276Z" fill="#C2CAE7"/>
<path opacity="0.1" d="M106.226 51.8472V73.0557H58.3462V63.9079H83.8489V69.3043H96.578V51.8472H106.226Z" fill="#C2CAE7"/>
<path opacity="0.1" d="M106.377 96.4503H106.224V110.363C104.497 110.217 102.775 110.018 101.058 109.767C93.3274 108.635 85.7915 106.436 78.6656 103.233C76.6082 102.307 74.5927 101.296 72.6191 100.2C69.3225 98.3739 66.164 96.3084 63.1692 94.0204C62.417 93.444 61.6745 92.8543 60.9417 92.2512C60.4342 91.8327 59.9299 91.4035 59.4193 90.9865C59.0652 90.6998 58.708 90.4177 58.3462 90.1479V73.7118H96.4508C96.4247 73.6136 96.3987 73.5155 96.3711 73.4189C96.4002 73.5155 96.4278 73.6136 96.4539 73.7118H106.224V96.4411C106.276 96.4427 106.327 96.4473 106.377 96.4503Z" fill="#C2CAE7"/>
<path opacity="0.1" d="M131.382 28.2362H125.096V26.2831H127.914V20.4651C128.158 20.554 128.402 20.6455 128.644 20.7395V26.2831H131.382V28.2362Z" fill="#C2CAE7"/>
<path opacity="0.1" d="M146.526 51.1925H115.668C115.668 51.1925 115.668 51.1925 115.679 51.2001L115.665 51.1925H109.94V29.829H111.562V45.6197H118.975V36.268H125.098V28.8923H131.384V36.2741H137.507V45.6259H146.526V51.1925Z" fill="#C2CAE7"/>
<path opacity="0.1" d="M109.94 51.8472V73.0557H146.526V51.8472H109.94ZM156.457 98.0204L156.508 81.2332H146.526V73.7211H109.94V110.592C112.94 110.718 115.944 110.682 118.94 110.484V110.484H118.992C120.423 110.394 121.847 110.263 123.264 110.092H123.297C130.859 109.212 138.254 107.238 145.25 104.234" fill="#C2CAE7"/>
<path opacity="0.1" d="M160.87 73.7119H169.405C169.33 78.0183 168.465 82.2481 166.574 86.1544C164.999 89.3999 162.811 92.2376 160.227 94.7166V81.2255H160.87V73.7119Z" fill="#C2CAE7"/>
<path opacity="0.1" d="M169.409 73.0557H160.87V55.3318H165.491C167.882 60.9199 169.402 67.0522 169.409 73.0557Z" fill="#C2CAE7"/>
<path opacity="0.1" d="M106.225 35.7666H101.057V42.4646H106.225V35.7666Z" fill="#C2CAE7"/>
<path opacity="0.1" d="M106.225 49.6501H101.057V51.1924H106.225V49.6501Z" fill="#C2CAE7"/>
<path opacity="0.1" d="M106.225 51.8472H101.057V56.3467H106.225V51.8472Z" fill="#C2CAE7"/>
<path opacity="0.1" d="M106.225 63.5337H101.057V70.2317H106.225V63.5337Z" fill="#C2CAE7"/>
<path opacity="0.1" d="M106.225 77.4172H101.057V84.1152H106.225V77.4172Z" fill="#C2CAE7"/>
<path opacity="0.1" d="M106.224 96.4412C106.276 96.4412 106.326 96.4412 106.377 96.4504H106.224V98.0064H101.057V91.3008H106.224V96.4412Z" fill="#C2CAE7"/>
<path opacity="0.1" d="M106.224 105.181V110.356C104.496 110.209 102.774 110.011 101.057 109.759V105.181H106.224Z" fill="#C2CAE7"/>
<path opacity="0.1" d="M80.4946 72.5635H58.3462V73.0556H80.4946V72.5635Z" fill="#C2CAE7"/>
<path opacity="0.1" d="M80.4946 73.7102H58.3462V75.5959H80.4946V73.7102Z" fill="#C2CAE7"/>
<path opacity="0.1" d="M80.4946 81.7773H58.3462V84.8098H80.4946V81.7773Z" fill="#C2CAE7"/>
<path opacity="0.1" d="M80.4927 90.9912V94.0236H63.1689C62.4167 93.4492 61.6737 92.8595 60.9398 92.2545C60.4324 91.8359 59.9295 91.4067 59.4175 90.9912H80.4927Z" fill="#C2CAE7"/>
<path opacity="0.1" d="M80.4925 100.203V103.233H78.6635C76.6082 102.306 74.5932 101.294 72.6187 100.199L80.4925 100.203Z" fill="#C2CAE7"/>
<path opacity="0.1" d="M123.301 53.9028H118.941V58.2629H123.301V53.9028Z" fill="#C2CAE7"/>
<path opacity="0.1" d="M28.8972 33.5881H24.5371V37.9482H28.8972V33.5881Z" fill="#C2CAE7"/>
<path opacity="0.1" d="M28.8972 43.7156H24.5371V48.0756H28.8972V43.7156Z" fill="#C2CAE7"/>
<path opacity="0.1" d="M28.8972 53.8433H24.5371V58.2033H28.8972V53.8433Z" fill="#C2CAE7"/>
<path opacity="0.1" d="M28.8972 63.9692H24.5371V68.3293H28.8972V63.9692Z" fill="#C2CAE7"/>
<path opacity="0.1" d="M28.8972 74.0967H24.5371V78.4567H28.8972V74.0967Z" fill="#C2CAE7"/>
<path opacity="0.1" d="M28.8972 84.2241H24.5371V88.5842H28.8972V84.2241Z" fill="#C2CAE7"/>
<path opacity="0.1" d="M139.946 53.9028H135.585V58.2629H139.946V53.9028Z" fill="#C2CAE7"/>
<path opacity="0.1" d="M123.301 64.6575H118.941V69.0175H123.301V64.6575Z" fill="#C2CAE7"/>
<path opacity="0.1" d="M139.946 64.6575H135.585V69.0175H139.946V64.6575Z" fill="#C2CAE7"/>
<path opacity="0.1" d="M123.301 75.4104H118.941V79.7705H123.301V75.4104Z" fill="#C2CAE7"/>
<path opacity="0.1" d="M139.946 75.4104H135.585V79.7705H139.946V75.4104Z" fill="#C2CAE7"/>
<path opacity="0.1" d="M123.301 86.165H118.941V90.5251H123.301V86.165Z" fill="#C2CAE7"/>
<path opacity="0.1" d="M139.946 86.165H135.585V90.5251H139.946V86.165Z" fill="#C2CAE7"/>
<path opacity="0.1" d="M123.301 96.9194H118.941V101.28H123.301V96.9194Z" fill="#C2CAE7"/>
<path opacity="0.1" d="M139.946 96.9194H135.585V101.28H139.946V96.9194Z" fill="#C2CAE7"/>
<path opacity="0.1" d="M118.941 110.484V107.673H123.299V110.084L118.941 110.484Z" fill="#C2CAE7"/>
<path opacity="0.1" d="M2.75977 45.7424V48.2367H17.6812V45.7424H2.75977ZM4.24685 48.0804H3.02959V45.8957H4.25605L4.24685 48.0804ZM5.7324 48.0804H4.50594V45.8957H5.7324V48.0804ZM7.21489 48.0804H5.98842V45.8957H7.21489V48.0804ZM8.70044 48.0804H7.47551V45.8957H8.70197L8.70044 48.0804ZM10.1845 48.0804H8.95799V45.8957H10.1845V48.0804ZM11.67 48.0804H10.4435V45.8957H11.67V48.0804ZM13.1556 48.0804H11.9291V45.8957H13.1556V48.0804ZM14.6396 48.0804H13.4131V45.8957H14.6396V48.0804ZM16.1236 48.0804H14.8971V45.8957H16.1236V48.0804ZM17.6076 48.0804H16.3811V45.8957H17.6076V48.0804Z" fill="#C2CAE7"/>
<path opacity="0.1" d="M2.75977 53V55.4943H17.6812V53H2.75977ZM4.24685 55.3364H3.02959V53.1579H4.25605L4.24685 55.3364ZM5.7324 55.3364H4.50594V53.1579H5.7324V55.3364ZM7.21489 55.3364H5.98842V53.1579H7.21489V55.3364ZM8.70044 55.3364H7.47551V53.1579H8.70197L8.70044 55.3364ZM10.1845 55.3364H8.95799V53.1579H10.1845V55.3364ZM11.67 55.3364H10.4435V53.1579H11.67V55.3364ZM13.1556 55.3364H11.9291V53.1579H13.1556V55.3364ZM14.6396 55.3364H13.4131V53.1579H14.6396V55.3364ZM16.1236 55.3364H14.8971V53.1579H16.1236V55.3364ZM17.6076 55.3364H16.3811V53.1579H17.6076V55.3364Z" fill="#C2CAE7"/>
<path opacity="0.1" d="M2.75977 60.2607V62.7597H17.6812V60.2607H2.75977ZM4.24685 62.5971H3.02959V60.4171H4.25605L4.24685 62.5971ZM5.7324 62.5971H4.50594V60.4171H5.7324V62.5971ZM7.21489 62.5971H5.98842V60.4171H7.21489V62.5971ZM8.70044 62.5971H7.47551V60.4171H8.70197L8.70044 62.5971ZM10.1845 62.5971H8.95799V60.4171H10.1845V62.5971ZM11.67 62.5971H10.4435V60.4171H11.67V62.5971ZM13.1556 62.5971H11.9291V60.4171H13.1556V62.5971ZM14.6396 62.5971H13.4131V60.4171H14.6396V62.5971ZM16.1236 62.5971H14.8971V60.4171H16.1236V62.5971ZM17.6076 62.5971H16.3811V60.4171H17.6076V62.5971Z" fill="#C2CAE7"/>
<path opacity="0.1" d="M2.75977 67.5212V70.0125H17.6812V67.5212H2.75977ZM4.24685 69.8576H3.02959V67.6761H4.25605L4.24685 69.8576ZM5.7324 69.8576H4.50594V67.6761H5.7324V69.8576ZM7.21489 69.8576H5.98842V67.6761H7.21489V69.8576ZM8.70044 69.8576H7.47551V67.6761H8.70197L8.70044 69.8576ZM10.1845 69.8576H8.95799V67.6761H10.1845V69.8576ZM11.67 69.8576H10.4435V67.6761H11.67V69.8576ZM13.1556 69.8576H11.9291V67.6761H13.1556V69.8576ZM14.6396 69.8576H13.4131V67.6761H14.6396V69.8576ZM16.1236 69.8576H14.8971V67.6761H16.1236V69.8576ZM17.6076 69.8576H16.3811V67.6761H17.6076V69.8576Z" fill="#C2CAE7"/>
<path opacity="0.1" d="M2.82373 74.7803C2.88352 75.0148 2.95097 75.2494 3.0215 75.4809V74.9367H4.24796V77.1167H3.5918C3.61173 77.1673 3.63166 77.2225 3.65159 77.27H17.6808V74.7803H2.82373ZM5.73658 77.1167H4.51011V74.9367H5.73658V77.1167ZM7.21906 77.1167H5.9926V74.9367H7.21906V77.1167ZM8.70461 77.1167H7.47508V74.9367H8.70154L8.70461 77.1167ZM10.1886 77.1167H8.96217V74.9367H10.1886V77.1167ZM11.6742 77.1167H10.4477V74.9367H11.6742V77.1167ZM13.1597 77.1167H11.9333V74.9367H13.1597V77.1167ZM14.6437 77.1167H13.4173V74.9367H14.6437V77.1167ZM16.1278 77.1167H14.9013V74.9367H16.1278V77.1167ZM17.6118 77.1167H16.3853V74.9367H17.6118V77.1167Z" fill="#C2CAE7"/>
<path opacity="0.1" d="M6.28857 82.041C6.3269 82.0901 6.36369 82.1453 6.40355 82.1943H7.21455V83.2414C7.30194 83.3457 7.38779 83.4499 7.47671 83.548V82.1882H8.70317V84.3759H8.20645C8.25551 84.4265 8.30304 84.4801 8.35976 84.5292H17.6855V82.041H6.28857ZM10.1841 84.3759H8.95766V82.1974H10.1841V84.3759ZM11.6697 84.3759H10.4432V82.1974H11.6697V84.3759ZM13.1552 84.3759H11.9288V82.1974H13.1552V84.3759ZM14.6392 84.3759H13.4128V82.1974H14.6392V84.3759ZM16.1233 84.3759H14.8968V82.1974H16.1233V84.3759ZM17.6073 84.3759H16.3808V82.1974H17.6073V84.3759Z" fill="#C2CAE7"/>
<path opacity="0.1" d="M14.4736 89.3C14.6131 89.3798 14.7557 89.4534 14.8998 89.5331V89.4564H16.1263V90.1463L16.3869 90.2674V89.4564H17.6134V90.7825C17.6369 90.7942 17.6616 90.8035 17.687 90.8101V89.3H14.4736Z" fill="#C2CAE7"/>
<path opacity="0.1" d="M115.668 51.1926H115.677H115.668ZM106.224 96.4398H106.377H106.224ZM96.3708 73.4176C96.3999 73.5157 96.4244 73.6138 96.452 73.7104C96.4275 73.6138 96.4014 73.5157 96.3708 73.4176ZM115.668 51.188H115.677H115.668ZM23.0698 28.2317V28.8863H29.9181V28.2317H23.0698ZM106.224 96.4398H106.377H106.224ZM96.3708 73.4176C96.3999 73.5157 96.4244 73.6138 96.452 73.7104C96.4275 73.6138 96.4014 73.5157 96.3708 73.4176ZM115.668 51.188H115.677H115.668ZM106.224 96.4352H106.377H106.224ZM96.3708 73.4176C96.3999 73.5157 96.4244 73.6138 96.452 73.7104C96.4275 73.6138 96.4014 73.5157 96.3708 73.4176Z" fill="#C2CAE7"/>
<path d="M70.7664 58.2063C70.7664 58.2063 70.1623 58.122 70.1623 57.242C70.1623 56.362 69.73 54.7186 69.73 54.7186C69.73 54.7109 69.3559 51.8563 68.8393 51.4025C68.3226 50.9488 67.6588 48.2843 67.6588 48.2843C67.6588 48.2843 67.5454 46.8386 67.3139 46.5274C67.0824 46.2161 66.7696 45.4542 66.3082 44.3673C65.8467 43.2803 63.9227 42.5276 63.9227 42.5276C63.9227 42.5276 60.4442 40.51 59.4584 39.8523C59.3688 39.7983 59.2851 39.7351 59.2085 39.6638C59.0368 39.4384 58.2887 39.4338 58.2887 39.4338C58.2105 38.9402 58.1354 38.3729 58.1108 37.8593C58.1108 37.8042 58.1108 37.749 58.1032 37.6938C59.2024 37.044 60.0303 36.0196 60.435 34.8085C60.4534 34.7503 60.4687 34.6889 60.4856 34.6307C60.5514 34.609 60.612 34.5738 60.6635 34.5273C60.715 34.4809 60.7562 34.4242 60.7845 34.3609C60.8734 34.1631 60.875 33.9316 60.9853 33.7476C61.1141 33.5299 61.3594 33.4134 61.5526 33.2494C62.0401 32.8355 62.1658 32.1379 62.1428 31.5032C62.1275 30.9896 62.0447 30.4715 62.0769 29.9609L62.0861 29.8322C62.0953 29.7555 62.106 29.6789 62.1198 29.6053C62.1949 29.2251 62.359 28.8663 62.451 28.4892C62.5429 28.1121 62.5521 27.6874 62.3375 27.3624C62.0232 26.8856 61.3686 26.7905 60.7937 26.7415C60.1421 26.6863 59.5596 26.7583 59.1426 26.2172C58.9474 25.9343 58.7279 25.6691 58.4864 25.4246C58.4006 25.3449 57.5666 24.8359 57.5666 24.8021C56.7526 24.4251 55.83 24.3544 54.968 24.6028C54.5357 24.7286 54.1279 24.934 53.6894 25.0367C52.7435 25.2605 51.655 25.0183 50.8517 25.5595C50.4041 25.8661 50.1358 26.3536 49.8843 26.8289C49.6799 27.2203 49.4725 27.6112 49.2619 28.0017C48.9231 28.644 48.5782 29.2971 48.4356 30.0085C48.4056 30.1633 48.3872 30.3201 48.3804 30.4776V30.4853C48.3804 30.542 48.3804 30.5987 48.3804 30.6554V30.7275C48.3804 30.7811 48.3804 30.8333 48.3896 30.8808C48.3988 30.9283 48.3973 30.9436 48.4019 30.9758C48.4065 31.008 48.4141 31.0801 48.4233 31.1291C48.4325 31.1782 48.4509 31.2641 48.4693 31.3315C48.477 31.3606 48.4877 31.3882 48.4969 31.4158C48.5122 31.468 48.5306 31.5185 48.5506 31.5691C48.5613 31.5952 48.572 31.6228 48.5843 31.6489C48.6073 31.7025 48.6349 31.7546 48.6625 31.8022C48.6747 31.8236 48.6839 31.8436 48.6962 31.8635C48.739 31.9348 48.7861 32.0034 48.8372 32.0689C49.1653 32.4783 49.6482 32.7389 50.0055 33.1221C50.0055 33.1375 50.0055 33.1528 50.0055 33.1666C50.0055 33.2095 50.0055 33.2509 50.0055 33.2938C50.0244 34.1486 50.2519 34.9858 50.6682 35.7326C51.0845 36.4794 51.6769 37.1132 52.394 37.5788C52.394 37.6371 52.4016 37.6968 52.4047 37.7551C52.4346 38.2102 52.429 38.6669 52.3878 39.1211C52.3254 39.0475 52.2473 38.989 52.1592 38.9497C52.0711 38.9104 51.9753 38.8915 51.8789 38.8942C51.813 38.891 51.747 38.8966 51.6826 38.911L51.6688 38.9003V38.9141C51.3316 38.9969 50.9161 39.348 50.519 40.346C50.519 40.346 49.311 41.7074 48.3911 41.6506C47.4713 41.5939 45.1425 43.0672 45.1425 43.0672C45.1425 43.0672 42.8705 44.542 42.383 46.0444C42.1105 46.8964 41.7838 47.73 41.4049 48.5403L38.5963 54.3277L38.0781 58.9192C38.0781 58.9192 38.3648 60.9613 38.3081 61.2725C38.2514 61.5837 39.487 64.3908 39.487 64.3908C39.487 64.3908 43.5696 71.564 45.2376 71.932L45.3572 71.8476C45.4285 71.8849 45.5042 71.9132 45.5825 71.932L45.9259 71.6897C45.9466 71.9597 45.9378 72.2311 45.8999 72.4992C45.6699 73.2075 45.9857 77.8297 46.3874 78.7358C46.7891 79.6418 46.6465 91.5216 46.6465 91.5216L46.5898 92.5702C46.5898 92.5702 46.5898 92.604 46.6036 92.6622L46.5898 92.9106L46.6312 92.932C46.6741 93.2646 46.6601 93.6022 46.5898 93.9301C46.4457 94.39 46.3874 95.69 46.3874 95.69C46.3874 95.69 45.2391 103.03 45.7834 104.505C46.3276 105.98 46.7906 107.596 46.7906 107.596C46.7906 107.596 47.3655 109.436 46.8182 109.75C46.2709 110.064 44.7148 110.592 45.0352 111.358C45.3265 112.066 46.4319 113.964 46.5959 114.242L46.5821 114.387L46.3567 116.83C46.3932 117.152 46.4807 117.467 46.6158 117.762C46.8626 118.294 47.3425 118.846 48.2547 118.786C48.408 118.775 48.5858 118.757 48.7575 118.734C50.427 118.51 52.4829 117.765 52.4829 117.765C52.3762 117.697 52.2783 117.616 52.1916 117.524V117.524C52.1096 117.445 52.0445 117.349 52.0005 117.244C51.9565 117.138 51.9344 117.025 51.9356 116.911C51.9601 116.466 51.1277 114.348 50.9207 113.826C50.8885 113.751 50.8716 113.708 50.8716 113.708C50.8716 113.708 52.7696 111.724 52.4538 109.966C52.4538 109.966 50.3535 108.74 51.0449 108.067C51.7363 107.394 52.972 105.46 52.972 105.46C52.972 105.46 53.0287 98.2319 52.972 97.1526C52.9128 96.4035 52.9483 95.6499 53.0777 94.9097C53.1007 94.7978 53.1283 94.6889 53.1575 94.5816C54.1137 94.7244 55.079 94.7976 56.0458 94.8009C56.3984 94.8009 56.7571 94.8009 57.1189 94.7794C57.1189 94.8816 57.1235 94.992 57.1327 95.1105C57.2124 96.9012 57.3611 100.041 57.4823 101.208C57.654 102.88 58.6029 107.387 58.6029 107.387C58.6029 107.387 56.7924 108.549 58.9188 111.413C58.9188 111.413 58.9188 112.451 58.7777 112.601C58.6271 113.093 58.5058 113.592 58.4144 114.098C58.3254 114.637 58.2887 115.183 58.4328 115.467C58.7777 116.144 60.8474 116.089 60.8474 116.089L60.898 116.08C61.2887 116.04 61.6835 116.077 62.0596 116.191C62.4357 116.304 62.7855 116.491 63.0887 116.741C63.8752 117.372 66.8601 117.095 68.4759 116.894C69.1091 116.814 69.5322 116.741 69.5322 116.741C69.5527 116.669 69.56 116.594 69.5537 116.52C69.5368 116.123 69.2256 115.252 67.1161 114.475C67.1161 114.475 65.1323 113.141 65.1599 111.979H65.1185H64.8885C65.0557 111.97 65.163 111.979 65.163 111.979C65.163 111.979 64.3857 109.143 64.703 108.913C65.0204 108.683 64.0699 105.54 64.0699 105.54C64.0699 105.54 63.5256 100.266 63.4965 99.8968C63.4977 99.5797 63.5458 99.2646 63.6391 98.9616L63.4965 96.0702C63.4965 96.0702 63.4689 95.109 63.4965 94.7962C63.4919 94.5248 63.4698 94.2539 63.4306 93.9853C63.4168 93.8779 63.403 93.766 63.3877 93.6556C64.1312 93.4671 64.6141 93.2923 64.6141 93.2923L64.5283 83.2277C65.1599 82.0012 65.2764 79.3107 65.2733 77.402C65.2733 76.1755 65.2182 75.2679 65.2182 75.2679L66.0813 73.859C66.0813 73.859 66.2806 72.1727 65.9648 71.8032C65.8253 71.6361 65.8881 71.4628 66.0031 71.3203C66.0628 71.2729 66.1258 71.2299 66.1917 71.1915C66.1917 71.1915 66.1825 71.1777 66.1717 71.1578C66.232 71.1074 66.2961 71.0618 66.3634 71.0213C66.3634 71.0213 66.0568 70.5461 66.3312 70.3452C66.5887 70.52 66.8187 70.6518 66.9935 70.7592C66.9812 70.8711 66.9689 70.9355 66.9689 70.9355L67.0425 70.7822C67.2112 70.8772 67.3139 70.9355 67.3139 70.9355C67.3139 70.9355 68.666 68.2418 68.6369 67.8448C68.6078 67.4477 69.5568 65.7751 69.5568 65.7751C69.5568 65.7751 69.6717 64.8967 70.1899 64.5287C70.7081 64.1608 70.5916 61.4948 70.5916 61.4948C70.5916 61.4948 70.7357 60.1058 71.0806 59.5386C71.4256 58.9713 70.7664 58.2063 70.7664 58.2063ZM44.8942 57.0243L44.9202 57.6667C44.7669 57.4199 44.6566 57.242 44.6566 57.242L44.8942 57.0243Z" fill="#FAFAFC"/>
<path d="M67.3876 69.7719L67.0565 71.1823C67.0565 71.1823 64.4043 69.8286 63.926 68.1085C63.4476 66.3884 64.7262 65.7354 64.7262 65.7354L67.1975 66.7824L67.3876 69.7719Z" fill="white"/>
<path opacity="0.1" d="M67.3876 69.7719L67.0565 71.1823C67.0565 71.1823 64.4043 69.8286 63.926 68.1085C63.4476 66.3884 64.7262 65.7354 64.7262 65.7354L67.1975 66.7824L67.3876 69.7719Z" fill="black" fill-opacity="0.6"/>
<path d="M52.5034 117.774C52.5034 117.774 50.0505 118.675 48.3641 118.789C47.4688 118.849 46.9981 118.3 46.7559 117.771C46.6236 117.477 46.5382 117.164 46.5029 116.843L46.7222 114.413L46.8387 113.12L50.4215 112.189L50.9289 113.74L50.9764 113.858C51.1803 114.377 51.9975 116.485 51.9729 116.925C51.9719 117.037 51.9937 117.149 52.0369 117.253C52.0801 117.357 52.1439 117.451 52.2244 117.53C52.3066 117.623 52.4004 117.705 52.5034 117.774V117.774Z" fill="#FF3C88"/>
<path d="M69.2579 116.538C69.264 116.612 69.2567 116.686 69.2364 116.758C69.2364 116.758 63.9902 117.633 62.9171 116.758C62.6145 116.502 62.2618 116.312 61.8816 116.201C61.5015 116.089 61.1022 116.059 60.7094 116.111C60.7094 116.111 58.6796 116.166 58.3408 115.497C58.1998 115.217 58.2366 114.673 58.324 114.136C58.4131 113.633 58.5319 113.136 58.6796 112.647L58.7609 112.583L59.2438 112.195L64.8978 112.028H64.9407C64.9131 113.184 66.8601 114.51 66.8601 114.51C68.9283 115.277 69.2333 116.143 69.2579 116.538Z" fill="#FF3C88"/>
<path opacity="0.4" d="M69.2585 116.538C69.2639 116.612 69.2561 116.686 69.2355 116.758C69.2355 116.758 63.9909 117.633 62.9177 116.758C62.6153 116.502 62.2629 116.312 61.883 116.201C61.5031 116.09 61.1041 116.059 60.7116 116.111C60.7116 116.111 58.6803 116.166 58.343 115.497C58.202 115.215 58.2372 114.673 58.3246 114.136C59.1065 114.214 60.3406 114.409 60.8251 114.873C61.5579 115.58 62.7997 116.285 63.5616 116.341C64.158 116.379 67.7255 116.492 69.2585 116.538Z" fill="#232735"/>
<path opacity="0.4" d="M52.5038 117.774C52.5038 117.774 50.0509 118.675 48.3645 118.789C47.4692 118.849 46.9985 118.3 46.7578 117.769C47.3818 117.979 48.248 118.2 48.7033 117.998C49.2429 117.759 51.1562 117.604 52.2294 117.538C52.311 117.627 52.4032 117.707 52.5038 117.774V117.774Z" fill="#232735"/>
<path d="M56.1429 45.1291C54.1192 44.3426 51.516 41.7441 52.1661 40.5299C52.3104 40.2235 52.3962 39.8928 52.419 39.5549C52.4608 39.0961 52.467 38.6348 52.4374 38.1751C52.3918 37.4222 52.3012 36.6727 52.1661 35.9307C52.1661 35.9307 58.4839 36.0732 58.1159 37.0038C58.0086 37.2767 57.9918 37.7504 58.0209 38.2809C58.05 38.8113 58.1267 39.4107 58.2064 39.9182C58.3168 40.6142 58.4272 41.1447 58.4272 41.1447C58.4272 41.1447 58.0408 41.6858 57.8139 41.715C57.587 41.7441 59.0465 46.2498 56.1429 45.1291Z" fill="#FEA94E"/>
<path opacity="0.1" d="M50.9721 113.858L50.9245 113.911C49.0358 111.626 46.7515 114.473 46.7515 114.473L46.7178 114.413L46.8343 113.12L50.4171 112.189L50.9245 113.74L50.9721 113.858Z" fill="black" fill-opacity="0.6"/>
<path opacity="0.1" d="M64.9429 112.189C64.9429 112.189 63.5631 112.16 62.8272 112.81C62.0913 113.46 58.5346 112.951 58.6879 112.81C58.7333 112.74 58.7607 112.66 58.7676 112.577L59.2506 112.189L64.9045 112.022C64.926 112.125 64.9429 112.189 64.9429 112.189Z" fill="black" fill-opacity="0.6"/>
<path d="M53.3217 94.2505C53.2189 94.5045 53.1409 94.7679 53.0886 95.0369C52.9608 95.7737 52.9253 96.5235 52.9829 97.2691C53.0396 98.3423 52.9829 105.534 52.9829 105.534C52.9829 105.534 51.7702 107.452 51.0941 108.128C50.418 108.804 52.4739 110.018 52.4739 110.018C52.7805 111.766 50.9224 113.74 50.9224 113.74C49.0336 111.456 46.7494 114.305 46.7494 114.305C46.7494 114.305 45.5076 112.158 45.1979 111.392C44.8882 110.625 46.4106 110.095 46.9456 109.784C47.4806 109.472 46.9195 107.637 46.9195 107.637C46.9195 107.637 46.4673 106.029 45.9307 104.562C45.3941 103.095 46.5225 95.7912 46.5225 95.7912C46.5225 95.7912 46.5807 94.4942 46.7202 94.042C46.7906 93.7156 46.8046 93.3796 46.7616 93.0486C46.7524 92.9366 46.7417 92.8431 46.734 92.7803C46.7264 92.7174 46.7202 92.6883 46.7202 92.6883L46.7417 92.6515L47.5082 91.2227C47.5082 91.2227 53.6896 93.3506 53.3217 94.2505Z" fill="#2C217D"/>
<path d="M64.9427 112.02C64.9427 112.02 63.5629 111.991 62.8271 112.634C62.0912 113.276 58.5344 112.775 58.6877 112.634C58.841 112.492 58.8288 111.448 58.8288 111.448C56.7423 108.6 58.5222 107.444 58.5222 107.444C58.5222 107.444 57.5901 102.96 57.4214 101.296C57.3034 100.134 57.1577 97.0115 57.0795 95.2285C57.0458 94.462 57.0259 93.9346 57.0259 93.9346L58.7307 93.5912L58.9499 93.5467L63.0616 92.7219C63.0616 92.7219 63.1751 93.4885 63.2517 94.1155C63.2899 94.3832 63.3114 94.653 63.3161 94.9234C63.2885 95.23 63.3161 96.1897 63.3161 96.1897L63.4556 99.0673C63.3645 99.3692 63.3175 99.6826 63.3161 99.9979C63.3437 100.364 63.8788 105.611 63.8788 105.611C63.8788 105.611 64.8093 108.741 64.492 108.966C64.1746 109.192 64.9427 112.02 64.9427 112.02Z" fill="#2C217D"/>
<path opacity="0.1" d="M58.1159 37.0038C58.0086 37.2767 57.9917 37.7504 58.0208 38.2809C57.1746 38.7905 56.2018 39.051 55.2141 39.0326C54.2264 39.0141 53.264 38.7175 52.4374 38.1766C52.3919 37.4232 52.3012 36.6732 52.166 35.9307C52.166 35.9307 58.4838 36.0702 58.1159 37.0038Z" fill="black" fill-opacity="0.6"/>
<path d="M60.5584 33.6156C60.5597 34.1681 60.4727 34.7172 60.3009 35.2422C59.9168 36.4187 59.1292 37.4214 58.0772 38.0733C57.0253 38.7252 55.7768 38.9842 54.5524 38.8046C53.3279 38.625 52.2064 38.0183 51.386 37.0918C50.5656 36.1653 50.0992 34.9785 50.0691 33.7414C50.0691 33.6984 50.0691 33.6586 50.0691 33.6156C50.0572 32.9193 50.1841 32.2275 50.4424 31.5806C50.7006 30.9338 51.0851 30.3449 51.5734 29.8482C52.0616 29.3515 52.6439 28.957 53.2862 28.6877C53.9285 28.4185 54.6181 28.2798 55.3146 28.2798C56.011 28.2798 56.7005 28.4185 57.3429 28.6877C57.9852 28.957 58.5675 29.3515 59.0557 29.8482C59.544 30.3449 59.9285 30.9338 60.1867 31.5806C60.445 32.2275 60.5719 32.9193 60.56 33.6156H60.5584Z" fill="#FEA94E"/>
<path opacity="0.1" d="M56.1429 45.1292C54.1192 44.3427 51.516 41.7442 52.1661 40.53C52.3104 40.2236 52.3962 39.8929 52.419 39.5549L55.1893 41.8315L56.9033 43.2374L58.2064 39.9198C58.3168 40.6158 58.4272 41.1463 58.4272 41.1463C58.4272 41.1463 58.0408 41.6874 57.8139 41.7166C57.587 41.7457 59.0465 46.2499 56.1429 45.1292Z" fill="black" fill-opacity="0.6"/>
<path d="M63.3071 55.1906L60.9937 94.0541L57.9766 94.2519L50.1641 71.7172L51.4457 44.9635L51.7155 39.311L55.1895 42.1641L56.905 43.5699L58.2464 40.1558L60.7408 42.3297L63.3071 55.1906Z" fill="#4863F5"/>
<path opacity="0.1" d="M53.3216 94.2504C53.2188 94.5045 53.1408 94.7679 53.0885 95.0369C50.8932 94.6979 48.761 94.0318 46.7631 93.0608L46.7217 93.0393L46.7355 92.7925L46.7431 92.6637L47.5097 91.2349C47.5097 91.2349 53.6895 93.3505 53.3216 94.2504Z" fill="black" fill-opacity="0.6"/>
<path opacity="0.1" d="M58.7654 95.043C58.2041 95.1385 57.6381 95.203 57.0698 95.2362C57.036 94.4697 57.0161 93.9423 57.0161 93.9423L58.7209 93.5989L58.7654 95.043Z" fill="black" fill-opacity="0.6"/>
<path opacity="0.1" d="M63.2427 94.1233C62.1527 94.4069 60.4694 94.7258 58.9624 94.5265L58.9409 93.5545L63.0526 92.7297C63.0526 92.7297 63.1661 93.4886 63.2427 94.1233Z" fill="black" fill-opacity="0.6"/>
<path opacity="0.1" d="M58.934 94.7042C52.6484 95.7773 46.8917 92.7004 46.8917 92.7004L46.9469 91.6579C46.9469 91.6579 47.0895 79.8394 46.6939 78.9334C46.2984 78.0274 45.9903 73.4327 46.2141 72.7275C46.4379 72.0223 45.397 61.4471 45.397 61.4471L45.2283 57.1545L39.0562 54.6541L41.8157 48.902C42.1884 48.0955 42.509 47.2659 42.7754 46.4184C43.2552 44.9252 45.4828 43.458 45.4828 43.458C45.4828 43.458 47.7671 41.9924 48.6701 42.0476C49.5731 42.1028 50.7566 40.7506 50.7566 40.7506C51.6304 38.523 52.4215 39.5318 52.4215 39.5318C52.4215 39.6376 52.4215 39.5318 52.3786 39.8614C52.072 42.3067 57.3365 50.0334 57.4117 50.1698L57.913 62.3823L58.4204 77.8372L58.934 94.7042Z" fill="black" fill-opacity="0.6"/>
<path d="M58.7658 94.7043C52.4802 95.7775 46.7219 92.7006 46.7219 92.7006L46.7787 91.6581C46.7787 91.6581 46.9212 79.8396 46.5242 78.9336C46.1271 78.0275 45.8205 73.4329 46.0458 72.7277C46.2712 72.0225 45.2287 61.4473 45.2287 61.4473L45.0585 57.1547L38.8833 54.645L41.6428 48.8929C42.0148 48.0861 42.3353 47.2566 42.6025 46.4094C43.0809 44.9161 45.31 43.449 45.31 43.449C45.31 43.449 47.5943 41.9834 48.4957 42.0386C49.3972 42.0937 50.5822 40.7416 50.5822 40.7416C51.4576 38.514 52.4219 39.5228 52.4219 39.5228C52.4219 39.6286 52.3299 39.6761 52.379 39.8524C53.0535 42.2241 57.1683 50.0243 57.2434 50.1608L57.7509 62.3733L58.2583 77.8282L58.7658 94.7043Z" fill="white"/>
<path opacity="0.1" d="M57.0717 50.5087C56.3956 50.2266 52.8143 46.1379 52.8143 46.1379V45.2073C52.684 44.9007 51.9098 45.0877 51.2812 45.3024L51.5511 39.6499L51.8577 39.9044C52.5292 42.2745 56.9935 50.3722 57.0717 50.5087Z" fill="black" fill-opacity="0.6"/>
<path d="M57.2422 50.1698C56.5645 49.8877 52.9833 45.799 52.9833 45.799V44.8684C52.853 44.5618 52.0788 44.7489 51.4502 44.9635L51.7215 39.311L52.0282 39.5655C52.7012 41.9357 57.167 50.0349 57.2422 50.1698Z" fill="white"/>
<path opacity="0.1" d="M46.8918 70.5613C46.9761 70.5613 51.2626 70.1106 51.2626 70.1106C51.2626 70.1106 53.8581 75.2142 53.6879 76.456C53.5178 77.6978 53.2096 78.797 52.1656 78.6023C51.1216 78.4076 46.5469 78.7556 46.5469 78.7556L46.8918 70.5613Z" fill="black" fill-opacity="0.6"/>
<path d="M46.7219 70.2225C46.8062 70.2225 51.0927 69.7717 51.0927 69.7717C51.0927 69.7717 53.6867 74.8769 53.518 76.1171C53.3494 77.3574 53.0382 78.4581 51.9957 78.2634C50.9532 78.0687 46.377 78.4167 46.377 78.4167L46.7219 70.2225Z" fill="white"/>
<path d="M49.952 67.8264C49.952 67.8264 53.8859 69.9405 53.9702 70.586C54.0545 71.2314 51.968 70.3039 51.5173 70.192C51.2206 70.1205 50.9186 70.0733 50.6143 70.0509L47.6079 70.1322L49.952 67.8264Z" fill="#FEA94E"/>
<path opacity="0.1" d="M55.974 50.7724C56.2026 50.7724 56.3879 50.5871 56.3879 50.3585C56.3879 50.1299 56.2026 49.9446 55.974 49.9446C55.7454 49.9446 55.5601 50.1299 55.5601 50.3585C55.5601 50.5871 55.7454 50.7724 55.974 50.7724Z" fill="black" fill-opacity="0.6"/>
<path d="M55.974 50.6037C56.2026 50.6037 56.3879 50.4184 56.3879 50.1898C56.3879 49.9612 56.2026 49.7759 55.974 49.7759C55.7454 49.7759 55.5601 49.9612 55.5601 50.1898C55.5601 50.4184 55.7454 50.6037 55.974 50.6037Z" fill="#232735"/>
<path opacity="0.1" d="M56.7357 68.6909C56.9643 68.6909 57.1496 68.5056 57.1496 68.277C57.1496 68.0484 56.9643 67.863 56.7357 67.863C56.5071 67.863 56.3218 68.0484 56.3218 68.277C56.3218 68.5056 56.5071 68.6909 56.7357 68.6909Z" fill="black" fill-opacity="0.6"/>
<path d="M56.7357 68.5207C56.9643 68.5207 57.1496 68.3354 57.1496 68.1068C57.1496 67.8782 56.9643 67.6929 56.7357 67.6929C56.5071 67.6929 56.3218 67.8782 56.3218 68.1068C56.3218 68.3354 56.5071 68.5207 56.7357 68.5207Z" fill="#232735"/>
<path opacity="0.1" d="M56.3866 59.7317C56.6152 59.7317 56.8005 59.5463 56.8005 59.3177C56.8005 59.0891 56.6152 58.9038 56.3866 58.9038C56.158 58.9038 55.9727 59.0891 55.9727 59.3177C55.9727 59.5463 56.158 59.7317 56.3866 59.7317Z" fill="black" fill-opacity="0.6"/>
<path d="M56.3866 59.563C56.6152 59.563 56.8005 59.3776 56.8005 59.149C56.8005 58.9204 56.6152 58.7351 56.3866 58.7351C56.158 58.7351 55.9727 58.9204 55.9727 59.149C55.9727 59.3776 56.158 59.563 56.3866 59.563Z" fill="#232735"/>
<path d="M65.9282 69.965C65.9282 69.965 66.2103 70.3881 65.9282 70.5859C65.6461 70.7837 65.9558 71.262 65.9558 71.262C65.9558 71.262 65.2521 71.6744 65.5618 72.0454C65.8715 72.4164 65.6753 74.092 65.6753 74.092L64.829 75.4933C64.829 75.4933 64.8796 76.3963 64.8827 77.6166C64.8827 79.5207 64.7708 82.1974 64.1514 83.4177L64.2372 93.4303C64.2372 93.4303 61.2738 94.5126 58.7933 94.183L58.4254 78.1164C58.4254 78.1164 58.9619 69.0053 59.1597 67.2576C59.2754 66.3503 59.3226 65.4355 59.3007 64.521C59.3007 64.521 59.2164 61.786 58.9328 60.5167C58.9328 60.5167 58.6262 55.0175 58.5955 53.4952C58.5817 52.767 58.6201 50.6421 58.663 48.6215C58.7105 46.4124 58.7642 44.3289 58.7642 44.3289L58.2046 39.9014C58.2046 39.9014 58.7642 39.8447 58.9328 40.07C59.0083 40.1406 59.0905 40.2037 59.1781 40.2586V40.2586C60.1439 40.9117 63.5566 42.92 63.5566 42.92C63.5566 42.92 65.4453 43.6712 65.8976 44.7474C66.3498 45.8237 66.6641 46.5871 66.8833 46.8937C67.1026 47.2004 67.2221 48.6414 67.2221 48.6414C67.2221 48.6414 67.8722 51.2937 68.3796 51.7429C68.8871 52.1921 69.2581 55.0497 69.2581 55.0497L64.7738 58.5758C64.7738 58.5758 64.3798 64.4413 64.2955 64.6682C64.2112 64.8951 65.9282 69.965 65.9282 69.965Z" fill="white"/>
<path d="M66.0989 69.965C66.0989 69.965 66.3794 70.3881 66.0989 70.5859C65.8183 70.7837 66.1249 71.262 66.1249 71.262C66.1249 71.262 65.4259 71.679 65.7325 72.05C66.0391 72.421 65.8459 74.0966 65.8459 74.0966L64.9997 75.4979C64.9997 75.4979 65.0502 76.4009 65.0548 77.6212C65.0548 79.5253 64.9429 82.202 64.3236 83.4224L64.4079 93.4349C64.4079 93.4349 61.4399 94.5172 58.9624 94.1876L58.596 78.121C58.596 78.121 59.1326 69.0099 59.3303 67.2622C59.4462 66.3549 59.4928 65.44 59.4699 64.5256C59.4699 64.5256 59.3855 61.7906 59.1035 60.5213C59.1035 60.5213 58.7968 55.0221 58.7646 53.4998C58.7508 52.7716 58.7907 50.6467 58.8321 48.6261C58.8796 46.417 58.9333 44.3335 58.9333 44.3335L58.1943 39.8462C58.1943 39.8462 58.9333 39.8462 59.1035 40.0746C59.1783 40.146 59.2605 40.2092 59.3487 40.2632C60.3146 40.9163 63.7287 42.9246 63.7287 42.9246C63.7287 42.9246 65.616 43.6758 66.0682 44.752C66.5205 45.8283 66.8347 46.5917 67.0555 46.8983C67.2763 47.205 67.3928 48.646 67.3928 48.646C67.3928 48.646 68.0428 51.2983 68.5503 51.7475C69.0577 52.1967 69.4241 55.0482 69.4241 55.0482L64.9399 58.5743C64.9399 58.5743 64.5459 64.4398 64.46 64.6667C64.3742 64.8936 66.0989 69.965 66.0989 69.965Z" fill="white"/>
<path opacity="0.1" d="M60.7283 45.635L61.133 46.8155L59.002 48.9618C59.0495 46.7542 59.1032 44.6692 59.1032 44.6692L58.3643 40.1819C58.3643 40.1819 59.1032 40.1819 59.2734 40.4103C59.348 40.4815 59.4303 40.5442 59.5187 40.5973L61.3308 45.8251L60.7283 45.635Z" fill="black" fill-opacity="0.6"/>
<path d="M60.5583 45.2962L60.9646 46.4766L58.8336 48.6229C58.8812 46.4138 58.9348 44.3303 58.9348 44.3303L58.1943 39.843C58.1943 39.843 58.9348 39.843 59.1035 40.0714C59.1786 40.1424 59.2608 40.2056 59.3487 40.26L61.1624 45.4863L60.5583 45.2962Z" fill="white"/>
<path opacity="0.1" d="M60.5584 33.6156C60.5597 34.1681 60.4727 34.7172 60.3009 35.2422C60.2719 35.2468 60.2423 35.2454 60.2139 35.2383C60.1855 35.2312 60.1587 35.2185 60.1353 35.2009C60.0954 33.8211 59.4163 32.5256 58.5808 31.4234C58.3462 31.0905 58.0618 30.7958 57.7376 30.5495C57.4098 30.3033 57.0021 30.188 56.5939 30.226C56.134 30.2889 55.7277 30.6016 55.2632 30.6415C54.65 30.6921 54.1011 30.2674 53.4925 30.2459C53.2451 30.2483 53.001 30.3034 52.7765 30.4076C52.5521 30.5117 52.3524 30.6625 52.1909 30.85C51.8712 31.2282 51.6336 31.6689 51.4934 32.1439C51.2523 32.8642 51.121 33.6167 51.104 34.3761C51.0963 34.8053 51.0549 35.3434 50.6563 35.4998C50.6863 35.1841 50.6504 34.8656 50.5509 34.5645C50.4514 34.2634 50.2905 33.9862 50.0783 33.7506L50.0691 33.7414C50.0691 33.6984 50.0691 33.6586 50.0691 33.6156C50.0572 32.9193 50.1841 32.2275 50.4424 31.5807C50.7006 30.9338 51.0851 30.3449 51.5734 29.8482C52.0616 29.3515 52.6439 28.957 53.2862 28.6878C53.9285 28.4185 54.6181 28.2798 55.3146 28.2798C56.011 28.2798 56.7005 28.4185 57.3429 28.6878C57.9852 28.957 58.5675 29.3515 59.0557 29.8482C59.544 30.3449 59.9285 30.9338 60.1867 31.5807C60.445 32.2275 60.5719 32.9193 60.56 33.6156H60.5584Z" fill="black" fill-opacity="0.6"/>
<path d="M57.4861 25.2867C56.6895 24.9119 55.7834 24.841 54.9381 25.0874C54.5135 25.2131 54.1133 25.417 53.6825 25.5197C52.7627 25.742 51.6895 25.5013 50.9 26.0394C50.4616 26.346 50.1979 26.8305 49.9526 27.3011L49.3393 28.4693C49.0051 29.1086 48.6679 29.7586 48.5283 30.4623C48.3888 31.166 48.4732 31.954 48.9193 32.5197C49.2443 32.9321 49.7241 33.1912 50.0768 33.5791C50.288 33.815 50.4482 34.092 50.5474 34.3927C50.6466 34.6935 50.6826 35.0115 50.6532 35.3268C51.0533 35.1735 51.0916 34.6338 51.1008 34.2046C51.1179 33.4452 51.2492 32.6927 51.4902 31.9724C51.6302 31.4972 51.8678 31.0565 52.1878 30.6785C52.3495 30.4912 52.5491 30.3405 52.7735 30.2363C52.998 30.1322 53.242 30.077 53.4894 30.0745C54.1026 30.0959 54.653 30.519 55.2601 30.4685C55.72 30.4301 56.1278 30.1159 56.5908 30.0545C56.999 30.0159 57.4069 30.1313 57.7345 30.378C58.0586 30.6239 58.3425 30.9187 58.5761 31.2519C59.4132 32.3541 60.0923 33.6465 60.1322 35.0294C60.3054 35.1566 60.5553 34.991 60.6412 34.7948C60.727 34.5986 60.7301 34.3686 60.8389 34.1816C60.9647 33.9654 61.2054 33.8504 61.3939 33.6879C61.8722 33.2755 61.9918 32.581 61.9734 31.9509C61.955 31.3208 61.8324 30.6816 61.952 30.0622C62.024 29.682 62.1865 29.3263 62.2754 28.9507C62.3644 28.5751 62.3751 28.1535 62.1651 27.83C61.8584 27.3548 61.213 27.2613 60.6504 27.2168C60.0111 27.1616 59.4392 27.2321 59.0314 26.694C58.84 26.4132 58.6246 26.1496 58.3876 25.906C58.3063 25.8263 57.4861 25.3204 57.4861 25.2867Z" fill="#232735"/>
<path opacity="0.1" d="M40.8229 57.616L39.2208 54.6541L38.7134 59.2242C38.7134 59.2242 38.9955 61.2539 38.9387 61.5652C38.882 61.8764 40.0947 64.6666 40.0947 64.6666C40.0947 64.6666 44.1006 71.8015 45.7364 72.1695L51.2631 68.2202L49.7975 66.3591C49.7975 66.3591 49.2901 66.1613 49.1628 66.3591C49.1628 66.3591 46.4416 61.6771 46.1595 61.3383C45.8774 60.9995 45.9326 60.3234 45.9326 60.3234C45.9326 60.3234 45.5095 59.8726 45.6505 59.4495C45.7916 59.0264 44.8334 57.5592 44.8334 57.5592L45.7073 56.7421L40.8229 57.616Z" fill="black" fill-opacity="0.6"/>
<path d="M39.3056 54.3169L38.8824 54.6542L38.375 59.2243C38.375 59.2243 38.6571 61.2541 38.6004 61.5653C38.5436 61.8765 39.7578 64.6667 39.7578 64.6667C39.7578 64.6667 43.7622 71.8016 45.398 72.1696L50.9263 68.2204L49.4592 66.3592C49.4592 66.3592 48.9517 66.1614 48.8245 66.3592C48.8245 66.3592 46.1033 61.6772 45.8212 61.3384C45.5391 60.9996 45.5958 60.3235 45.5958 60.3235C45.5958 60.3235 45.1727 59.8728 45.3137 59.4496C45.4548 59.0265 44.4951 57.5594 44.4951 57.5594L45.3689 56.7422L39.3056 54.3169Z" fill="white"/>
<path opacity="0.1" d="M65.5622 72.2202C65.8688 72.5927 65.6756 74.2653 65.6756 74.2653L64.8294 75.6665C64.8294 75.6665 64.88 76.571 64.883 77.7898L63.4603 78.2344C63.3317 78.2746 63.1954 78.2834 63.0628 78.2602C62.9301 78.2369 62.8049 78.1823 62.6976 78.1008C62.5903 78.0194 62.5041 77.9134 62.4461 77.7918C62.3881 77.6703 62.36 77.5366 62.3642 77.402L62.6095 69.4897L65.9286 70.7591C65.6465 70.9554 65.9562 71.4368 65.9562 71.4368C65.9562 71.4368 65.2525 71.8476 65.5622 72.2202Z" fill="black" fill-opacity="0.6"/>
<path d="M65.7321 72.0499C66.0388 72.4225 65.8456 74.0966 65.8456 74.0966L64.9993 75.4978C64.9993 75.4978 65.0499 76.4008 65.0545 77.6211L63.6058 78.0734C63.4798 78.1125 63.3464 78.121 63.2165 78.0982C63.0867 78.0753 62.9641 78.0217 62.8592 77.9419C62.7542 77.8622 62.6698 77.7584 62.613 77.6394C62.5562 77.5204 62.5286 77.3896 62.5326 77.2578L62.7794 69.321L66.1001 70.5904C65.8165 70.7867 66.1261 71.2665 66.1261 71.2665C66.1261 71.2665 65.4255 71.6789 65.7321 72.0499Z" fill="white"/>
<path d="M66.8311 68.2787C66.8311 68.2787 66.6057 69.7182 66.0415 69.8025C65.4774 69.8869 65.2244 72.1313 64.6618 72.0516C64.0991 71.9718 64.4717 69.965 64.4916 69.5756C64.5115 69.1862 63.8784 67.5734 64.3521 67.207C64.8258 66.8406 66.3252 67.207 66.3252 67.207L66.8311 68.2787Z" fill="#FEA94E"/>
<path opacity="0.1" d="M68.0322 57.1929L69.0961 55.0466C69.0961 55.0466 69.5193 56.6824 69.5193 57.5563C69.5193 58.4301 70.111 58.516 70.111 58.516C70.111 58.516 70.7595 59.2825 70.4176 59.8406C70.0758 60.3986 69.9378 61.7876 69.9378 61.7876C69.9378 61.7876 70.0497 64.4383 69.5423 64.8047C69.0348 65.1711 68.929 66.0465 68.929 66.0465C68.929 66.0465 67.9969 67.7098 68.026 68.1054C68.0552 68.5009 66.7291 71.1792 66.7291 71.1792C66.7291 71.1792 67.3775 67.8509 63.5985 66.4129C63.5985 66.4129 63.5694 65.283 63.8515 64.9733C64.1336 64.6636 64.5736 64.5226 64.2976 62.9573C64.0216 61.392 64.2179 59.5217 64.2179 59.1461C64.2179 58.7705 65.0641 56.4279 65.0641 56.4279L68.0322 57.1929Z" fill="black" fill-opacity="0.6"/>
<path d="M68.4914 54.74L69.4204 55.0466C69.4204 55.0466 69.8451 56.6824 69.8451 57.5563C69.8451 58.4301 70.4369 58.516 70.4369 58.516C70.4369 58.516 71.0853 59.2825 70.7435 59.8405C70.4016 60.3986 70.2652 61.7875 70.2652 61.7875C70.2652 61.7875 70.3771 64.4382 69.8696 64.8046C69.3622 65.171 69.2487 66.0464 69.2487 66.0464C69.2487 66.0464 68.3181 67.7098 68.3473 68.1053C68.3764 68.5009 67.0488 71.1792 67.0488 71.1792C67.0488 71.1792 67.6988 67.8509 63.9182 66.4128C63.9182 66.4128 63.8906 65.283 64.1727 64.9733C64.4548 64.6636 64.8948 64.5226 64.6188 62.9573C64.3429 61.392 64.5391 59.5217 64.5391 59.1461C64.5391 58.7704 65.3854 56.4279 65.3854 56.4279L68.4914 54.74Z" fill="white"/>
<path opacity="0.1" d="M47.9717 110.371C47.9717 110.371 49.4526 109.44 50.4246 110.116C51.3966 110.792 47.9717 110.371 47.9717 110.371Z" fill="black" fill-opacity="0.6"/>
<path opacity="0.1" d="M59.4785 107.493C59.4785 107.493 60.7893 107.325 61.89 108.51C62.9908 109.695 59.4785 107.493 59.4785 107.493Z" fill="black" fill-opacity="0.6"/>
<g opacity="0.1">
<path opacity="0.1" d="M61.3968 33.352C61.2083 33.5145 60.966 33.6311 60.8403 33.8472C60.733 34.0327 60.73 34.2611 60.6441 34.4604C60.5583 34.6597 60.3084 34.8223 60.1351 34.6965C60.0953 33.3168 59.4146 32.0213 58.579 30.9175C58.3454 30.5844 58.0615 30.2896 57.7374 30.0437C57.4093 29.797 57.0009 29.6816 56.5922 29.7202C56.1323 29.783 55.7275 30.0958 55.263 30.1341C54.6498 30.1862 54.0994 29.7616 53.4908 29.7401C53.2434 29.7426 52.9995 29.7979 52.7753 29.9023C52.551 30.0068 52.3518 30.1579 52.1907 30.3457C51.8707 30.7232 51.6331 31.1634 51.4932 31.6381C51.2523 32.3584 51.121 33.1109 51.1038 33.8702C51.0946 34.2979 51.0547 34.8314 50.6592 34.9909C50.6684 35.1041 50.6684 35.218 50.6592 35.3312C51.0578 35.1779 51.0976 34.6383 51.1068 34.209C51.1239 33.4496 51.2552 32.6972 51.4962 31.9769C51.6362 31.5017 51.8737 31.061 52.1938 30.683C52.3552 30.4957 52.5546 30.345 52.7787 30.2408C53.0029 30.1367 53.2467 30.0815 53.4938 30.0789C54.1071 30.1004 54.659 30.5235 55.2661 30.4729C55.726 30.4346 56.1338 30.1203 56.5952 30.059C57.0039 30.0204 57.4123 30.1358 57.7405 30.3825C58.0646 30.6284 58.3485 30.9232 58.5821 31.2563C59.4176 32.3586 60.0983 33.651 60.1382 35.0338C60.3114 35.1611 60.5613 34.9955 60.6472 34.7993C60.733 34.603 60.7361 34.3731 60.8434 34.186C60.9691 33.9699 61.2113 33.8549 61.3999 33.6924C61.8782 33.28 61.9978 32.5855 61.9794 31.9554C61.9794 31.9355 61.9794 31.9155 61.9794 31.8971C61.9503 32.4429 61.8046 32.9994 61.3968 33.352Z" fill="black" fill-opacity="0.6"/>
<path opacity="0.1" d="M50.0794 33.2431C49.7268 32.8552 49.2454 32.5961 48.9219 32.1853C48.6495 31.8216 48.494 31.3837 48.4758 30.9297C48.4275 31.4971 48.586 32.0628 48.9219 32.5226C49.2454 32.9349 49.7268 33.194 50.0794 33.5819C50.4179 33.9613 50.6212 34.4422 50.6574 34.9494C50.6808 34.6407 50.6417 34.3305 50.5424 34.0373C50.4431 33.7441 50.2856 33.474 50.0794 33.2431V33.2431Z" fill="black" fill-opacity="0.6"/>
<path opacity="0.1" d="M62.2783 28.6148C62.1878 28.9904 62.0268 29.3476 61.9532 29.7263C61.9097 29.9793 61.8937 30.2364 61.9057 30.4928C61.9109 30.3467 61.9267 30.2012 61.9532 30.0575C62.0268 29.6772 62.1878 29.3216 62.2783 28.946C62.331 28.7388 62.3481 28.5242 62.3289 28.3113C62.3193 28.4135 62.3024 28.515 62.2783 28.6148V28.6148Z" fill="black" fill-opacity="0.6"/>
</g>
<path opacity="0.1" d="M20.3484 116.604C28.5986 116.604 35.2867 115.53 35.2867 114.205C35.2867 112.88 28.5986 111.806 20.3484 111.806C12.0983 111.806 5.41016 112.88 5.41016 114.205C5.41016 115.53 12.0983 116.604 20.3484 116.604Z" fill="#C2CAE7"/>
<path d="M20.8299 68.2434H19.8687V89.8858H20.8299V68.2434Z" fill="#4863F5"/>
<path d="M26.8706 89.8198L26.8108 90.7948L26.725 92.1746L26.6897 92.7479L26.6054 94.1277L26.5686 94.7011L26.4828 96.0808L25.5138 111.729C25.4717 112.402 25.1747 113.034 24.6831 113.496C24.1915 113.958 23.5423 114.215 22.8678 114.216H17.8301C17.1556 114.215 16.5067 113.958 16.0153 113.496C15.524 113.034 15.2272 112.402 15.1855 111.729L14.2212 96.0701L14.1354 94.6903L14.1001 94.117L14.0142 92.7372L13.979 92.1638L13.8931 90.7841L13.8318 89.809C13.8212 89.6214 13.849 89.4335 13.9135 89.257C13.9781 89.0804 14.078 88.919 14.2072 88.7824C14.3364 88.6459 14.4921 88.5372 14.6649 88.4631C14.8376 88.3889 15.0236 88.3508 15.2116 88.3511H25.5154C25.7026 88.3527 25.8876 88.3927 26.0588 88.4685C26.23 88.5444 26.3838 88.6545 26.5108 88.7921C26.6378 88.9298 26.7353 89.092 26.7971 89.2687C26.859 89.4454 26.884 89.633 26.8706 89.8198V89.8198Z" fill="#2B1B7A"/>
<path d="M26.8105 90.7949L26.7247 92.1701H13.9726L13.8867 90.7949H26.8105Z" fill="#C2CAE7"/>
<path d="M26.6894 92.7434L26.6051 94.1201H14.0937L14.0078 92.7434H26.6894Z" fill="#C2CAE7"/>
<path d="M26.5683 94.6951L26.484 96.0702H14.2148L14.1289 94.6951H26.5683Z" fill="#C2CAE7"/>
<path d="M12.4194 76.3548C18.0166 80.4052 20.3531 86.7399 20.3531 86.7399C20.3531 86.7399 13.6075 86.5084 8.00873 82.458C2.40993 78.4076 0.078125 72.0745 0.078125 72.0745C0.078125 72.0745 6.82059 72.3044 12.4194 76.3548Z" fill="#4863F5"/>
<path d="M16.0329 68.1957C19.0791 70.3988 20.3531 73.8466 20.3531 73.8466C20.3531 73.8466 16.6814 73.7209 13.6336 71.5179C10.5859 69.3149 9.31494 65.8655 9.31494 65.8655C9.31494 65.8655 12.9851 65.9912 16.0329 68.1957Z" fill="#4863F5"/>
<path d="M24.7761 73.6719C21.2761 77.5184 20.5356 82.5454 20.5356 82.5454C20.5356 82.5454 25.4706 81.3342 28.9676 77.4862C32.4645 73.6382 33.2081 68.6128 33.2081 68.6128C33.2081 68.6128 28.2761 69.8255 24.7761 73.6719Z" fill="#4863F5"/>
<path d="M153.257 72.3182C153.257 72.3182 150.726 59.7255 151.695 58.1587C151.695 58.1587 151.73 56.7023 151.672 54.8458C151.672 54.7752 151.672 54.7047 151.672 54.6327C151.842 54.7463 152.02 54.8487 152.204 54.9393C153.096 55.3979 154.121 55.5302 155.101 55.3133L154.335 54.4594C154.151 54.2555 153.959 54.0348 153.919 53.7649C153.879 53.4951 153.99 53.2544 154.085 53.0137C154.813 51.174 154.851 48.8606 153.449 47.4563C152.264 46.2759 151.975 44.752 150.689 43.6742C149.749 42.8847 149.233 41.7272 148.745 40.6081C148.333 39.6622 147.917 38.7086 147.681 37.706C147.497 36.9226 147.424 36.1116 147.171 35.3466C146.918 34.5816 146.444 33.838 145.704 33.4961C145.44 33.375 145.147 33.306 144.906 33.1451C144.591 32.932 144.4 32.5855 144.172 32.2819C143.011 30.7489 139.125 31.6518 137.285 32.2743C136.785 32.431 136.322 32.6876 135.924 33.0286L135.941 33.001C135.955 32.978 135.972 32.955 135.987 32.932C135.786 33.0948 135.612 33.2889 135.472 33.5069C135.203 33.9315 135.092 34.4267 134.868 34.8866C134.598 35.4309 133.097 36.9502 133.742 37.5619C133.788 37.6029 133.84 37.6361 133.896 37.66C134.138 37.7608 134.405 37.7875 134.662 37.7366L134.635 37.8025C134.414 38.3422 134.301 38.9198 134.302 39.5027C134.302 42.0216 136.379 44.0636 138.944 44.0636C139.426 44.0641 139.906 43.9902 140.365 43.8444C140.376 43.9027 140.385 43.9609 140.396 44.0192C140.396 44.0422 140.404 44.0652 140.407 44.0882L140.325 44.2016C140.321 44.1946 140.317 44.1879 140.312 44.1817L137.905 47.5452C137.537 47.8043 135.418 49.3374 135.299 50.4872C135.173 51.7459 135.047 53.2192 135.047 53.2192L135.03 53.535C134.925 53.6229 134.802 53.6869 134.67 53.7226C134.537 53.7584 134.399 53.7649 134.264 53.7419C133.513 53.6193 133.513 56.5015 133.513 56.5015C133.513 56.5015 133.013 56.9614 132.669 56.5628C132.326 56.1642 131.418 57.5148 131.418 57.5148L125.731 57.7601L125.6 57.7678L125.294 56.8188C125.261 56.7187 125.19 56.6357 125.096 56.5878C125.002 56.5398 124.893 56.5308 124.792 56.5628C124.769 56.5706 124.746 56.5804 124.723 56.5919L124.702 56.6042L124.662 56.6318L124.642 56.6502C124.631 56.6602 124.621 56.6709 124.611 56.6824L124.593 56.7038L124.584 56.713C124.548 56.762 124.525 56.8185 124.515 56.8782C124.506 56.9378 124.51 56.9989 124.529 57.0564L124.792 57.8705C123.695 58.0913 122.572 58.7137 123.488 60.4277L118.849 59.5707L120.35 60.8309L128.098 62.4299C127.995 62.6138 128.062 62.8806 128.383 63.2562C129.763 64.8767 132.277 65.3167 133.289 65.4301C133.556 66.0278 133.89 66.5936 134.284 67.1165L134.196 68.7308C134.196 68.7308 131.634 81.0353 131.165 81.6593C131.402 81.3909 131.619 81.1055 131.814 80.8053C131.07 83.3334 130.031 86.7935 129.758 87.3117C129.32 88.1396 128.913 91.4893 129.413 91.704C129.566 91.7699 130.005 91.7377 130.63 91.6902V91.9677L130.603 102.483C130.603 102.483 130.728 108.933 130.384 109.547C130.039 110.162 129.947 111.452 129.947 111.452C129.947 111.452 128.567 113.995 127.474 115.017C127.466 115.025 127.458 115.033 127.449 115.039L127.415 114.8C127.415 114.8 126.102 116.459 123.195 116.365C123.195 116.365 121.446 117.503 124.04 117.564C126.634 117.625 129.947 117.472 129.947 117.472C129.947 117.472 132.26 113.946 134.198 114.406V117.078H134.791V114.363C135.066 114.182 135.302 113.947 135.483 113.672C135.665 113.397 135.789 113.088 135.847 112.764C135.898 112.43 135.861 112.088 135.739 111.773C135.618 111.457 135.416 111.179 135.154 110.966C135.037 110.859 134.942 110.73 134.877 110.585C134.812 110.44 134.778 110.284 134.776 110.125L134.754 110.144C134.754 110.09 134.741 110.035 134.734 109.978C134.564 108.598 134.351 105.752 135.104 103.645C136.136 100.757 136.448 96.734 135.697 94.3393C135.455 93.5739 135.256 92.7954 135.101 92.0075C135.082 91.9079 135.066 91.8128 135.05 91.7239C135.564 91.7934 136.072 91.8958 136.573 92.0305C138.313 92.5104 142.119 92.5993 145.369 92.5732C145.377 92.6621 145.386 92.7557 145.397 92.8492C145.455 93.4992 145.576 94.142 145.759 94.7686C146.167 95.995 146.354 101.402 146.354 101.402C146.354 101.402 146.879 105.848 146.593 107.657C146.439 108.663 146.286 109.673 146.199 110.688V110.708C146.199 110.708 145.337 113.161 144.707 114.493C144.692 114.527 144.675 114.561 144.66 114.593C144.492 114.608 144.326 114.645 144.167 114.702C144.167 114.702 143.323 116.388 142.481 116.667C141.639 116.946 141.918 117.864 143.824 117.527C145.73 117.19 148.607 116.914 148.607 116.914L148.731 115.194L149.317 114.461L149.164 116.176L149.788 116.054L149.705 113.967L150.663 112.768C150.663 112.768 151.82 111.738 150.1 109.711V109.756C150.082 109.727 150.065 109.696 150.045 109.667V109.658C149.76 109.216 149.533 108.393 149.949 106.932C150.7 104.292 151.137 101.896 151.137 101.896C151.137 101.896 152.814 95.4769 150.798 92.4398H150.887C150.68 92.0125 150.534 91.5584 150.453 91.0907C150.443 91.0355 150.434 90.9788 150.425 90.9206C151.917 90.8347 153.381 90.5649 154.575 89.9823C154.571 89.9762 153.852 74.7435 153.257 72.3182ZM134.319 61.694V61.7247L134.012 61.74L134.319 61.694ZM133.267 61.8396C133.217 61.8508 133.17 61.8734 133.129 61.9056C132.997 62.0921 132.915 62.3088 132.889 62.5357L132.41 62.4283C132.41 62.4283 132.074 62.3563 131.592 62.275L131.363 62.0451C131.992 61.993 132.645 61.9163 133.267 61.8396V61.8396Z" fill="#FAFAFC"/>
<path d="M149.093 113.989L148.911 116.161L149.522 116.038L149.43 113.682L149.093 113.989Z" fill="#232735"/>
<path d="M135.138 103.674C134.4 105.775 134.609 108.609 134.774 109.986C134.836 110.495 134.893 110.805 134.893 110.805C134.893 110.805 133.79 113.316 133.698 113.411C133.606 113.506 130.454 115.43 130.454 115.43L128.251 116.716C128.251 116.716 126.016 115.737 127.088 115.399C127.307 115.311 127.504 115.177 127.666 115.005C128.739 113.986 130.086 111.452 130.086 111.452C130.086 111.452 130.178 110.165 130.516 109.554C130.853 108.942 130.73 102.514 130.73 102.514L130.756 92.0352V90.6692L134.949 90.6999C134.976 91.1636 135.036 91.6247 135.13 92.0796C135.281 92.8648 135.476 93.6407 135.714 94.4038C136.453 96.7938 136.147 100.797 135.138 103.674Z" fill="#2C217D"/>
<path opacity="0.1" d="M134.893 110.805C134.893 110.805 133.79 113.316 133.698 113.411C133.606 113.506 130.454 115.43 130.454 115.43L128.251 116.716C128.251 116.716 126.016 115.737 127.088 115.399C127.307 115.311 127.504 115.177 127.666 115.005L127.761 115.675L128.495 115.645L134.781 109.989C134.836 110.495 134.893 110.805 134.893 110.805Z" fill="black" fill-opacity="0.6"/>
<path d="M134.815 110.132L128.494 115.825L127.76 115.856L127.607 114.783C127.607 114.783 126.322 116.436 123.467 116.344C123.467 116.344 121.753 117.477 124.294 117.538C126.834 117.599 130.078 117.446 130.078 117.446C130.078 117.446 132.344 113.92 134.24 114.38V117.043H134.823V114.355C135.094 114.173 135.325 113.938 135.502 113.664C135.68 113.39 135.8 113.083 135.856 112.761C135.907 112.429 135.871 112.091 135.752 111.777C135.634 111.463 135.437 111.186 135.18 110.97C135.065 110.863 134.974 110.733 134.911 110.589C134.848 110.444 134.816 110.289 134.815 110.132V110.132Z" fill="#FF3C88"/>
<path d="M149.675 106.949C149.268 108.405 149.49 109.225 149.769 109.665V109.675C150.127 110.218 150.376 110.826 150.502 111.464L150.526 111.602L147.65 115.795L146.09 116.408C146.09 116.408 143.58 115.551 144.038 115.306C144.153 115.246 144.333 114.927 144.538 114.487C145.151 113.161 145.998 110.714 145.998 110.714V110.694C146.087 109.684 146.228 108.677 146.384 107.674C146.665 105.87 146.149 101.441 146.149 101.441C146.149 101.441 145.965 96.0548 145.567 94.8299C145.387 94.2071 145.267 93.5684 145.21 92.9227C145.127 92.1562 145.108 91.5246 145.108 91.5246C145.108 91.5246 146.761 89.225 149.79 91.7085C150.033 91.9066 150.246 92.1378 150.424 92.3954C152.516 95.3726 150.831 101.931 150.831 101.931C150.831 101.931 150.41 104.317 149.675 106.949Z" fill="#2C217D"/>
<path opacity="0.1" d="M150.531 111.602L147.655 115.795L146.094 116.408C146.094 116.408 143.585 115.551 144.043 115.306C144.158 115.246 144.338 114.927 144.543 114.487C145.605 114.478 146.156 115.49 146.156 115.49L147.502 115.275C147.502 115.275 149.277 111.786 149.676 111.573C150.074 111.36 149.737 109.98 149.737 109.98V109.629C149.748 109.641 149.757 109.655 149.769 109.667V109.676C150.127 110.219 150.376 110.827 150.502 111.465L150.531 111.602Z" fill="black" fill-opacity="0.6"/>
<path d="M146.248 115.58C146.248 115.58 145.481 114.173 144.013 114.693C144.013 114.693 143.186 116.379 142.36 116.652C141.534 116.925 141.81 117.845 143.677 117.509C145.544 117.173 148.359 116.896 148.359 116.896L148.482 115.18L150.38 112.762C150.38 112.762 151.511 111.737 149.828 109.718V110.069C149.828 110.069 150.165 111.449 149.766 111.662C149.368 111.875 147.599 115.366 147.599 115.366L146.248 115.58Z" fill="#FF3C88"/>
<path opacity="0.1" d="M134.954 90.6967C134.98 91.1604 135.041 91.6216 135.135 92.0764C133.409 91.8235 131.807 91.9492 130.756 92.032V90.666L134.954 90.6967Z" fill="black" fill-opacity="0.6"/>
<path opacity="0.1" d="M150.594 92.7772C150.594 92.7772 148.141 92.8968 145.216 92.9213C145.133 92.1547 145.115 91.5231 145.115 91.5231C145.115 91.5231 146.767 89.2235 149.797 91.7071C150.039 91.9052 150.252 92.1364 150.43 92.3939C150.477 92.5246 150.532 92.6526 150.594 92.7772V92.7772Z" fill="black" fill-opacity="0.6"/>
<path d="M150.594 92.5011C150.594 92.5011 139.851 93.0209 136.576 92.1025C133.301 91.1842 130.056 91.9799 129.567 91.7668C129.078 91.5537 129.475 88.2162 129.904 87.3899C130.333 86.5635 132.688 78.2067 132.688 78.2067L134.954 66.3928L137.341 65.7351L137.51 65.6876L141.669 64.5409L144.717 63.6992C144.717 63.6992 150.777 87.3592 150.257 89.1038C150.068 89.7719 150.038 90.4747 150.168 91.1566C150.248 91.6223 150.391 92.0748 150.594 92.5011V92.5011Z" fill="#4863F5"/>
<path d="M127.055 58.3137C127.055 58.3137 124.909 60.6133 126.534 61.895C128.159 63.1766 129.228 62.0176 129.228 62.0176L127.055 58.3137Z" fill="#EEF3FB"/>
<path opacity="0.1" d="M127.055 58.3137C127.055 58.3137 124.909 60.6133 126.534 61.895C128.159 63.1766 129.228 62.0176 129.228 62.0176L127.055 58.3137Z" fill="black" fill-opacity="0.6"/>
<path d="M144.396 43.1944C144.396 43.1944 144.144 43.4336 143.766 43.7862C143.226 44.2905 142.427 45.028 141.719 45.6458C140.738 46.4997 139.928 47.1267 140.218 46.5917C140.508 46.0567 140.453 45.1245 140.309 44.2522C140.298 44.194 140.289 44.1357 140.278 44.079C140.159 43.4383 140 42.8055 139.804 42.1841C139.804 42.1841 141.389 40.1359 142.266 39.328C142.593 39.0214 142.821 38.8957 142.835 39.1088C142.85 39.3954 143.065 40.0286 143.332 40.7001C143.339 40.7215 143.347 40.7415 143.356 40.7629C143.534 41.2229 143.735 41.6951 143.911 42.1029C144.181 42.7283 144.396 43.1944 144.396 43.1944Z" fill="#FEA94E"/>
<path opacity="0.1" d="M143.356 40.7628C143.207 41.5641 142.846 42.3106 142.31 42.9244C141.774 43.5382 141.083 43.9968 140.309 44.2521C140.187 43.5523 140.018 42.8614 139.804 42.184C139.804 42.184 142.789 38.3283 142.835 39.1087C142.846 39.4045 143.079 40.0607 143.356 40.7628Z" fill="black" fill-opacity="0.6"/>
<path opacity="0.1" d="M140.011 45.2825L140.398 44.7383C140.398 44.7383 140.654 46.299 141.595 45.6106C142.536 44.9223 142.582 50.7909 142.582 50.7909L141.572 65.8963L134.271 65.4593L134.478 58.1604L135.305 54.481L137.348 49.1321L138.564 47.3644L140.011 45.2825Z" fill="black" fill-opacity="0.6"/>
<path d="M142.582 50.8842L141.662 64.5424L141.565 65.9896L137.495 65.7459L137.342 65.7367L134.275 65.5527L134.482 58.2522L135.309 54.5728L137.352 49.2239L138.568 47.4563L140.015 45.3667L140.402 44.824C140.402 44.824 140.658 46.3846 141.599 45.6963L141.619 45.6825C142.539 45.0999 142.582 50.8842 142.582 50.8842Z" fill="#4863F5"/>
<path d="M135.412 53.2944C135.412 53.2944 135.046 54.061 134.31 53.9368C133.574 53.8126 133.576 56.6963 133.576 56.6963C133.576 56.6963 133.087 57.1563 132.749 56.7577C132.412 56.3591 131.523 57.7066 131.523 57.7066L125.952 57.9519C125.952 57.9519 128.431 59.0849 127.945 62.5128C127.945 62.5128 136.361 61.9916 136.637 61.1959C136.913 60.4002 135.412 53.2944 135.412 53.2944Z" fill="white"/>
<path opacity="0.03" d="M135.412 53.2944C135.412 53.2944 135.046 54.061 134.31 53.9368C133.574 53.8126 133.576 56.6963 133.576 56.6963C133.576 56.6963 133.087 57.1563 132.749 56.7577C132.412 56.3591 131.523 57.7066 131.523 57.7066L125.952 57.9519C125.952 57.9519 128.431 59.0849 127.945 62.5128C127.945 62.5128 136.361 61.9916 136.637 61.1959C136.913 60.4002 135.412 53.2944 135.412 53.2944Z" fill="#FEA94E"/>
<path d="M119.222 59.7532L120.69 61.0072L132.78 63.5475L131.281 62.0175L119.222 59.7532Z" fill="white"/>
<path d="M140.034 45.7655C139.833 46.0721 139.258 47.6419 138.778 49.0125C138.378 50.1547 138.044 51.1588 138.044 51.1588C138.044 51.1588 137.264 56.2394 136.865 57.1577C136.467 58.0761 136.683 61.6573 136.683 61.6573L135.197 70.5016C135.197 70.5016 134.524 75.0626 133.485 77.7868C132.459 80.4682 131.317 81.7253 131.282 81.7652C131.742 81.1427 134.248 68.8873 134.248 68.8873L135.076 53.4308C135.076 53.4308 135.197 51.9622 135.32 50.7066C135.442 49.451 137.926 47.737 137.926 47.737L140.321 44.332C140.561 44.654 140.4 45.2151 140.034 45.7655Z" fill="white"/>
<path d="M133.79 65.6295C133.79 65.6295 130.264 65.4762 128.556 63.4249C126.848 61.3736 132.503 62.6062 132.503 62.6062L133.974 62.9435L133.79 65.6295Z" fill="#FEA94E"/>
<path opacity="0.1" d="M150.256 89.1056C150.068 89.7736 150.037 90.4765 150.168 91.1583C146.321 91.4312 142.206 90.3918 142.206 90.3918C141.44 91.097 139.421 92.1365 139.421 92.1365L138.32 78.4921C137.616 76.6524 137.34 67.0139 137.34 67.0139C137.34 67.0139 137.403 66.5096 137.494 65.7537C137.494 65.7353 137.494 65.7154 137.501 65.697C137.776 63.586 138.32 59.623 138.587 59.0879C138.955 58.3521 137.455 56.3943 137.455 56.3943L138.138 50.5763L138.22 49.8741C139.658 49.2318 140.761 47.1805 140.761 47.1805L141.607 45.698C142.527 45.1078 142.574 50.8921 142.574 50.8921L141.654 64.5503L144.702 63.7086C144.702 63.7086 150.776 87.3609 150.256 89.1056Z" fill="black" fill-opacity="0.6"/>
<path d="M154.205 90.0483C150.012 92.1302 142.391 90.2016 142.391 90.2016C141.624 90.9068 139.605 91.9463 139.605 91.9463L138.503 78.3019C137.801 76.4622 137.525 66.8237 137.525 66.8237C137.525 66.8237 138.411 59.6321 138.779 58.8977C138.886 58.6831 138.834 58.3642 138.707 58.0208C138.081 56.3863 137.851 54.627 138.035 52.8865L138.33 50.3861L138.411 49.6855C139.851 49.0416 140.953 46.9903 140.953 46.9903L141.719 45.6474L143.13 43.173L143.798 42.0017L143.912 42.1044L144.778 42.8894C144.778 42.8894 145.146 43.196 145.698 43.6559C146.898 44.6677 148.972 46.4492 150.042 47.5392C150.984 48.4989 151.281 52.2319 151.367 55.0421C151.424 56.8925 151.39 58.3428 151.39 58.3428C150.441 59.905 152.923 72.4471 152.923 72.4471C153.501 74.8709 154.205 90.0483 154.205 90.0483Z" fill="white"/>
<path opacity="0.03" d="M146.155 46.9596C146.155 46.9596 143.278 52.4373 143.612 54.5192C143.946 56.6011 144.897 58.9575 144.438 59.5079C144.281 59.7164 144.077 59.8856 143.843 60.0024C143.61 60.1191 143.352 60.1802 143.091 60.1809C142.631 60.2115 141.404 61.0685 141.404 61.1605C141.404 61.2525 140.271 61.2525 139.258 61.6818C138.245 62.111 136.748 62.3548 136.748 62.3548C136.748 62.3548 133.836 62.2628 133.564 62.5387C133.293 62.8147 133.014 64.4658 133.595 65.7827C134.176 67.0996 134.821 68.0823 135.309 68.2617C135.796 68.4411 138.89 67.4047 141.4 67.1594C143.909 66.9141 146.634 64.9257 146.634 64.9257C146.634 64.9257 149.634 63.8526 150.16 62.0482C150.686 60.2437 149.517 50.3263 149.517 50.3263C149.517 50.3263 148.634 45.7041 146.155 46.9596Z" fill="black" fill-opacity="0.6"/>
<path opacity="0.03" d="M145.788 46.4997C145.788 46.4997 142.911 51.979 143.248 54.0593C143.585 56.1397 144.533 58.4976 144.073 59.0495C143.916 59.2582 143.712 59.4277 143.479 59.5445C143.245 59.6613 142.988 59.7222 142.727 59.7225C142.267 59.7532 141.04 60.6102 141.04 60.7022C141.04 60.7941 139.907 60.7941 138.894 61.2219C137.881 61.6496 136.384 61.8949 136.384 61.8949C136.384 61.8949 133.471 61.8029 133.202 62.0789C132.932 62.3548 132.65 64.0075 133.232 65.3229C133.815 66.6382 134.459 67.6225 134.946 67.8018C135.434 67.9812 138.527 66.9448 141.037 66.7011C143.547 66.4573 146.271 64.4659 146.271 64.4659C146.271 64.4659 149.27 63.3927 149.789 61.5898C150.309 59.7869 149.147 49.8664 149.147 49.8664C149.147 49.8664 148.267 45.2457 145.788 46.4997Z" fill="black" fill-opacity="0.6"/>
<path d="M146.065 46.6836C146.065 46.6836 143.188 52.1628 143.525 54.2432C143.862 56.3236 144.81 58.6814 144.351 59.2318C144.194 59.4411 143.991 59.6109 143.757 59.728C143.523 59.8451 143.265 59.9061 143.004 59.9064C142.544 59.937 141.317 60.794 141.317 60.8845C141.317 60.9749 140.186 60.9765 139.171 61.4057C138.156 61.835 136.661 62.0787 136.661 62.0787C136.661 62.0787 133.749 61.9868 133.477 62.2627C133.206 62.5387 132.927 64.1913 133.508 65.5067C134.089 66.8221 134.734 67.8063 135.222 67.9857C135.709 68.165 138.803 67.1287 141.313 66.8834C143.822 66.6381 146.547 64.6497 146.547 64.6497C146.547 64.6497 149.547 63.5766 150.073 61.7721C150.599 59.9677 149.438 50.0502 149.438 50.0502C149.438 50.0502 148.543 45.4357 146.065 46.6836Z" fill="white"/>
<path opacity="0.1" d="M146.003 61.3798C146.003 61.3798 143.703 60.9198 144.504 61.6864C145.304 62.4529 145.299 63.1244 146.279 63.0938C147.259 63.0631 146.003 61.3798 146.003 61.3798Z" fill="black" fill-opacity="0.6"/>
<path opacity="0.1" d="M149.888 77.8726C149.888 77.8726 148.849 78.5762 150.837 80.1982C152.826 81.8202 149.888 77.8726 149.888 77.8726Z" fill="black" fill-opacity="0.6"/>
<path opacity="0.1" d="M147.905 83.657C147.905 83.749 147.537 87.0297 148.914 87.8499C150.29 88.6701 147.905 83.657 147.905 83.657Z" fill="black" fill-opacity="0.6"/>
<path d="M126.046 57.9441C124.936 57.9824 122.538 58.3212 123.782 60.6408C124.881 62.6936 126.728 61.3215 127.768 60.2805C127.514 59.31 126.898 58.4737 126.046 57.9441V57.9441Z" fill="#FEA94E"/>
<path d="M127.782 60.2621L127.828 60.2146L127.782 60.2621Z" fill="#E9ECF6"/>
<path opacity="0.1" d="M145.697 43.7493C144.52 44.5542 143.533 45.2333 143.34 45.3744C142.812 45.7653 141.807 48.0603 141.158 49.2316C140.641 50.1744 138.963 50.4166 138.33 50.4764L138.411 49.7758C139.85 49.1319 140.953 47.0807 140.953 47.0807L143.798 42.092L144.778 42.9828C144.778 42.9828 145.146 43.2894 145.697 43.7493Z" fill="black" fill-opacity="0.6"/>
<path d="M145.697 43.6575C144.52 44.4624 143.533 45.1415 143.34 45.2841C142.812 45.6735 141.807 47.9685 141.158 49.1398C140.641 50.0826 138.963 50.3248 138.33 50.3846L138.411 49.684C139.85 49.0401 140.953 46.9889 140.953 46.9889L143.798 42.0002L144.778 42.8879C144.778 42.8879 145.146 43.1914 145.697 43.6575Z" fill="#FAFAFC"/>
<path d="M143.432 39.7512C143.432 40.6715 143.153 41.5702 142.631 42.3283C142.015 43.2245 141.098 43.8702 140.046 44.1481C138.995 44.426 137.878 44.3178 136.9 43.843C135.921 43.3682 135.145 42.5583 134.712 41.5603C134.28 40.5623 134.219 39.4423 134.542 38.4035C134.865 37.3647 135.549 36.4759 136.471 35.8985C137.392 35.3211 138.491 35.0932 139.566 35.2562C140.642 35.4193 141.623 35.9624 142.332 36.7871C143.041 37.6118 143.431 38.6634 143.432 39.7512V39.7512Z" fill="#FEA94E"/>
<path opacity="0.1" d="M151.367 55.0436C150.744 54.6606 150.237 54.116 149.9 53.4676C149.644 52.9617 149.473 52.3776 149.036 52.0188C148.642 51.6969 148.117 51.6187 147.626 51.4746C146.013 50.9978 144.661 49.5261 144.61 47.8458C144.586 47.0547 144.833 46.2652 144.721 45.4818C144.657 45.0384 144.481 44.6188 144.209 44.263C144.074 44.0929 143.926 43.9334 143.766 43.7862C143.551 43.5839 143.326 43.3876 143.13 43.173C143.006 43.0401 142.898 42.8935 142.808 42.7361C142.735 42.6072 142.676 42.4711 142.631 42.3298C142.325 41.3916 142.604 40.2786 142.266 39.3296L142.248 39.2774C142.121 38.9402 141.862 38.6029 141.501 38.5768C141.141 38.5508 140.833 38.8497 140.49 38.9831C139.771 39.2621 138.995 38.7869 138.395 38.3024C137.796 37.818 137.12 37.2645 136.358 37.3718C135.854 37.4439 135.455 37.7873 134.99 37.9651C134.886 38.0057 134.777 38.037 134.667 38.0587C135.06 37.0783 135.782 36.2654 136.71 35.7597C137.637 35.254 138.712 35.087 139.749 35.2874C140.786 35.4879 141.721 36.0432 142.393 36.8581C143.065 37.673 143.432 38.6964 143.432 39.7527C143.432 40.0717 143.399 40.3898 143.332 40.7017C143.34 40.7231 143.347 40.7431 143.356 40.7645C143.534 41.2245 143.735 41.6966 143.911 42.1044L144.778 42.8894C144.778 42.8894 145.146 43.196 145.697 43.6559C146.898 44.6677 148.972 46.4492 150.042 47.5392C150.983 48.502 151.278 52.2335 151.367 55.0436Z" fill="black" fill-opacity="0.6"/>
<path d="M134.937 35.1641C135.156 34.7179 135.265 34.2182 135.527 33.795C135.912 33.1818 136.584 32.7893 137.273 32.5517C139.075 31.9308 142.881 31.0294 144.019 32.5517C144.243 32.8583 144.428 33.1987 144.738 33.4102C144.974 33.5712 145.259 33.6402 145.518 33.7613C146.243 34.1016 146.706 34.8437 146.953 35.601C147.2 36.3583 147.274 37.1709 147.455 37.9512C147.686 38.9523 148.092 39.9013 148.497 40.8441C148.974 41.9571 149.48 43.1115 150.4 43.898C151.655 44.9712 151.933 46.4904 153.098 47.6678C154.478 49.066 154.433 51.3733 153.722 53.2053C153.628 53.446 153.523 53.6974 153.559 53.9534C153.596 54.2095 153.786 54.4425 153.966 54.6464L154.72 55.4973C152.935 55.928 150.916 54.9959 150.085 53.3601C149.829 52.8542 149.659 52.2717 149.221 51.9114C148.828 51.5894 148.301 51.5128 147.812 51.3687C146.199 50.8904 144.847 49.4171 144.796 47.7368C144.772 46.9473 145.019 46.1578 144.907 45.3759C144.844 44.9295 144.667 44.507 144.393 44.1494C143.971 43.599 143.335 43.2296 142.992 42.6163C142.411 41.5907 142.852 40.2585 142.434 39.1577C142.305 38.8204 142.047 38.4832 141.687 38.4571C141.327 38.4311 141.019 38.73 140.674 38.8634C139.956 39.1424 139.181 38.6687 138.581 38.1827C137.982 37.6967 137.306 37.1448 136.542 37.2536C136.038 37.3242 135.641 37.6676 135.176 37.8469C134.833 37.9788 134.137 38.0968 133.836 37.8071C133.202 37.223 134.672 35.7098 134.937 35.1641Z" fill="#232735"/>
<path opacity="0.1" d="M150.511 52.8544C150.253 52.3485 150.085 51.766 149.646 51.4072C149.254 51.0853 148.726 51.0071 148.236 50.863C146.625 50.3862 145.272 48.9129 145.22 47.2327C145.196 46.4431 145.443 45.6521 145.332 44.8702C145.268 44.4267 145.091 44.0071 144.819 43.6514C144.395 43.101 143.759 42.7315 143.417 42.1183C142.836 41.0942 143.278 39.762 142.858 38.6597C142.731 38.3239 142.471 37.9867 142.113 37.9591C141.754 37.9315 141.443 38.2335 141.099 38.3669C140.382 38.6459 139.605 38.1706 139.007 37.6862C138.409 37.2017 137.73 36.6483 136.968 36.7556C136.463 36.8277 136.065 37.1711 135.602 37.3489C135.258 37.4808 134.561 37.6003 134.26 37.3106C133.629 36.6974 135.099 35.1873 135.363 34.6446C135.582 34.1969 135.691 33.6987 135.954 33.2755C135.968 33.2525 135.983 33.2295 135.999 33.2065C135.802 33.3699 135.631 33.5634 135.494 33.7799C135.232 34.203 135.123 34.6998 134.904 35.1489C134.639 35.6917 133.169 37.2063 133.802 37.815C134.109 38.1063 134.798 37.9867 135.142 37.8548C135.602 37.6755 136.003 37.332 136.508 37.2615C137.274 37.1527 137.949 37.7061 138.547 38.1906C139.145 38.675 139.927 39.1503 140.641 38.8713C140.984 38.7379 141.285 38.4374 141.653 38.465C142.021 38.4926 142.266 38.8283 142.399 39.1656C142.818 40.2664 142.376 41.5986 142.957 42.6242C143.301 43.2267 143.937 43.6039 144.359 44.1573C144.633 44.5148 144.81 44.9374 144.872 45.3838C144.984 46.1656 144.737 46.9552 144.762 47.7447C144.812 49.4311 146.165 50.8982 147.777 51.3766C148.263 51.5207 148.794 51.5973 149.186 51.9193C149.626 52.2795 149.8 52.8621 150.051 53.368C150.882 55.0038 152.901 55.9359 154.686 55.5051L154.33 55.1035C152.783 55.1265 151.218 54.2465 150.511 52.8544Z" fill="black" fill-opacity="0.6"/>
<path opacity="0.1" d="M139.943 45.8575C139.742 46.1641 139.167 47.7339 138.687 49.1045C138.238 48.9297 137.83 47.8152 137.83 47.8152L140.225 44.4087C140.47 44.746 140.309 45.3055 139.943 45.8575Z" fill="black" fill-opacity="0.6"/>
<path d="M140.034 45.7653C139.834 46.072 139.259 47.6418 138.779 49.0124C138.33 48.8392 137.922 47.7231 137.922 47.7231L140.317 44.3181C140.562 44.6539 140.401 45.215 140.034 45.7653Z" fill="#FAFAFC"/>
<path d="M126.111 61.4273L124.783 57.2404C124.768 57.1914 124.762 57.1398 124.766 57.0885C124.77 57.0372 124.785 56.9872 124.808 56.9415C124.832 56.8958 124.864 56.8552 124.904 56.822C124.943 56.7889 124.989 56.7638 125.038 56.7483V56.7483C125.137 56.7175 125.244 56.7269 125.335 56.7746C125.427 56.8222 125.497 56.9043 125.528 57.0028L126.856 61.185L126.724 62.0604L126.111 61.4273Z" fill="#C2CAE7"/>
<path opacity="0.1" d="M124.909 56.8725C125.008 56.8411 125.115 56.8503 125.208 56.898C125.3 56.9457 125.369 57.0281 125.401 57.1269L126.729 61.3092L126.629 61.9653L126.726 62.0665L126.857 61.1911L125.522 57.0089C125.49 56.9104 125.421 56.8283 125.329 56.7807C125.237 56.733 125.13 56.7236 125.032 56.7544V56.7544C124.948 56.7814 124.877 56.8353 124.828 56.9077C124.854 56.8937 124.881 56.8819 124.909 56.8725V56.8725Z" fill="white"/>
<path d="M126.11 61.4273L126.855 61.1912L126.747 61.9086L126.724 62.0666L126.506 61.8397L126.11 61.4273Z" fill="#E9ECF6"/>
<path d="M126.506 61.8396C126.519 61.8232 126.535 61.8096 126.554 61.7997C126.565 61.7929 126.577 61.7893 126.59 61.7893C126.603 61.7893 126.615 61.7929 126.626 61.7997C126.636 61.8123 126.645 61.8263 126.652 61.8411C126.662 61.858 126.676 61.8725 126.692 61.8834C126.709 61.8942 126.728 61.9013 126.747 61.904L126.724 62.0573L126.506 61.8396Z" fill="#C2CAE7"/>
<path d="M124.775 58.7275C124.775 58.7275 127.438 58.7122 126.811 59.8451C126.184 60.9781 125.205 61.1145 125.205 61.1145L124.775 58.7275Z" fill="#FEA94E"/>
<path d="M108.213 63.8831H108.098C103.524 63.8831 99.478 66.3038 97.1508 69.8758C94.8236 66.3038 90.7778 63.8831 86.2031 63.8831H86.0881C82.6549 63.9158 79.3734 65.3021 76.9566 67.7407C74.5398 70.1793 73.183 73.4732 73.1812 76.9065C73.1812 81.17 75.0484 87.2195 78.6895 92.1974C85.6267 101.683 97.1508 109.981 97.1508 109.981C97.1508 109.981 108.675 101.684 115.611 92.1974C119.253 87.2195 121.119 81.17 121.119 76.9065C121.117 73.4735 119.76 70.1798 117.344 67.7412C114.928 65.3027 111.646 63.9162 108.213 63.8831V63.8831ZM106.568 92.9272C106.047 92.9252 105.539 92.7657 105.111 92.4697C104.682 92.1736 104.353 91.7549 104.166 91.2684H101.431C101.251 91.2673 101.076 91.2099 100.93 91.1044C100.784 90.9989 100.675 90.8504 100.617 90.6797L99.7769 88.1486L97.1186 97.4375C97.0668 97.6163 96.9584 97.7735 96.8097 97.8855C96.661 97.9974 96.48 98.0581 96.2938 98.0584H96.2401C96.0459 98.049 95.8608 97.9732 95.7157 97.8438C95.5706 97.7143 95.4743 97.5389 95.4429 97.347L92.7033 80.8695L90.7011 90.6199C90.6552 90.8051 90.5486 90.9696 90.3983 91.0872C90.2479 91.2047 90.0626 91.2685 89.8717 91.2684H86.0191C85.9036 91.2733 85.7884 91.2547 85.6802 91.2139C85.5721 91.1731 85.4733 91.1108 85.3899 91.0308C85.3064 90.9508 85.24 90.8548 85.1946 90.7485C85.1493 90.6422 85.1259 90.5278 85.1259 90.4122C85.1259 90.2966 85.1493 90.1822 85.1946 90.0759C85.24 89.9695 85.3064 89.8735 85.3899 89.7935C85.4733 89.7135 85.5721 89.6512 85.6802 89.6104C85.7884 89.5696 85.9036 89.5511 86.0191 89.5559H89.1972L92.0334 76.4466C92.0799 76.2528 92.1924 76.0812 92.3515 75.9611C92.5106 75.841 92.7064 75.7799 92.9056 75.7882C93.1047 75.7965 93.2948 75.8738 93.4433 76.0067C93.5918 76.1397 93.6896 76.3201 93.7198 76.5171L96.5176 93.3258L98.9 85.015C98.9496 84.8399 99.0545 84.6856 99.199 84.5751C99.3435 84.4646 99.5199 84.4038 99.7018 84.4017H99.7187C99.8989 84.4018 100.074 84.4587 100.22 84.5645C100.366 84.6702 100.475 84.8192 100.531 84.9904L102.051 89.5605H104.132C104.28 89.1108 104.55 88.7108 104.911 88.4045C105.272 88.0982 105.711 87.8977 106.178 87.8249C106.646 87.7522 107.125 87.8102 107.562 87.9924C107.999 88.1746 108.377 88.474 108.655 88.8576C108.932 89.2411 109.098 89.6939 109.135 90.1659C109.171 90.638 109.077 91.1109 108.861 91.5325C108.646 91.9542 108.318 92.3081 107.915 92.5553C107.511 92.8025 107.047 92.9333 106.573 92.9333L106.568 92.9272Z" fill="#FF3C88"/>
</g>
<defs>
<clipPath id="clip0">
<rect width="169.411" height="120" fill="white"/>
</clipPath>
</defs>
</svg>
