<svg width="48" height="48" viewBox="0 0 48 48" fill="none" xmlns="http://www.w3.org/2000/svg">
<path d="M39.4359 0.545366C38.8193 -0.114822 37.9907 -0.180259 37.274 0.374366C36.1107 1.27418 32.5711 4.01205 27.0936 2.23258C22.6726 0.796147 19.2161 0.486303 16.5264 1.28477C13.9761 2.04208 12.1369 3.8314 11.0564 6.60565C8.33783 8.4439 7.10737 11.3826 7.49596 15.1208C7.79868 18.0336 9.01912 20.8347 9.97208 22.3483C10.1791 22.677 10.6131 22.7755 10.9417 22.5687C11.1538 22.4352 11.2694 22.2071 11.2696 21.9737H33.9164C33.9166 22.2071 34.0322 22.4352 34.2442 22.5687C34.3606 22.6421 34.4901 22.6769 34.6182 22.6769C34.8517 22.6769 35.0802 22.5606 35.2138 22.3483C36.2282 20.7371 37.6472 16.8367 37.712 13.0817C39.8178 10.5895 40.3754 7.61805 40.5195 6.04371C40.7396 3.64371 40.3141 1.48558 39.4359 0.545366Z" fill="#3D5868"/>
<path d="M39.435 0.545366C38.8184 -0.114822 37.9898 -0.180259 37.273 0.374366C37.0957 0.511522 36.8628 0.691616 36.5764 0.891772C37.2707 1.9548 37.5885 3.90265 37.3926 6.04371C37.2485 7.61815 36.6908 10.5895 34.585 13.0817C34.5248 16.5723 33.2944 20.1875 32.3066 21.9737H33.9158C33.916 22.2071 34.0315 22.4352 34.2436 22.5687C34.36 22.6421 34.4895 22.6769 34.6176 22.6769C34.8511 22.6769 35.0796 22.5606 35.2132 22.3483C36.2275 20.7371 37.6465 16.8367 37.7113 13.0817C39.8171 10.5895 40.3748 7.61805 40.5189 6.04371C40.7387 3.64371 40.3132 1.48558 39.435 0.545366Z" fill="#2A434F"/>
<path d="M27.8089 33.3701H17.8852C13.6019 33.3701 10.1172 36.8549 10.1172 41.1382V47.2969C10.1172 47.6852 10.4319 48 10.8203 48H34.874C35.2624 48 35.5772 47.6852 35.5772 47.2969V41.1381C35.5771 36.8548 32.0923 33.3701 27.8089 33.3701Z" fill="#F0EEEE"/>
<path d="M27.8085 33.3701H25.4414C29.7247 33.3701 33.2094 36.8549 33.2094 41.1382V47.2969C33.2094 47.6852 32.8947 48 32.5063 48H34.8734C35.2618 48 35.5765 47.6852 35.5765 47.2969V41.1381C35.5766 36.8548 32.0918 33.3701 27.8085 33.3701Z" fill="#D9D4D4"/>
<path d="M26.793 34.0728H18.9004V48H26.793V34.0728Z" fill="#28A5EC"/>
<path d="M22.8477 34.7702V38.2234L26.7941 40.9689V34.073L22.8477 34.7702Z" fill="#58C2FE"/>
<path d="M18.9004 40.9689L22.8468 38.2234V34.7702L18.9004 34.073V40.9689Z" fill="#58C2FE"/>
<path d="M30.8822 41.5549C30.4938 41.5549 30.179 41.2401 30.179 40.8518V37.4611C30.179 33.5455 26.9935 30.3599 23.0779 30.3599C19.1622 30.3599 15.9766 33.5454 15.9766 37.4611V40.3812C15.9766 40.7695 15.6618 41.0843 15.2734 41.0843C14.885 41.0843 14.5703 40.7695 14.5703 40.3812V37.4611C14.5703 32.7701 18.3867 28.9536 23.0778 28.9536C27.7688 28.9536 31.5853 32.7701 31.5853 37.4611V40.8518C31.5853 41.2401 31.2705 41.5549 30.8822 41.5549Z" fill="#19303F"/>
<path d="M18.9023 25.1001V33.6C18.9023 35.7795 20.6692 37.5464 22.8487 37.5464C25.0283 37.5464 26.7951 35.7795 26.7951 33.6V25.1001H18.9023Z" fill="#FA9E3E"/>
<path d="M10.6457 20.9996H15.2739V26.3067H10.6457C9.18019 26.3067 7.99219 25.1187 7.99219 23.6532C7.99219 22.1877 9.18009 20.9996 10.6457 20.9996Z" fill="#FA9E3E"/>
<path d="M35.0501 20.9996H30.4219V26.3067H35.0501C36.5156 26.3067 37.7036 25.1187 37.7036 23.6532C37.7036 22.1877 36.5156 20.9996 35.0501 20.9996Z" fill="#FA9E3E"/>
<path d="M33.3561 15.5761V21.5128C33.3561 27.3219 28.6914 32.1173 22.8823 32.1369C17.0607 32.1566 12.3359 27.4429 12.3359 21.6269V17.5207C12.3359 17.4375 12.3857 17.3632 12.4615 17.3286C15.0046 16.1672 15.8532 13.1536 16.0774 10.9958C16.1252 10.5305 16.144 10.105 16.1446 9.74652C16.145 9.55302 16.3837 9.4632 16.5125 9.60749C16.8087 9.93936 17.2692 10.4302 17.8718 10.9957C20.6496 13.6053 26.4463 17.81 33.0744 15.3779C33.2111 15.3277 33.3561 15.4303 33.3561 15.5761Z" fill="#FFB56B"/>
<path d="M22.8476 27.0458C21.5827 27.0458 20.3969 26.4242 19.6759 25.3828C19.4548 25.0636 19.5344 24.6256 19.8537 24.4044C20.1727 24.1834 20.611 24.2629 20.832 24.5822C21.2906 25.2443 22.044 25.6396 22.8477 25.6396C23.6515 25.6396 24.4049 25.2443 24.8635 24.5822C25.0845 24.2629 25.5224 24.1834 25.8417 24.4044C26.161 24.6255 26.2406 25.0635 26.0196 25.3828C25.2983 26.4242 24.1126 27.0458 22.8476 27.0458Z" fill="#19303F"/>
<path d="M31.17 22.7201C31.17 27.7429 27.2373 31.8468 22.2832 32.1217H22.2834C22.3761 32.1266 22.4692 32.1303 22.5625 32.1329C22.563 32.1329 22.5636 32.1329 22.5643 32.1329C22.6582 32.1355 22.7524 32.1368 22.8469 32.1368C23.1133 32.1368 23.3773 32.1267 23.6386 32.1073C23.6521 32.1062 23.6657 32.1051 23.6792 32.1041C23.839 32.0915 23.9977 32.0754 24.1554 32.0558C29.3427 31.4115 33.357 26.9876 33.357 21.6267V15.2705C32.617 15.5622 31.887 15.7702 31.17 15.9059V22.72V22.72V22.7201Z" fill="#EF9245"/>
<path d="M27.9395 21.8408C27.551 21.8408 27.2363 21.526 27.2363 21.1377V20.9502C27.2363 20.5619 27.551 20.2471 27.9395 20.2471C28.3279 20.2471 28.6426 20.5619 28.6426 20.9502V21.1377C28.6426 21.526 28.3279 21.8408 27.9395 21.8408Z" fill="#19303F"/>
<path d="M17.7539 21.8408C17.3655 21.8408 17.0508 21.526 17.0508 21.1377V20.9502C17.0508 20.5619 17.3655 20.2471 17.7539 20.2471C18.1423 20.2471 18.457 20.5619 18.457 20.9502V21.1377C18.457 21.526 18.1422 21.8408 17.7539 21.8408Z" fill="#19303F"/>
<path d="M15.2735 39.678C14.1384 39.678 13.2148 40.6015 13.2148 41.7365C13.2148 42.8716 14.1384 43.7951 15.2735 43.7951C16.4086 43.7951 17.3322 42.8716 17.3322 41.7365C17.3321 40.6015 16.4085 39.678 15.2735 39.678Z" fill="#39EEC9"/>
<path d="M22.8468 38.2235L20.7344 39.693C21.2674 40.2479 22.0165 40.594 22.8468 40.594C23.6772 40.594 24.4262 40.248 24.9593 39.693L22.8468 38.2235Z" fill="#FF3C88"/>
<path d="M22.8476 40.5939C22.5409 40.5939 22.2453 40.5463 21.9676 40.4589L20.9961 47.9999H24.6991L23.7276 40.4589C23.4499 40.5463 23.1544 40.5939 22.8476 40.5939Z" fill="#FF3C88"/>
<path d="M32.7453 46.0354H32.4041C32.0157 46.0354 31.701 45.7206 31.701 45.3323C31.701 45.0764 31.8377 44.8524 32.0421 44.7294V42.7154C32.0421 42.0753 31.5215 41.5547 30.8814 41.5547C30.2414 41.5547 29.7207 42.0754 29.7207 42.7154V44.7294C29.9252 44.8524 30.0619 45.0764 30.0619 45.3323C30.0619 45.7206 29.7471 46.0354 29.3587 46.0354H29.0176C28.6292 46.0354 28.3145 45.7206 28.3145 45.3323V42.7155C28.3145 41.3 29.466 40.1487 30.8813 40.1487C32.2968 40.1487 33.4482 41.3002 33.4482 42.7155V45.3323C33.4483 45.7206 33.1335 46.0354 32.7453 46.0354Z" fill="#3D5868"/>
</svg>
