<svg width="64" height="64" viewBox="0 0 64 64" fill="none" xmlns="http://www.w3.org/2000/svg">
<g clip-path="url(#clip0)">
<path d="M50.8135 63.0555H13.1858C11.2386 63.0555 9.66016 61.4771 9.66016 59.5299V4.47009C9.66016 2.52293 11.2386 0.944489 13.1858 0.944489H50.8135C52.7607 0.944489 54.3391 2.52293 54.3391 4.47009V59.5299C54.3391 61.4771 52.7607 63.0555 50.8135 63.0555Z" fill="#EEF3FB"/>
<path d="M50.8131 0.944489H47.0352C48.9823 0.944489 50.5608 2.52293 50.5608 4.47009V59.5299C50.5608 61.4771 48.9823 63.0555 47.0352 63.0555H50.8131C52.7603 63.0555 54.3387 61.4771 54.3387 59.5299V4.47009C54.3387 2.52293 52.7603 0.944489 50.8131 0.944489V0.944489Z" fill="#58C2FE" fill-opacity="0.2"/>
<path d="M45.5386 56.5558H18.4605C17.0045 56.5558 15.8242 55.3754 15.8242 53.9195V9.78369C15.8242 8.32766 17.0046 7.14742 18.4605 7.14742H45.5386C46.9946 7.14742 48.1749 8.32779 48.1749 9.78369V53.9194C48.1749 55.3754 46.9946 56.5558 45.5386 56.5558Z" fill="#FAFAFC"/>
<path d="M45.5397 7.14729L43.5 7.14729C44.956 7.14729 46.1363 8.32766 46.1363 9.78356V53.9192C46.1363 55.3753 44.9559 56.5555 43.5 56.5555H45.5397C46.9957 56.5555 48.176 55.3751 48.176 53.9192V9.78369C48.176 8.32766 46.9957 7.14729 45.5397 7.14729Z" fill="#58C2FE" fill-opacity="0.2"/>
<path d="M38.6459 10.4103H24.5355C23.6012 10.4103 22.8438 9.65285 22.8438 8.71855V5.83508C22.8438 4.90079 23.6012 4.1433 24.5355 4.1433H38.6459C39.5802 4.1433 40.3377 4.90079 40.3377 5.83508V8.71855C40.3377 9.65285 39.5802 10.4103 38.6459 10.4103Z" fill="#EEF3FB"/>
<path d="M38.6452 4.1433H34.8672C35.8015 4.1433 36.559 4.90079 36.559 5.83508V8.71855C36.559 9.65285 35.8015 10.4103 34.8672 10.4103H38.6452C39.5795 10.4103 40.3369 9.65285 40.3369 8.71855V5.83508C40.3369 4.90079 39.5795 4.1433 38.6452 4.1433Z" fill="#DAEFFC"/>
<path d="M22.2218 33.885C22.7435 33.885 23.1663 33.4622 23.1663 32.9405C23.1663 32.4189 22.7435 31.996 22.2218 31.996C21.7002 31.996 21.2773 32.4189 21.2773 32.9405C21.2773 33.4622 21.7002 33.885 22.2218 33.885Z" fill="#FF3C88"/>
<path d="M22.2218 38.9742C22.7435 38.9742 23.1663 38.5513 23.1663 38.0297C23.1663 37.5081 22.7435 37.0852 22.2218 37.0852C21.7002 37.0852 21.2773 37.5081 21.2773 38.0297C21.2773 38.5513 21.7002 38.9742 22.2218 38.9742Z" fill="#FF3C88"/>
<path d="M22.2218 44.0633C22.7435 44.0633 23.1663 43.6404 23.1663 43.1188C23.1663 42.5971 22.7435 42.1743 22.2218 42.1743C21.7002 42.1743 21.2773 42.5971 21.2773 43.1188C21.2773 43.6404 21.7002 44.0633 22.2218 44.0633Z" fill="#FF3C88"/>
<path d="M42.8045 31.996H26.2648C25.7432 31.996 25.3203 32.4189 25.3203 32.9405C25.3203 33.4621 25.7432 33.885 26.2648 33.885H42.8045C43.3261 33.885 43.749 33.4621 43.749 32.9405C43.749 32.4189 43.3261 31.996 42.8045 31.996V31.996Z" fill="#39EEC9"/>
<path d="M42.8045 37.0851H26.2648C25.7432 37.0851 25.3203 37.508 25.3203 38.0296C25.3203 38.5512 25.7432 38.9741 26.2648 38.9741H42.8045C43.3261 38.9741 43.749 38.5512 43.749 38.0296C43.749 37.508 43.3261 37.0851 42.8045 37.0851Z" fill="#39EEC9"/>
<path d="M42.8045 42.1743H26.2648C25.7432 42.1743 25.3203 42.5972 25.3203 43.1188C25.3203 43.6404 25.7432 44.0633 26.2648 44.0633H42.8045C43.3261 44.0633 43.749 43.6404 43.749 43.1188C43.749 42.5972 43.3261 42.1743 42.8045 42.1743Z" fill="#39EEC9"/>
<path d="M42.8042 49.2646H34.5343C34.0127 49.2646 33.5898 49.6875 33.5898 50.2091C33.5898 50.7308 34.0127 51.1536 34.5343 51.1536H42.8042C43.3258 51.1536 43.7487 50.7308 43.7487 50.2091C43.7487 49.6875 43.3258 49.2646 42.8042 49.2646Z" fill="#39EEC9"/>
<path d="M35.554 6.33226H27.8234C27.3018 6.33226 26.8789 6.75514 26.8789 7.27675C26.8789 7.79837 27.3018 8.22125 27.8234 8.22125H35.554C36.0756 8.22125 36.4985 7.79837 36.4985 7.27675C36.4985 6.75514 36.0756 6.33226 35.554 6.33226Z" fill="#DAEFFC"/>
<path d="M27.6094 23.7257L31.2488 26.894L34.9046 20.5086L37.2443 23.7012L40.2262 18.9488" stroke="#F8D764" stroke-width="1.88899" stroke-miterlimit="10" stroke-linecap="round" stroke-linejoin="round"/>
</g>
<defs>
<clipPath id="clip0">
<rect width="128" height="128" fill="white"/>
</clipPath>
</defs>
</svg>
