<svg width="176" height="152" viewBox="0 0 176 152" fill="none" xmlns="http://www.w3.org/2000/svg">
<g clip-path="url(#clip0)">
<path d="M45.709 116.588C32.5245 104.191 17.9928 92.8178 13.0847 76.895C8.08043 60.9722 12.6998 40.5 22.2272 25.8283C31.8509 11.1566 46.3826 2.28531 60.1445 0.693032C73.9063 -1.01298 86.8983 4.56 104.221 7.17589C121.543 9.67804 143.389 9.2231 153.879 21.1652C164.465 32.9936 163.695 57.219 160.231 80.9894C156.67 104.646 150.318 127.62 136.941 140.131C123.564 152.642 103.258 154.462 87.0907 148.548C70.923 142.747 58.9896 129.099 45.709 116.588Z" fill="#EEF9FF"/>
</g>
<path d="M78.8709 29.0907C77.6377 27.7704 75.9804 27.6395 74.5469 28.7487C72.2204 30.5484 65.1412 36.0241 54.1863 32.4652C45.3442 29.5923 38.4313 28.9726 33.0519 30.5695C27.9513 32.0842 24.2728 35.6628 22.1118 41.2113C16.6747 44.8878 14.2138 50.7652 14.9909 58.2415C15.5964 64.0672 18.0373 69.6695 19.9432 72.6967C20.3572 73.354 21.2253 73.5509 21.8825 73.1375C22.3066 72.8705 22.5378 72.4141 22.5382 71.9474H67.8318C67.8322 72.4141 68.0634 72.8705 68.4875 73.1375C68.7202 73.2841 68.9793 73.3539 69.2354 73.3539C69.7025 73.3539 70.1594 73.1212 70.4266 72.6967C72.4554 69.4743 75.2934 61.6734 75.4229 54.1634C79.6346 49.1789 80.7498 43.2361 81.038 40.0874C81.4783 35.2874 80.6272 30.9712 78.8709 29.0907Z" fill="#3D5868"/>
<path d="M78.87 29.0907C77.6368 27.7704 75.9795 27.6395 74.5461 28.7487C74.1913 29.023 73.7256 29.3832 73.1528 29.7835C74.5414 31.9096 75.177 35.8053 74.7851 40.0874C74.497 43.2363 73.3815 49.1789 69.1701 54.1634C69.0495 61.1446 66.5888 68.375 64.6133 71.9474H67.8315C67.8319 72.4141 68.0631 72.8705 68.4872 73.1375C68.7199 73.2841 68.979 73.3539 69.2352 73.3539C69.7022 73.3539 70.1592 73.1212 70.4263 72.6967C72.4551 69.4743 75.2931 61.6734 75.4226 54.1634C79.6343 49.1789 80.7495 43.2361 81.0377 40.0874C81.4774 35.2874 80.6263 30.9712 78.87 29.0907Z" fill="#2A434F"/>
<path d="M55.6179 94.7402H35.7704C27.2038 94.7402 20.2344 101.71 20.2344 110.276V122.594C20.2344 123.37 20.8638 124 21.6406 124H69.7481C70.5249 124 71.1543 123.37 71.1543 122.594V110.276C71.1541 101.71 64.1846 94.7402 55.6179 94.7402Z" fill="#F0EEEE"/>
<path d="M55.617 94.7402H50.8828C59.4495 94.7402 66.4189 101.71 66.4189 110.276V122.594C66.4189 123.37 65.7894 124 65.0126 124H69.7468C70.5236 124 71.1531 123.37 71.1531 122.594V110.276C71.1532 101.71 64.1837 94.7402 55.617 94.7402Z" fill="#D9D4D4"/>
<path d="M53.586 96.1454H37.8008V124H53.586V96.1454Z" fill="#28A5EC"/>
<path d="M45.6943 97.5405V104.447L53.5872 109.938V96.1461L45.6943 97.5405Z" fill="#58C2FE"/>
<path d="M37.8008 109.938L45.6936 104.447V97.5405L37.8008 96.1461V109.938Z" fill="#58C2FE"/>
<path d="M61.7634 111.11C60.9866 111.11 60.3571 110.48 60.3571 109.704V102.922C60.3571 95.0909 53.986 88.7197 46.1547 88.7197C38.3234 88.7197 31.9522 95.0907 31.9522 102.922V108.762C31.9522 109.539 31.3227 110.169 30.5459 110.169C29.7691 110.169 29.1396 109.539 29.1396 108.762V102.922C29.1396 93.5401 36.7724 85.9072 46.1545 85.9072C55.5367 85.9072 63.1696 93.5401 63.1696 102.922V109.704C63.1696 110.48 62.54 111.11 61.7634 111.11Z" fill="#19303F"/>
<path d="M37.8027 78.2002V95.2001C37.8027 99.5591 41.3365 103.093 45.6955 103.093C50.0547 103.093 53.5883 99.5591 53.5883 95.2001V78.2002H37.8027Z" fill="#FA9E3E"/>
<path d="M21.2904 69.9993H30.5469V80.6135H21.2904C18.3594 80.6135 15.9834 78.2375 15.9834 75.3065C15.9834 72.3755 18.3592 69.9993 21.2904 69.9993Z" fill="#FA9E3E"/>
<path d="M70.0993 69.9993H60.8428V80.6135H70.0993C73.0303 80.6135 75.4063 78.2375 75.4063 75.3065C75.4063 72.3755 73.0303 69.9993 70.0993 69.9993Z" fill="#FA9E3E"/>
<path d="M66.7131 59.1522V71.0256C66.7131 82.6438 57.3837 92.2346 45.7656 92.2738C34.1225 92.3132 24.6729 82.8859 24.6729 71.2538V63.0415C24.6729 62.875 24.7724 62.7265 24.9239 62.6573C30.0102 60.3343 31.7075 54.3072 32.1558 49.9917C32.2514 49.0609 32.2889 48.21 32.2902 47.493C32.291 47.106 32.7683 46.9264 33.026 47.215C33.6185 47.8787 34.5395 48.8605 35.7445 49.9915C41.3002 55.2105 52.8936 63.6201 66.1497 58.7558C66.4233 58.6555 66.7131 58.8606 66.7131 59.1522Z" fill="#FFB56B"/>
<path d="M45.6943 82.0917C43.1644 82.0917 40.7929 80.8483 39.3508 78.7656C38.9087 78.1271 39.0679 77.2511 39.7063 76.8088C40.3444 76.3667 41.221 76.5259 41.6631 77.1643C42.5801 78.4886 44.0871 79.2792 45.6945 79.2792C47.3019 79.2792 48.8089 78.4886 49.7259 77.1643C50.1681 76.5259 51.0439 76.3667 51.6825 76.8088C52.3209 77.251 52.4803 78.127 52.0382 78.7656C50.5956 80.8483 48.2243 82.0917 45.6943 82.0917Z" fill="#19303F"/>
<path d="M62.3399 73.4402C62.3399 83.4859 54.4747 91.6937 44.5664 92.2434H44.5668C44.7522 92.2532 44.9384 92.2607 45.125 92.2658C45.1261 92.2658 45.1272 92.266 45.1285 92.266C45.3164 92.271 45.5048 92.2736 45.6938 92.2736C46.2265 92.2736 46.7545 92.2534 47.2773 92.2146C47.3043 92.2125 47.3315 92.2103 47.3585 92.2082C47.678 92.1831 47.9954 92.1508 48.3108 92.1116C58.6854 90.8231 66.7139 81.9752 66.7139 71.2534V58.5411C65.234 59.1244 63.7739 59.5405 62.3399 59.812V73.44V73.44V73.4402Z" fill="#EF9245"/>
<path d="M55.8789 71.6816C55.1021 71.6816 54.4727 71.052 54.4727 70.2753V69.9003C54.4727 69.1237 55.1021 68.4941 55.8789 68.4941C56.6557 68.4941 57.2852 69.1237 57.2852 69.9003V70.2753C57.2852 71.052 56.6557 71.6816 55.8789 71.6816Z" fill="#19303F"/>
<path d="M35.5078 71.6816C34.731 71.6816 34.1016 71.052 34.1016 70.2753V69.9003C34.1016 69.1237 34.731 68.4941 35.5078 68.4941C36.2846 68.4941 36.9141 69.1237 36.9141 69.9003V70.2753C36.9141 71.052 36.2844 71.6816 35.5078 71.6816Z" fill="#19303F"/>
<path d="M30.546 107.356C28.2758 107.356 26.4287 109.203 26.4287 111.473C26.4287 113.743 28.2758 115.59 30.546 115.59C32.8163 115.59 34.6633 113.743 34.6633 111.473C34.6632 109.203 32.8161 107.356 30.546 107.356Z" fill="#39EEC9"/>
<path d="M45.6937 104.447L41.4688 107.386C42.5349 108.496 44.033 109.188 45.6937 109.188C47.3544 109.188 48.8523 108.496 49.9186 107.386L45.6937 104.447Z" fill="#FF3C88"/>
<path d="M45.6943 109.188C45.0808 109.188 44.4896 109.093 43.9343 108.918L41.9912 124H49.3972L47.4542 108.918C46.8988 109.093 46.3078 109.188 45.6943 109.188Z" fill="#FF3C88"/>
<path d="M65.4905 120.071H64.8082C64.0314 120.071 63.402 119.441 63.402 118.665C63.402 118.153 63.6753 117.705 64.0843 117.459V113.431C64.0843 112.151 63.0429 111.109 61.7628 111.109C60.4828 111.109 59.4414 112.151 59.4414 113.431V117.459C59.8503 117.705 60.1237 118.153 60.1237 118.665C60.1237 119.441 59.4943 120.071 58.7175 120.071H58.0352C57.2583 120.071 56.6289 119.441 56.6289 118.665V113.431C56.6289 110.6 58.932 108.297 61.7627 108.297C64.5935 108.297 66.8964 110.6 66.8964 113.431V118.665C66.8966 119.441 66.267 120.071 65.4905 120.071Z" fill="#3D5868"/>
<g clip-path="url(#clip1)">
<path d="M137.927 94.7339H118.075C109.506 94.7339 102.535 101.705 102.535 110.274V122.594C102.535 123.37 103.165 124 103.942 124H152.06C152.836 124 153.466 123.37 153.466 122.594V110.274C153.466 101.705 146.495 94.7339 137.927 94.7339Z" fill="#F0EEEE"/>
<path d="M137.927 94.7339H132.926C141.494 94.7339 148.465 101.705 148.465 110.274V122.594C148.465 123.37 147.836 124 147.059 124H152.06C152.837 124 153.466 123.37 153.466 122.594V110.274C153.466 101.705 146.495 94.7339 137.927 94.7339Z" fill="#D9D4D4"/>
<path d="M108.468 92.8013H147.535C152.529 92.8013 156.524 88.6512 156.333 83.6601L154.952 47.4745C154.685 40.4852 148.941 34.9568 141.947 34.9568H114.056C107.062 34.9568 101.318 40.4852 101.052 47.4745L99.6696 83.6601C99.479 88.6514 103.474 92.8013 108.468 92.8013Z" fill="#484655"/>
<path d="M127.428 117.12C127.61 117.206 127.805 117.249 128 117.249C128.195 117.249 128.39 117.206 128.572 117.12C133.433 114.828 137.059 110.944 139.058 105.888C140.418 102.452 140.986 98.5529 140.675 94.9823C139.782 94.8222 138.864 94.7339 137.926 94.7339H118.074C117.136 94.7339 116.218 94.8222 115.325 94.9823C115.014 98.5529 115.583 102.452 116.942 105.888C118.942 110.944 122.568 114.828 127.428 117.12Z" fill="#39EEC9"/>
<path d="M140.676 94.9824C140.675 94.9824 140.675 94.9824 140.676 94.9824C140.458 94.9434 140.239 94.9091 140.019 94.8789C140 94.8763 139.98 94.874 139.961 94.8716C139.76 94.8448 139.557 94.8215 139.354 94.8022C139.279 94.7954 139.204 94.7908 139.129 94.7851C138.973 94.7728 138.817 94.7604 138.66 94.7527C138.417 94.7414 138.173 94.7341 137.927 94.7341H132.926C135.78 94.7341 138.456 95.5113 140.757 96.86C140.755 96.2272 140.729 95.5996 140.676 94.9824Z" fill="#5AA8A2"/>
<path d="M120.105 78.1905V95.1941C120.105 99.5542 123.64 103.089 128 103.089C132.36 103.089 135.894 99.554 135.894 95.1941V78.1905H120.105Z" fill="#FA9E3E"/>
<path d="M103.589 69.9878H112.848V80.6042H103.589C100.658 80.6042 98.2813 78.2277 98.2813 75.2959C98.2811 72.3644 100.658 69.9878 103.589 69.9878Z" fill="#FA9E3E"/>
<path d="M152.41 69.9878H143.151V80.6042H152.41C155.341 80.6042 157.718 78.2277 157.718 75.2959C157.718 72.3644 155.342 69.9878 152.41 69.9878Z" fill="#FA9E3E"/>
<path d="M148.495 63.7359C148.815 63.8799 149.025 64.1932 149.025 64.5444V71.2424C149.025 77.0486 146.672 82.3033 142.869 86.1084C139.063 89.9135 133.807 92.267 128.001 92.267C127.819 92.267 127.639 92.2651 127.458 92.2595H127.434C127.262 92.2558 127.089 92.2483 126.918 92.2389C126.905 92.2389 126.894 92.2389 126.881 92.237H126.873C115.784 91.6518 106.976 82.4739 106.976 71.2422V64.1999C106.976 63.4422 107.576 62.8218 108.333 62.792C124.91 62.1399 134.172 57.0599 139.783 52.1444C140.154 51.8197 140.732 52.0196 140.832 52.5022C141.427 55.3747 142.785 58.3781 144.65 60.6425C145.768 62.0011 147.068 63.0944 148.495 63.7359Z" fill="#FFB56B"/>
<path d="M128.001 82.0828C125.471 82.0828 123.099 80.8391 121.656 78.756C121.214 78.1174 121.374 77.2412 122.012 76.7989C122.651 76.3567 123.527 76.5157 123.969 77.1546C124.886 78.4789 126.394 79.2697 128.001 79.2697C129.609 79.2697 131.117 78.4791 132.034 77.1546C132.476 76.5159 133.352 76.3567 133.991 76.7989C134.629 77.241 134.789 78.1174 134.346 78.756C132.904 80.8391 130.532 82.0828 128.001 82.0828Z" fill="#19303F"/>
<path d="M148.493 63.7358C148.814 63.8798 149.023 64.1931 149.023 64.5443V71.2424C149.023 77.0485 146.67 82.3032 142.867 86.1083C139.062 89.9134 133.805 92.2669 127.999 92.2669C127.817 92.2669 127.637 92.2651 127.457 92.2594H127.432C127.26 92.2557 127.087 92.2482 126.916 92.2388C126.903 92.2388 126.892 92.2388 126.879 92.2369C136.785 91.6836 144.648 83.4753 144.648 73.429V60.6428C145.766 62.0011 147.066 63.0944 148.493 63.7358Z" fill="#EF9245"/>
<path d="M138.188 70.5452C137.411 70.5452 136.781 69.9154 136.781 69.1386V68.7636C136.781 67.9868 137.411 67.3572 138.188 67.3572C138.965 67.3572 139.594 67.987 139.594 68.7636V69.1386C139.594 69.9154 138.965 70.5452 138.188 70.5452Z" fill="#19303F"/>
<path d="M117.813 70.5452C117.036 70.5452 116.406 69.9154 116.406 69.1386V68.7636C116.406 67.9868 117.036 67.3572 117.813 67.3572C118.589 67.3572 119.219 67.987 119.219 68.7636V69.1386C119.219 69.9154 118.59 70.5452 117.813 70.5452Z" fill="#19303F"/>
<path d="M151.32 84.9613C150.543 84.9613 149.913 84.3315 149.913 83.5547V77.9552C149.913 77.1784 150.543 76.5488 151.32 76.5488C152.096 76.5488 152.726 77.1786 152.726 77.9552V83.5547C152.726 84.3315 152.096 84.9613 151.32 84.9613Z" fill="#F0EEEE"/>
<path d="M104.684 84.9613C103.907 84.9613 103.277 84.3315 103.277 83.5547V77.9552C103.277 77.1784 103.907 76.5488 104.684 76.5488C105.461 76.5488 106.09 77.1786 106.09 77.9552V83.5547C106.091 84.3315 105.461 84.9613 104.684 84.9613Z" fill="#F0EEEE"/>
<path d="M151.773 33.317C151.633 32.9626 151.355 32.6803 151.003 32.5346C136.385 26.4911 119.619 26.4911 105.002 32.5346C104.65 32.6803 104.372 32.9626 104.231 33.317C104.091 33.6716 104.101 34.0676 104.258 34.4148L111.569 50.558C111.882 51.2491 112.687 51.5673 113.388 51.2776C122.676 47.4375 133.329 47.4375 142.616 51.2776C142.792 51.3502 142.974 51.3847 143.153 51.3845C143.689 51.3845 144.2 51.0759 144.435 50.558L151.746 34.4148C151.904 34.0676 151.913 33.6714 151.773 33.317Z" fill="#F0EEEE"/>
<path d="M110.136 47.3946L111.568 50.5562C111.881 51.2473 112.685 51.5655 113.386 51.2758C122.674 47.4356 133.327 47.4356 142.614 51.2758C142.79 51.3484 142.972 51.3829 143.151 51.3827C143.688 51.3827 144.198 51.0741 144.433 50.5562L145.865 47.3946C134.381 42.7455 121.62 42.7455 110.136 47.3946Z" fill="#39EEC9"/>
<path d="M105.412 36.9634C119.795 31.1436 136.207 31.1436 150.59 36.9634L151.745 34.4129C151.903 34.0658 151.912 33.6696 151.772 33.3151C151.632 32.9607 151.354 32.6783 151.002 32.5326C136.384 26.4891 119.618 26.4891 105.001 32.5326C104.649 32.6783 104.371 32.9607 104.23 33.3151C104.09 33.6696 104.1 34.0656 104.257 34.4129L105.412 36.9634Z" fill="#39EEC9"/>
<path d="M130.755 36.3634H129.406V35.0139C129.406 34.2371 128.776 33.6075 127.999 33.6075C127.223 33.6075 126.593 34.2373 126.593 35.0139V36.3634H125.243C124.467 36.3634 123.837 36.9932 123.837 37.7698C123.837 38.5464 124.467 39.1762 125.243 39.1762H126.593V40.5257C126.593 41.3025 127.223 41.9323 127.999 41.9323C128.776 41.9323 129.406 41.3025 129.406 40.5257V39.1762H130.755C131.532 39.1762 132.162 38.5464 132.162 37.7698C132.162 36.9932 131.532 36.3634 130.755 36.3634Z" fill="#FF3C88"/>
</g>
<defs>
<clipPath id="clip0">
<rect width="152" height="152" fill="white" transform="translate(163 152) rotate(-180)"/>
</clipPath>
<clipPath id="clip1">
<rect width="96" height="96" fill="white" transform="translate(80 28)"/>
</clipPath>
</defs>
</svg>
