<svg width="88" height="88" viewBox="0 0 88 88" fill="none" xmlns="http://www.w3.org/2000/svg">
<circle cx="44" cy="44" r="44" fill="#E9ECF6"/>
<path d="M57.3332 59V55.6667C57.3332 53.8986 56.6308 52.2029 55.3805 50.9526C54.1303 49.7024 52.4346 49 50.6665 49H37.3332C35.5651 49 33.8694 49.7024 32.6191 50.9526C31.3689 52.2029 30.6665 53.8986 30.6665 55.6667V59" stroke="#4863F5" stroke-width="4" stroke-linecap="round" stroke-linejoin="round"/>
<path d="M44.0002 42.3333C47.6821 42.3333 50.6668 39.3486 50.6668 35.6667C50.6668 31.9848 47.6821 29 44.0002 29C40.3183 29 37.3335 31.9848 37.3335 35.6667C37.3335 39.3486 40.3183 42.3333 44.0002 42.3333Z" stroke="#4863F5" stroke-width="4" stroke-linecap="round" stroke-linejoin="round"/>
</svg>
