<svg width="48" height="48" viewBox="0 0 48 48" fill="none" xmlns="http://www.w3.org/2000/svg">
<path d="M11.1602 15.6566V47.2758C11.1602 47.2818 11.161 47.2876 11.1611 47.2936H36.8389C36.839 47.2876 36.8399 47.2818 36.8399 47.2758V15.6566H11.1602Z" fill="#EEF3FB"/>
<path d="M2.27349 17.9241H45.7279C46.593 17.9241 47.2944 18.6255 47.2944 19.4906V47.2937H0.707031V19.4905C0.707031 18.6255 1.40838 17.9241 2.27349 17.9241Z" fill="#EEF3FB"/>
<path d="M45.7277 17.9241H42.9023C43.7675 17.9241 44.4688 18.6255 44.4688 19.4906V47.2937H47.2941V19.4905C47.2941 18.6255 46.5928 17.9241 45.7277 17.9241Z" fill="#C2CAE7"/>
<path d="M0.707031 41.2106H47.2944V47.2937H0.707031V41.2106Z" fill="#C2CAE7"/>
<path d="M11.1602 28.6943V47.2758C11.1602 47.2818 11.161 47.2876 11.1611 47.2937H36.8389C36.839 47.2876 36.8399 47.2818 36.8399 47.2758V28.6943" fill="#EEF3FB"/>
<path d="M35.0009 18V47.3517C35.0009 47.3577 35.0001 47.3635 35 47.3695H37.8253C37.8254 47.3635 37.8263 47.3577 37.8263 47.3517V18H35.0009Z" fill="#C2CAE7"/>
<path d="M16.7578 34.9426H23.9996V47.2936H16.7578V34.9426Z" fill="#E9ECF6"/>
<path d="M23.9996 35.5364V47.2937H16.7578V35.4657" fill="#E9ECF6"/>
<path d="M21.1758 34.9425H24.0011V47.2936H21.1758V34.9425Z" fill="#C2CAE7"/>
<path d="M24 34.9426H31.2418V47.2936H24V34.9426Z" fill="#E9ECF6"/>
<path d="M24 34.9426H31.2418V47.2936H24V34.9426Z" fill="#E9ECF6"/>
<path d="M28.418 34.9425H31.2433V47.2936H28.418V34.9425Z" fill="#C2CAE7"/>
<path d="M21.8857 31.8689H33.4565V34.9426H15.4141V31.8689H19.0604" fill="#C2CAE7"/>
<path d="M11.1602 17.9241H36.8398V28.6943H11.1602V17.9241Z" fill="#E9ECF6"/>
<path d="M45 25H47.8253V35.7702H45V25Z" fill="#C2CAE7"/>
<path d="M3.90234 21.2825H8.18462V27.46H3.90234V21.2825Z" fill="#E9ECF6"/>
<path d="M3.90234 31.529H8.18462V37.7066H3.90234V31.529Z" fill="#E9ECF6"/>
<path d="M40.1875 21.2825H44.4698V27.46H40.1875V21.2825Z" fill="#E9ECF6"/>
<path d="M40.1875 31.529H44.4698V37.7066H40.1875V31.529Z" fill="#E9ECF6"/>
<path d="M36.8398 14.3852H11.1602V7.55027C11.1602 6.54396 11.9759 5.72809 12.9823 5.72809H35.0177C36.024 5.72809 36.8399 6.54387 36.8399 7.55027V14.3852H36.8398Z" fill="#C2CAE7"/>
<path d="M35.0167 5.72818H32.1914C33.1977 5.72818 34.0136 6.54396 34.0136 7.55037V14.3852H36.8389V7.55027C36.8389 6.54396 36.0231 5.72818 35.0167 5.72818Z" fill="#C2CAE7"/>
<path d="M25.375 18H28.2003V28.7702H25.375V18Z" fill="#C2CAE7"/>
<path d="M28.3433 4.02448H26.3789C26.0051 4.02448 25.702 3.72141 25.702 3.34761V1.38321C25.702 1.00941 25.3989 0.706345 25.0251 0.706345H22.9716C22.5978 0.706345 22.2947 1.00941 22.2947 1.38321V3.3477C22.2947 3.7215 21.9917 4.02457 21.6179 4.02457H19.6534C19.2796 4.02457 18.9766 4.32764 18.9766 4.70144V6.75502C18.9766 7.12882 19.2796 7.43189 19.6534 7.43189H21.6179C21.9917 7.43189 22.2947 7.73496 22.2947 8.10876V10.0732C22.2947 10.447 22.5978 10.7501 22.9716 10.7501H25.0251C25.3989 10.7501 25.702 10.447 25.702 10.0732V8.10866C25.702 7.73487 26.0051 7.4318 26.3789 7.4318H28.3433C28.7171 7.4318 29.0202 7.12873 29.0202 6.75493V4.70134C29.0202 4.32755 28.7172 4.02448 28.3433 4.02448Z" fill="#FF3C88"/>
<path d="M16.7852 17.9241H19.6105V28.6943H16.7852V17.9241Z" fill="#C2CAE7"/>
<path d="M39.8616 17.9241H8.44141V14.6047C8.44141 13.7187 9.1597 13.0004 10.0457 13.0004H38.2573C39.1434 13.0004 39.8616 13.7187 39.8616 14.6047V17.9241H39.8616Z" fill="#232735"/>
<path d="M38.255 13.0004H35.4297C36.3157 13.0004 37.034 13.7188 37.034 14.6048V17.9242H39.8594V14.6048C39.8593 13.7187 39.1411 13.0004 38.255 13.0004Z" fill="#232735"/>
<path d="M3.90165 28.1664H8.18392C8.57401 28.1664 8.89026 27.8501 8.89026 27.46V21.2825C8.89026 20.8924 8.57401 20.5762 8.18392 20.5762H3.90165C3.51156 20.5762 3.19531 20.8924 3.19531 21.2825V27.46C3.19531 27.8501 3.51156 28.1664 3.90165 28.1664ZM4.60798 21.9888H7.47759V26.7537H4.60798V21.9888Z" fill="#232735"/>
<path d="M3.90165 38.4129H8.18392C8.57401 38.4129 8.89026 38.0966 8.89026 37.7066V31.529C8.89026 31.1389 8.57401 30.8227 8.18392 30.8227H3.90165C3.51156 30.8227 3.19531 31.1389 3.19531 31.529V37.7066C3.19531 38.0966 3.51156 38.4129 3.90165 38.4129ZM4.60798 32.2354H7.47759V37.0002H4.60798V32.2354Z" fill="#232735"/>
<path d="M40.1907 28.1664H44.473C44.8631 28.1664 45.1793 27.8501 45.1793 27.46V21.2825C45.1793 20.8924 44.8631 20.5762 44.473 20.5762H40.1907C39.8006 20.5762 39.4844 20.8924 39.4844 21.2825V27.46C39.4844 27.8501 39.8006 28.1664 40.1907 28.1664ZM40.897 21.9888H43.7667V26.7537H40.897V21.9888Z" fill="#232735"/>
<path d="M40.1907 38.4129H44.473C44.8631 38.4129 45.1793 38.0966 45.1793 37.7066V31.529C45.1793 31.1389 44.8631 30.8227 44.473 30.8227H40.1907C39.8006 30.8227 39.4844 31.1389 39.4844 31.529V37.7066C39.4844 38.0966 39.8006 38.4129 40.1907 38.4129ZM40.897 32.2354H43.7667V37.0002H40.897V32.2354Z" fill="#232735"/>
<path d="M45.7272 17.2178H40.5674V14.6047C40.5674 13.3305 39.5309 12.294 38.2567 12.294H37.546V7.55028C37.546 6.15604 36.4119 5.02175 35.0177 5.02175H29.728V4.70125C29.728 3.93859 29.1075 3.31804 28.3448 3.31804H26.4099V1.38321C26.4099 0.620549 25.7894 0 25.0267 0H22.9731C22.2104 0 21.5899 0.620549 21.5899 1.38321V3.31813H19.655C18.8923 3.31813 18.2719 3.93859 18.2719 4.70135V5.02184H12.9822C11.5879 5.02184 10.4538 6.15614 10.4538 7.55037V12.2743L10.0609 12.2723C9.44483 12.2721 8.86225 12.5068 8.42375 12.9409C7.98517 13.3752 7.7419 13.9542 7.7388 14.5712L7.72476 17.2178H2.2728C1.01957 17.2178 0 18.2374 0 19.4906V47.2937C0 47.6837 0.31625 48 0.706335 48H47.2937C47.6838 48 48 47.6837 48 47.2937V19.4906C48 18.2374 46.9804 17.2178 45.7272 17.2178ZM46.5873 19.4906V40.5043H37.6463C37.6122 40.5043 37.5789 40.5075 37.5461 40.5122V28.6943V18.6305H45.7272C46.2015 18.6305 46.5873 19.0163 46.5873 19.4906ZM20.3176 27.988V18.6683C20.3176 18.6555 20.3164 18.6431 20.3157 18.6305H27.4962C27.4956 18.6431 27.4943 18.6555 27.4943 18.6683V27.988H20.3176ZM11.8665 27.988V18.6305H18.9069C18.9062 18.6431 18.905 18.6555 18.905 18.6683V27.988H11.8665ZM28.905 18.6305H36.1335V27.988H28.907V18.6683C28.9069 18.6555 28.9057 18.6431 28.905 18.6305ZM19.6846 4.73082H21.6195C22.3823 4.73082 23.0027 4.11028 23.0027 3.34761V1.41269H24.9973V3.34761C24.9973 4.11028 25.6177 4.73082 26.3805 4.73082H28.3154V6.72545H26.3805C25.6177 6.72545 24.9973 7.346 24.9973 8.10867V10.0436H23.0027V8.10867C23.0027 7.346 22.3823 6.72545 21.6195 6.72545H19.6846V4.73082ZM9.15156 14.5784C9.15279 14.3385 9.24725 14.1136 9.41771 13.9448C9.58817 13.776 9.81429 13.6804 10.054 13.6849L20.3878 13.7366C20.778 13.7412 21.0957 13.4239 21.0977 13.0337C21.0996 12.6436 20.785 12.3257 20.3949 12.3239L11.8666 12.2812V9.79392H15.2374C15.6275 9.79392 15.9438 9.47766 15.9438 9.08757C15.9438 8.69748 15.6275 8.38122 15.2374 8.38122H11.8666V7.55018C11.8666 6.93491 12.3671 6.43434 12.9823 6.43434H18.272V6.75484C18.272 7.5175 18.8925 8.13805 19.6552 8.13805H21.5901V10.073C21.5901 10.8356 22.2106 11.4562 22.9733 11.4562H25.0269C25.7895 11.4562 26.4101 10.8356 26.4101 10.073V8.13815H28.3449C29.1077 8.13815 29.7281 7.5176 29.7281 6.75493V6.43444H35.0178C35.6331 6.43444 36.1336 6.935 36.1336 7.55028V8.38132H32.7627C32.3726 8.38132 32.0563 8.69757 32.0563 9.08766C32.0563 9.47776 32.3726 9.79401 32.7627 9.79401H36.1335V12.294H23.2043C22.8143 12.294 22.498 12.6103 22.498 13.0004C22.498 13.3904 22.8143 13.7067 23.2043 13.7067H38.2568C38.7519 13.7067 39.1548 14.1095 39.1548 14.6047V17.2178H9.13753L9.15156 14.5784ZM2.2728 18.6305H10.4539V28.6943V40.5043H1.41267V19.4906C1.41267 19.0163 1.79852 18.6305 2.2728 18.6305ZM1.41267 41.9169H10.4539V46.5873H1.41267V41.9169ZM17.4644 46.5873V35.6488H23.2936V46.5873H17.4644ZM24.7064 46.5873V35.6488H30.5356V46.5873H24.7064ZM31.9482 46.5873V35.6488H33.4547C33.8448 35.6488 34.161 35.3326 34.161 34.9425V31.8688C34.161 31.4787 33.8448 31.1625 33.4547 31.1625H21.8839C21.4938 31.1625 21.1775 31.4787 21.1775 31.8688C21.1775 32.2589 21.4938 32.5752 21.8839 32.5752H32.7484V34.2361H16.1186V32.5752H19.0584C19.4485 32.5752 19.7648 32.2589 19.7648 31.8688C19.7648 31.4787 19.4485 31.1625 19.0584 31.1625H15.4122C15.0221 31.1625 14.7059 31.4787 14.7059 31.8688V34.9425C14.7059 35.3326 15.0221 35.6488 15.4122 35.6488H16.0517V46.5873H11.8665V29.4007H36.1335V46.5873H31.9482ZM37.5461 46.5873V41.909C37.5789 41.9137 37.6122 41.9169 37.6463 41.9169H46.5873V46.5873H37.5461Z" fill="#232735"/>
</svg>
