<svg width="48" height="48" viewBox="0 0 48 48" fill="none" xmlns="http://www.w3.org/2000/svg">
<g clip-path="url(#clip0)">
<path d="M12.6266 27.8211C6.94578 27.8211 2.32422 23.1994 2.32422 17.5187C2.32422 16.6338 3.04159 15.9164 3.92654 15.9164C4.81149 15.9164 5.52886 16.6338 5.52886 17.5187C5.52886 21.4323 8.71285 24.6164 12.6266 24.6164C16.5403 24.6164 19.7243 21.4324 19.7243 17.5187C19.7243 16.6338 20.4416 15.9164 21.3266 15.9164C22.2115 15.9164 22.9289 16.6338 22.9289 17.5187C22.9289 23.1994 18.3073 27.8211 12.6266 27.8211Z" fill="#E9ECF6"/>
<path d="M21.3248 15.9164C20.7124 15.9164 20.1807 16.2602 19.911 16.7651C20.031 16.9898 20.0995 17.2461 20.0995 17.5187C20.0995 22.7198 16.2251 27.0323 11.2109 27.7236C11.6733 27.7873 12.1451 27.8211 12.6247 27.8211C18.3055 27.8211 22.9271 23.1994 22.9271 17.5187C22.9272 16.6339 22.2097 15.9164 21.3248 15.9164Z" fill="#C2CAE7"/>
<path d="M40.6049 27.5957C43.4048 27.5957 45.6746 25.3259 45.6746 22.526C45.6746 19.726 43.4048 17.4562 40.6049 17.4562C37.805 17.4562 35.5352 19.726 35.5352 22.526C35.5352 25.3259 37.805 27.5957 40.6049 27.5957Z" fill="#E9ECF6"/>
<path d="M40.6052 17.4561C40.1143 17.4561 39.6403 17.5273 39.1914 17.6575C41.3031 18.2697 42.8473 20.2168 42.8473 22.526C42.8473 24.835 41.3031 26.7822 39.1914 27.3945C39.6403 27.5246 40.1143 27.5958 40.6052 27.5958C43.4052 27.5958 45.6749 25.326 45.6749 22.5261C45.6749 19.7261 43.4052 17.4561 40.6052 17.4561Z" fill="#C2CAE7"/>
<path d="M40.6043 24.4154C41.6478 24.4154 42.4937 23.5695 42.4937 22.526C42.4937 21.4825 41.6478 20.6365 40.6043 20.6365C39.5608 20.6365 38.7148 21.4825 38.7148 22.526C38.7148 23.5695 39.5608 24.4154 40.6043 24.4154Z" fill="#FF3C88"/>
<path d="M5.44607 5.66637H2.41797V2.22091C2.41797 1.38469 3.09584 0.706909 3.93197 0.706909C4.76819 0.706909 5.44597 1.38478 5.44597 2.22091V5.66637H5.44607Z" fill="#E9ECF6"/>
<path d="M22.8406 5.66637H19.8125V2.22091C19.8125 1.38469 20.4904 0.706909 21.3265 0.706909C22.1627 0.706909 22.8405 1.38478 22.8405 2.22091V5.66637H22.8406Z" fill="#D3D4D8"/>
<path d="M22.8406 5.66637H19.8125V2.22091C19.8125 1.38469 20.4904 0.706909 21.3265 0.706909C22.1627 0.706909 22.8405 1.38478 22.8405 2.22091V5.66637H22.8406Z" fill="#C2CAE7"/>
<path d="M41.22 16.7826V14.1071C41.22 11.0677 38.7473 8.59503 35.7079 8.59503C32.6685 8.59503 30.1958 11.0678 30.1958 14.1071V20.3353V35.6997V38.1551C30.1958 42.8041 26.4135 46.5863 21.7646 46.5863C17.1156 46.5863 13.3333 42.8041 13.3333 38.1551V28.5046C19.0757 28.1389 23.6357 23.3517 23.6357 17.5187C23.6357 16.4919 22.9619 15.6199 22.0334 15.3206V6.37327H22.8405C23.231 6.37327 23.5474 6.05677 23.5474 5.66636V2.22091C23.5473 0.996265 22.551 0 21.3264 0C20.1017 0 19.1055 0.996265 19.1055 2.22091V5.66636C19.1055 6.05677 19.422 6.37327 19.8124 6.37327H20.6195V15.3206C19.691 15.62 19.0171 16.4919 19.0171 17.5187C19.0171 21.0426 16.1502 23.9095 12.6263 23.9095C9.10247 23.9095 6.23554 21.0426 6.23554 17.5187C6.23554 16.4919 5.56172 15.6199 4.63322 15.3206V6.37327H5.44645C5.83685 6.37327 6.15335 6.05677 6.15335 5.66636V2.22091C6.15335 0.996265 5.15699 0 3.93235 0C2.70771 0 1.71144 0.996265 1.71144 2.22091V5.66636C1.71144 6.05677 2.02795 6.37327 2.41835 6.37327H3.21951V15.3206C2.29101 15.62 1.61719 16.4919 1.61719 17.5187C1.61719 19.267 2.18742 21.134 3.26626 22.918C4.22868 24.5094 5.54796 25.9466 6.98109 26.965C7.29939 27.1911 7.74078 27.1164 7.9668 26.7981C8.19291 26.4798 8.11827 26.0385 7.79997 25.8124C5.50309 24.1804 3.031 20.889 3.031 17.5187C3.031 17.025 3.43271 16.6233 3.92641 16.6233C4.42011 16.6233 4.82182 17.025 4.82182 17.5187C4.82182 21.8222 8.32298 25.3233 12.6264 25.3233C16.9299 25.3233 20.431 21.8222 20.431 17.5187C20.431 17.025 20.8328 16.6233 21.3265 16.6233C21.8203 16.6233 22.2219 17.025 22.2219 17.5187C22.2219 22.8097 17.9174 27.1142 12.6264 27.1142C11.8104 27.1142 10.9997 27.0111 10.2169 26.8079C9.83925 26.71 9.45318 26.9367 9.35507 27.3145C9.25695 27.6924 9.48382 28.0783 9.86168 28.1764C10.5336 28.3509 11.2232 28.4609 11.9195 28.5053V38.1551C11.9195 43.5836 16.336 48.0001 21.7646 48.0001C27.1931 48.0001 31.6095 43.5835 31.6095 38.1551V35.6997V20.3353V14.1071C31.6095 11.8473 33.448 10.0088 35.7078 10.0088C37.9677 10.0088 39.8061 11.8474 39.8061 14.1071V16.805C39.0777 16.9063 38.3728 17.1451 37.7341 17.5112C37.3954 17.7053 37.2782 18.1373 37.4724 18.4761C37.6665 18.8147 38.0986 18.9319 38.4371 18.7378C39.0931 18.3618 39.842 18.1631 40.6032 18.1631C43.0088 18.1631 44.966 20.1203 44.966 22.5261C44.966 24.9318 43.0088 26.889 40.6032 26.889C38.1976 26.889 36.2404 24.9318 36.2404 22.5261C36.2404 21.9688 36.4565 20.8558 36.8474 20.3009C37.0722 19.9818 36.9956 19.5407 36.6765 19.316C36.3571 19.0911 35.9163 19.1676 35.6914 19.4868C35.0612 20.3814 34.8265 21.8258 34.8265 22.5262C34.8265 25.7114 37.4179 28.3029 40.6031 28.3029C43.7883 28.3029 46.3797 25.7115 46.3797 22.5262C46.3799 19.549 44.1163 17.0914 41.22 16.7826ZM20.5193 2.22091C20.5193 1.77584 20.8814 1.41381 21.3264 1.41381C21.7713 1.41381 22.1335 1.77584 22.1335 2.22091V4.95946H20.5193V2.22091ZM3.12525 2.22091C3.12525 1.77584 3.48728 1.41381 3.93235 1.41381C4.37742 1.41381 4.73945 1.77584 4.73945 2.22091V4.95946H3.12525V2.22091Z" fill="black"/>
<path d="M43.2005 22.526C43.2005 21.0943 42.0358 19.9296 40.6041 19.9296C39.1725 19.9296 38.0078 21.0943 38.0078 22.526C38.0078 23.9576 39.1725 25.1223 40.6041 25.1223C42.0358 25.1223 43.2005 23.9576 43.2005 22.526ZM39.4216 22.526C39.4216 21.8739 39.9521 21.3435 40.6041 21.3435C41.2562 21.3435 41.7866 21.8739 41.7866 22.526C41.7866 23.178 41.2562 23.7085 40.6041 23.7085C39.9521 23.7085 39.4216 23.178 39.4216 22.526Z" fill="black"/>
</g>
<defs>
<clipPath id="clip0">
<rect width="48" height="48" fill="white"/>
</clipPath>
</defs>
</svg>
